<svg width="130" height="130" viewBox="0 0 130 130" fill="none" xmlns="http://www.w3.org/2000/svg">
<g clip-path="url(#clip0)">
<path d="M79.6261 43.4116H58.9462C57.8945 43.4116 57.0419 42.5593 57.0419 41.5073C57.0419 40.4554 57.8945 39.603 58.9462 39.603H79.6261C80.6777 39.603 81.5304 40.4554 81.5304 41.5073C81.5304 42.5593 80.678 43.4116 79.6261 43.4116Z" fill="white"/>
<path d="M100.306 33.637H58.9462C57.8945 33.637 57.0419 32.7846 57.0419 31.7327C57.0419 30.6807 57.8945 29.8284 58.9462 29.8284H100.306C101.358 29.8284 102.211 30.6807 102.211 31.7327C102.211 32.7846 101.358 33.637 100.306 33.637Z" fill="white"/>
<path d="M79.6261 75.3242H58.9462C57.8945 75.3242 57.0419 74.4719 57.0419 73.4199C57.0419 72.368 57.8945 71.5156 58.9462 71.5156H79.6261C80.6777 71.5156 81.5304 72.368 81.5304 73.4199C81.5304 74.4719 80.678 75.3242 79.6261 75.3242Z" fill="white"/>
<path d="M100.306 65.5493H58.9462C57.8945 65.5493 57.0419 64.697 57.0419 63.645C57.0419 62.5931 57.8945 61.7407 58.9462 61.7407H100.306C101.358 61.7407 102.211 62.5931 102.211 63.645C102.211 64.697 101.358 65.5493 100.306 65.5493Z" fill="white"/>
<path d="M79.6261 107.237H58.9462C57.8945 107.237 57.0419 106.385 57.0419 105.333C57.0419 104.281 57.8945 103.428 58.9462 103.428H79.6261C80.6777 103.428 81.5304 104.281 81.5304 105.333C81.5304 106.385 80.678 107.237 79.6261 107.237Z" fill="white"/>
<path d="M100.306 97.4622H58.9462C57.8945 97.4622 57.0419 96.6098 57.0419 95.5579C57.0419 94.5059 57.8945 93.6536 58.9462 93.6536H100.306C101.358 93.6536 102.211 94.5059 102.211 95.5579C102.211 96.6098 101.358 97.4622 100.306 97.4622Z" fill="white"/>
<path d="M81.4663 17.9387H48.5336C45.4035 17.9387 42.8568 15.3923 42.8568 12.2621V5.67684C42.8571 2.54668 45.4035 0 48.5336 0H81.4661C84.5962 0 87.1429 2.54668 87.1429 5.67684V12.2621C87.1429 15.3923 84.5965 17.9387 81.4663 17.9387ZM48.5336 3.80859C47.5036 3.80859 46.6654 4.64674 46.6654 5.67684V12.2621C46.6654 13.2922 47.5036 14.1301 48.5336 14.1301H81.4661C82.4962 14.1301 83.3343 13.292 83.3343 12.2621V5.67684C83.3343 4.64648 82.4962 3.80859 81.4661 3.80859H48.5336Z" fill="white"/>
<path d="M41.3657 45.9641H32.9022C30.0831 45.9641 27.7896 43.6706 27.7896 40.8515V32.3883C27.7896 29.5692 30.0831 27.2756 32.9022 27.2756H41.3657C44.1848 27.2756 46.4783 29.5692 46.4783 32.3883V40.8517C46.4783 43.6706 44.1848 45.9641 41.3657 45.9641ZM32.9022 31.0842C32.1831 31.0842 31.5981 31.6692 31.5981 32.3883V40.8517C31.5981 41.5708 32.1831 42.1558 32.9022 42.1558H41.3657C42.0847 42.1558 42.6697 41.5708 42.6697 40.8517V32.3883C42.6697 31.6692 42.0847 31.0842 41.3657 31.0842H32.9022Z" fill="white"/>
<path d="M41.3657 77.877H32.9022C30.0831 77.877 27.7896 75.5835 27.7896 72.7644V64.3009C27.7896 61.4818 30.0831 59.1882 32.9022 59.1882H41.3657C44.1848 59.1882 46.4783 61.4818 46.4783 64.3009V72.7644C46.4783 75.5835 44.1848 77.877 41.3657 77.877ZM32.9022 62.9968C32.1831 62.9968 31.5981 63.5818 31.5981 64.3009V72.7644C31.5981 73.4834 32.1831 74.0684 32.9022 74.0684H41.3657C42.0847 74.0684 42.6697 73.4834 42.6697 72.7644V64.3009C42.6697 63.5818 42.0847 62.9968 41.3657 62.9968H32.9022Z" fill="white"/>
<path d="M41.3657 109.79H32.9022C30.0831 109.79 27.7896 107.496 27.7896 104.677V96.2135C27.7896 93.3941 30.0831 91.1006 32.9022 91.1006H41.3657C44.1848 91.1006 46.4783 93.3941 46.4783 96.2135V104.677C46.4783 107.496 44.1848 109.79 41.3657 109.79ZM32.9022 94.9094C32.1831 94.9094 31.5981 95.4947 31.5981 96.2137V104.677C31.5981 105.396 32.1831 105.981 32.9022 105.981H41.3657C42.0847 105.981 42.6697 105.396 42.6697 104.677V96.2137C42.6697 95.4947 42.0847 94.9094 41.3657 94.9094H32.9022Z" fill="white"/>
<path d="M105.511 130H24.489C19.9401 130 16.2394 126.299 16.2394 121.75V15.3146C16.2394 10.7659 19.9403 7.06519 24.489 7.06519H35.9009C36.9525 7.06519 37.8052 7.91755 37.8052 8.96948C37.8052 10.0214 36.9525 10.8738 35.9009 10.8738H24.489C22.0401 10.8738 20.048 12.8659 20.048 15.3146V121.75C20.048 124.199 22.0404 126.191 24.489 126.191H105.511C107.96 126.191 109.952 124.199 109.952 121.75V15.3146C109.952 12.8657 107.96 10.8738 105.511 10.8738H94.0992C93.0475 10.8738 92.1949 10.0214 92.1949 8.96948C92.1949 7.91755 93.0475 7.06519 94.0992 7.06519H105.511C110.06 7.06519 113.761 10.7659 113.761 15.3146V121.75C113.761 126.299 110.06 130 105.511 130Z" fill="white"/>
</g>
<defs>
<clipPath id="clip0">
<rect width="130" height="130" fill="white"/>
</clipPath>
</defs>
</svg>
