<svg width="100" height="150" viewBox="0 0 100 150" fill="none" xmlns="http://www.w3.org/2000/svg">
<path d="M68.7497 34.3733V43.7481C68.7497 54.1043 60.3563 62.4977 50.0001 62.4977C39.6438 62.4977 31.2505 54.1043 31.2505 43.7481V34.3733H24.9987V43.7481C25.0133 57.5495 36.1986 68.7319 49.9971 68.7466C63.7986 68.7319 74.981 57.5466 74.9956 43.7481V34.3733C74.9986 34.3733 68.7497 34.3733 68.7497 34.3733Z" fill="white"/>
<path d="M84.4934 81.9593L62.5007 70.5543V62.5007H56.2489V72.4556C56.2489 73.6216 56.9022 74.6909 57.9364 75.227L81.6165 87.4992C88.9933 90.8214 93.7422 98.1572 93.7481 106.249V143.748H6.24902V106.249C6.25488 98.1572 11.0038 90.8214 18.3806 87.4992L42.0607 75.227C43.0978 74.6909 43.7482 73.6216 43.7482 72.4556V62.5007H37.4993V70.5543L15.5066 81.9593C6.02636 86.3215 -0.0320979 95.8135 0.00012793 106.249V146.874C0.00012793 148.597 1.40049 149.997 3.12604 149.997H96.874C98.5996 149.997 99.9999 148.597 99.9999 146.871V106.249C100.032 95.8135 93.9707 86.3186 84.4934 81.9593Z" fill="white"/>
<path d="M21.8727 124.998H15.6238V146.874H21.8727V124.998Z" fill="white"/>
<path d="M84.3732 124.998H78.1243V146.874H84.3732V124.998Z" fill="white"/>
<path d="M84.3733 31.2502H15.6238V37.4991H84.3733V31.2502Z" fill="white"/>
<path d="M50.0001 0C34.4673 0 21.8757 12.5915 21.8757 28.1244V34.3733H28.1246V28.1244C28.1246 16.0426 37.9184 6.24889 50.0001 6.24889C62.0819 6.24889 71.8727 16.0426 71.8727 28.1244V34.3733H78.1216V28.1244C78.1245 12.5915 65.533 0 50.0001 0Z" fill="white"/>
<path d="M40.5521 5.57123L34.4491 6.92725L40.6986 35.0544L46.8016 33.6983L40.5521 5.57123Z" fill="white"/>
<path d="M59.4422 5.57961L53.1991 33.7039L59.3021 35.0586L65.5452 6.93438L59.4422 5.57961Z" fill="white"/>
<path d="M63.4147 72.7893L54.954 81.2471H45.0431L36.5823 72.7864L32.1644 77.2043L41.5392 86.579C42.1251 87.165 42.9191 87.4931 43.7482 87.4931H56.2489C57.078 87.4931 57.8719 87.165 58.4578 86.579L67.8326 77.2043L63.4147 72.7893Z" fill="white"/>
</svg>
