<svg width="120" height="120" viewBox="0 0 120 120" fill="none" xmlns="http://www.w3.org/2000/svg">
<g clip-path="url(#clip0)">
<path d="M110.974 32.5588L110.97 32.4654C110.918 31.3128 110.883 30.0933 110.862 28.7365C110.764 22.12 105.504 16.647 98.887 16.2771C85.09 15.5071 74.4168 11.0083 65.2973 2.11942L65.2195 2.04527C62.2449 -0.682081 57.7579 -0.682081 54.7825 2.04527L54.7047 2.11942C45.5851 11.0083 34.9119 15.5071 21.115 16.278C14.4985 16.647 9.23787 22.12 9.13991 28.7374C9.11977 30.085 9.08406 31.3045 9.03188 32.4654L9.02639 32.6824C8.75814 46.7513 8.42489 64.2607 14.2824 80.1533C17.5032 88.8929 22.3811 96.4899 28.7797 102.735C36.0673 109.846 45.6126 115.493 57.15 119.515C57.5254 119.646 57.9154 119.752 58.3127 119.832C58.873 119.944 59.437 120 60.001 120C60.5649 120 61.1298 119.944 61.6892 119.832C62.0865 119.752 62.4793 119.645 62.8565 119.514C74.3802 115.483 83.9154 109.835 91.1966 102.724C97.5924 96.4771 102.47 88.8782 105.694 80.1368C111.573 64.1966 111.241 46.6542 110.974 32.5588ZM99.0875 77.7006C92.9095 94.451 80.2982 105.955 60.5329 112.867C60.4624 112.891 60.3873 112.912 60.3095 112.927C60.1053 112.968 59.8975 112.968 59.6906 112.926C59.6137 112.911 59.5386 112.891 59.4691 112.867C39.6827 105.967 27.0631 94.4702 20.8898 77.7189C15.4909 63.0696 15.7967 46.9966 16.0668 32.817L16.0686 32.7382C16.1235 31.5197 16.1602 30.2434 16.1803 28.8408C16.2242 25.9029 18.5643 23.4722 21.5077 23.3083C29.3153 22.8725 36.1744 21.3638 42.4769 18.6959C48.7711 16.0317 54.3613 12.2763 59.5652 7.21524C59.8298 6.99185 60.1731 6.99093 60.4368 7.21524C65.6415 12.2763 71.2317 16.0317 77.525 18.6959C83.8275 21.3638 90.6866 22.8725 98.4951 23.3083C101.439 23.4722 103.779 25.9029 103.822 28.8418C103.843 30.2517 103.879 31.5279 103.934 32.7382C104.203 46.9344 104.502 63.0201 99.0875 77.7006Z" fill="white"/>
<path d="M59.9993 30.0962C43.5089 30.0962 30.0936 43.5123 30.0936 60.0019C30.0936 76.4924 43.5089 89.9085 59.9993 89.9085C76.4889 89.9085 89.905 76.4924 89.905 60.0019C89.905 43.5123 76.4889 30.0962 59.9993 30.0962ZM59.9993 82.8663C47.3916 82.8663 37.1349 72.6096 37.1349 60.0019C37.1349 47.3942 47.3916 37.1375 59.9993 37.1375C72.6061 37.1375 82.8628 47.3942 82.8628 60.0019C82.8628 72.6096 72.6061 82.8663 59.9993 82.8663Z" fill="white"/>
<path d="M68.5943 50.7176L54.7039 64.608L50.9338 60.8378C49.5587 59.4627 47.3294 59.4627 45.9542 60.8378C44.58 62.2129 44.58 64.4422 45.9542 65.8165L52.2146 72.0768C52.9022 72.7644 53.8031 73.1077 54.7039 73.1077C55.6048 73.1077 56.5057 72.7644 57.1933 72.0768L73.5739 55.6962C74.9481 54.3211 74.9481 52.0918 73.5739 50.7176C72.1987 49.3415 69.9694 49.3415 68.5943 50.7176Z" fill="white"/>
</g>
<defs>
<clipPath id="clip0">
<rect width="120" height="120" fill="white"/>
</clipPath>
</defs>
</svg>
