<svg width="118" height="118" viewBox="0 0 118 118" fill="none" xmlns="http://www.w3.org/2000/svg">
<path d="M84.3516 66.8359H73.9805V62.1839C80.9344 57.4017 85.5039 49.3911 85.5039 40.332V36.0013L91.4106 40.7266C92.0481 41.2366 92.8107 41.4844 93.568 41.4844C94.5821 41.4844 95.5869 41.04 96.2698 40.1866C97.4625 38.6957 97.2207 36.5203 95.73 35.3276L87.5809 28.8086L95.73 22.2893C97.2209 21.0966 97.4627 18.9213 96.2698 17.4304C95.0769 15.9394 92.902 15.6975 91.4108 16.8904L85.5039 21.6159V19.5898C85.5039 8.788 76.7159 0 65.9141 0H52.0859C41.2841 0 32.4961 8.788 32.4961 19.5898V40.332C32.4961 49.3911 37.0656 57.4017 44.0195 62.1839V66.8359H33.6484C21.5758 66.8359 11.7539 76.6578 11.7539 88.7305V114.543C11.7539 116.452 13.3017 118 15.2109 118H102.789C104.698 118 106.246 116.452 106.246 114.543V88.7305C106.246 76.6578 96.4242 66.8359 84.3516 66.8359ZM18.6737 88.5H99.326C99.3272 88.577 99.3318 88.6533 99.3318 88.7305V96.3359H18.668V88.7305C18.668 88.6533 18.6726 88.577 18.6737 88.5ZM97.5157 81.5859H70.9761C72.6442 79.3691 73.7078 76.6753 73.9316 73.75H84.3516C90.0264 73.75 94.9743 76.9219 97.5157 81.5859ZM52.0859 6.91406H65.9141C72.9035 6.91406 78.5898 12.6004 78.5898 19.5898V20.7422H59H39.4102V19.5898C39.4102 12.6004 45.0965 6.91406 52.0859 6.91406ZM78.5078 27.6562C77.9468 31.5602 74.5801 34.5703 70.5234 34.5703C66.4667 34.5703 63.1 31.5602 62.5391 27.6562H78.5078ZM55.4609 27.6562C54.9 31.5602 51.5333 34.5703 47.4766 34.5703C43.4199 34.5703 40.0532 31.5602 39.4922 27.6562H55.4609ZM39.4102 40.332V39.1172C41.7407 40.6127 44.5079 41.4844 47.4766 41.4844C52.1055 41.4844 56.25 39.3733 59 36.0642C61.75 39.3733 65.8945 41.4844 70.5234 41.4844C73.4921 41.4844 76.2593 40.6127 78.5898 39.1172V40.332C78.5898 51.1339 69.8018 59.9219 59 59.9219C48.1982 59.9219 39.4102 51.1339 39.4102 40.332ZM59 66.8359C61.8117 66.8359 64.5218 66.3941 67.0664 65.5794V72.5977C67.0664 77.0455 63.4478 80.6641 59 80.6641C54.5522 80.6641 50.9336 77.0455 50.9336 72.5977V65.5794C53.4782 66.3941 56.1883 66.8359 59 66.8359ZM33.6484 73.75H44.0682C44.2919 76.6753 45.3558 79.3691 47.0237 81.5859H20.4843C23.0257 76.9219 27.9736 73.75 33.6484 73.75ZM18.668 111.086V103.25H99.332V111.086H18.668Z" fill="white"/>
</svg>
