<svg width="144" height="144" viewBox="0 0 144 144" fill="none" xmlns="http://www.w3.org/2000/svg">
<path d="M69.75 126H74.25V130.5H69.75V126Z" fill="white"/>
<path d="M108.571 111.775L111.753 108.593L114.935 111.775L111.753 114.957L108.571 111.775Z" fill="white"/>
<path d="M126 69.75H130.5V74.25H126V69.75Z" fill="white"/>
<path d="M137.25 56.2499H121.297C120.427 53.5047 119.324 50.8386 118.001 48.2804L129.276 37.0034C129.698 36.5815 129.935 36.0093 129.935 35.4127C129.935 34.8161 129.698 34.2439 129.276 33.8219L119.729 24.2774C113.484 17.9117 106.038 12.8467 97.8236 9.3751C89.609 5.9035 80.7878 4.09414 71.8699 4.05155C62.9519 4.00896 54.1139 5.73398 45.8664 9.12695C37.619 12.5199 30.1257 17.5136 23.8195 23.8194C17.5132 30.1252 12.519 37.6182 9.12547 45.8653C5.73192 54.1125 4.00627 62.9504 4.04823 71.8684C4.09019 80.7864 5.89893 89.6076 9.36994 97.8225C12.841 106.037 17.9054 113.483 24.2707 119.729L33.8152 129.276C34.2372 129.698 34.8094 129.935 35.406 129.935C36.0026 129.935 36.5748 129.698 36.9967 129.276L48.2737 118.001C50.8342 119.324 53.5026 120.426 56.25 121.295V137.25C56.25 137.847 56.487 138.419 56.909 138.841C57.331 139.263 57.9033 139.5 58.5 139.5H85.5C86.0967 139.5 86.669 139.263 87.091 138.841C87.5129 138.419 87.75 137.847 87.75 137.25V121.297C90.4951 120.428 93.1612 119.326 95.7195 118.003L106.996 129.278C107.418 129.7 107.991 129.937 108.587 129.937C109.184 129.937 109.756 129.7 110.178 129.278L129.269 110.187C129.691 109.765 129.928 109.193 129.928 108.596C129.928 108 129.691 107.427 129.269 107.005L117.994 95.7285C119.319 93.1675 120.424 90.4984 121.295 87.75H137.25C137.847 87.75 138.419 87.5129 138.841 87.0909C139.263 86.669 139.5 86.0967 139.5 85.5V58.4999C139.5 57.9032 139.263 57.3309 138.841 56.909C138.419 56.487 137.847 56.2499 137.25 56.2499ZM27.45 27.4499C38.9871 15.9091 54.5537 9.29737 70.8697 9.00776C87.1857 8.71816 102.977 14.7733 114.916 25.8974L111.739 29.0744C100.636 18.8275 85.9985 13.274 70.8924 13.5768C55.7863 13.8797 41.3832 20.0155 30.6994 30.6993C20.0156 41.3831 13.8798 55.7862 13.5769 70.8924C13.274 85.9985 18.8275 100.636 29.0745 111.739L25.8975 114.916C14.7734 102.977 8.71821 87.1856 9.00781 70.8696C9.29741 54.5536 15.9092 38.9871 27.45 27.4499ZM91.0912 52.9087C96.0866 57.9861 98.8733 64.8317 98.8443 71.9544C98.8153 79.0771 95.9729 85.8998 90.9364 90.9364C85.8998 95.9729 79.0771 98.8152 71.9545 98.8442C64.8318 98.8733 57.9861 96.0866 52.9087 91.0912C52.4868 90.6694 51.9146 90.4324 51.318 90.4324C50.7214 90.4324 50.1492 90.6694 49.7272 91.0912L32.2582 108.56C22.8216 98.3074 17.7137 84.8036 18.0023 70.8722C18.291 56.9407 23.9538 43.6601 33.807 33.8069C43.6601 23.9538 56.9407 18.2909 70.8722 18.0023C84.8037 17.7137 98.3074 22.8216 108.56 32.2582L91.0912 49.7249C90.882 49.9339 90.7161 50.1821 90.6029 50.4552C90.4896 50.7284 90.4314 51.0211 90.4314 51.3168C90.4314 51.6125 90.4896 51.9053 90.6029 52.1784C90.7161 52.4516 90.882 52.6997 91.0912 52.9087ZM135 83.2499H119.619C119.127 83.2497 118.649 83.4106 118.257 83.708C117.865 84.0055 117.582 84.4231 117.45 84.8969C116.462 88.4264 115.056 91.8254 113.263 95.0219C113.021 95.4509 112.927 95.9472 112.994 96.4349C113.062 96.9226 113.287 97.3748 113.636 97.7219L124.501 108.589L108.594 124.497L97.7265 113.632C97.3793 113.283 96.9272 113.057 96.4395 112.99C95.9518 112.922 95.4554 113.016 95.0265 113.258C91.8299 115.051 88.4309 116.457 84.9015 117.445C84.4276 117.577 84.01 117.861 83.7126 118.252C83.4151 118.644 83.2542 119.123 83.2545 119.614V135H60.75V119.619C60.7503 119.127 60.5894 118.649 60.2919 118.257C59.9945 117.865 59.5769 117.582 59.103 117.45C55.5735 116.462 52.1745 115.056 48.978 113.263C48.5491 113.021 48.0527 112.927 47.565 112.994C47.0773 113.062 46.6252 113.287 46.278 113.636L35.4105 124.501L29.0475 118.138L51.3787 95.8095C57.3992 101.022 65.1704 103.76 73.1284 103.474C81.0865 103.188 88.6409 99.8982 94.2715 94.2671C99.9021 88.636 103.191 81.0812 103.476 73.1231C103.762 65.165 101.022 57.3941 95.8095 51.3742L118.138 29.0429L124.501 35.4059L113.636 46.2734C113.287 46.6206 113.062 47.0728 112.994 47.5605C112.927 48.0482 113.021 48.5445 113.263 48.9734C115.056 52.1698 116.462 55.5689 117.45 59.0984C117.582 59.5723 117.865 59.9899 118.257 60.2874C118.649 60.5848 119.127 60.7457 119.619 60.7454H135V83.2499Z" fill="white"/>
<path d="M74.25 63.3195V38.25C74.25 37.6533 74.0129 37.081 73.591 36.659C73.169 36.2371 72.5967 36 72 36C71.4033 36 70.831 36.2371 70.409 36.659C69.987 37.081 69.75 37.6533 69.75 38.25V63.3195C68.2037 63.7238 66.793 64.5326 65.6628 65.6628C64.5326 66.793 63.7238 68.2037 63.3195 69.75H47.25C46.6533 69.75 46.081 69.987 45.659 70.409C45.2371 70.831 45 71.4033 45 72C45 72.5967 45.2371 73.169 45.659 73.591C46.081 74.0129 46.6533 74.25 47.25 74.25H63.3195C63.7129 75.7854 64.5057 77.1893 65.6172 78.3193C66.7288 79.4492 68.1195 80.2649 69.6482 80.6835C71.1769 81.1021 72.7892 81.1087 74.3213 80.7026C75.8534 80.2966 77.2508 79.4924 78.3716 78.3716C79.4924 77.2508 80.2966 75.8534 80.7026 74.3213C81.1087 72.7892 81.1021 71.1769 80.6835 69.6482C80.2649 68.1195 79.4492 66.7288 78.3193 65.6172C77.1893 64.5057 75.7854 63.7129 74.25 63.3195ZM72 76.5C71.11 76.5 70.24 76.2361 69.4999 75.7416C68.7599 75.2471 68.1831 74.5443 67.8425 73.7221C67.5019 72.8998 67.4128 71.995 67.5865 71.1221C67.7601 70.2492 68.1887 69.4474 68.818 68.818C69.4474 68.1887 70.2492 67.7601 71.1221 67.5865C71.995 67.4128 72.8998 67.5019 73.7221 67.8425C74.5443 68.1831 75.2471 68.7599 75.7416 69.4999C76.2361 70.2399 76.5 71.11 76.5 72C76.5 73.1935 76.0259 74.3381 75.182 75.182C74.3381 76.0259 73.1935 76.5 72 76.5Z" fill="white"/>
<path d="M72 29.25C71.4033 29.25 70.831 29.0129 70.409 28.591C69.9871 28.169 69.75 27.5967 69.75 27V22.5C69.75 21.9033 69.9871 21.331 70.409 20.909C70.831 20.4871 71.4033 20.25 72 20.25C72.5967 20.25 73.169 20.4871 73.591 20.909C74.0129 21.331 74.25 21.9033 74.25 22.5V27C74.25 27.5967 74.0129 28.169 73.591 28.591C73.169 29.0129 72.5967 29.25 72 29.25Z" fill="white"/>
<path d="M94.5 35.2801C94.1053 35.2797 93.7175 35.1755 93.3758 34.9778C93.0341 34.7802 92.7504 34.4961 92.5532 34.1541C92.356 33.8122 92.2522 33.4243 92.2523 33.0296C92.2524 32.6348 92.3564 32.247 92.5538 31.9051L94.8038 28.0059C95.1042 27.4933 95.5953 27.1204 96.1697 26.9685C96.7441 26.8167 97.3553 26.8982 97.8698 27.1953C98.3844 27.4923 98.7605 27.9809 98.9162 28.5543C99.0719 29.1277 98.9944 29.7394 98.7008 30.2559L96.4508 34.1551C96.2531 34.4975 95.9687 34.7817 95.6263 34.9792C95.2838 35.1767 94.8953 35.2805 94.5 35.2801Z" fill="white"/>
<path d="M49.4999 35.2801C49.1046 35.2805 48.7161 35.1767 48.3737 34.9792C48.0312 34.7817 47.7468 34.4975 47.5492 34.1551L45.2992 30.2559C45.0055 29.7394 44.9281 29.1277 45.0837 28.5543C45.2394 27.9809 45.6156 27.4923 46.1301 27.1953C46.6447 26.8982 47.2558 26.8167 47.8302 26.9685C48.4047 27.1204 48.8957 27.4933 49.1962 28.0059L51.4462 31.9051C51.6436 32.247 51.7475 32.6348 51.7476 33.0296C51.7477 33.4243 51.644 33.8122 51.4467 34.1541C51.2495 34.4961 50.9658 34.7802 50.6241 34.9778C50.2824 35.1755 49.8947 35.2797 49.4999 35.2801Z" fill="white"/>
<path d="M33.0278 51.7499C32.6327 51.7507 32.2445 51.6467 31.9028 51.4484L28.0036 49.1984C27.491 48.8979 27.1181 48.4068 26.9662 47.8324C26.8144 47.258 26.8959 46.6468 27.1929 46.1323C27.49 45.6178 27.9786 45.2416 28.552 45.0859C29.1254 44.9303 29.7371 45.0077 30.2536 45.3014L34.1528 47.5514C34.5817 47.799 34.9169 48.1813 35.1065 48.6389C35.296 49.0965 35.3292 49.6038 35.201 50.0822C35.0729 50.5606 34.7904 50.9834 34.3975 51.2849C34.0045 51.5864 33.5231 51.7498 33.0278 51.7499Z" fill="white"/>
<path d="M27 74.25H22.5C21.9033 74.25 21.331 74.0129 20.909 73.591C20.4871 73.169 20.25 72.5967 20.25 72C20.25 71.4033 20.4871 70.831 20.909 70.409C21.331 69.9871 21.9033 69.75 22.5 69.75H27C27.5967 69.75 28.169 69.9871 28.591 70.409C29.0129 70.831 29.25 71.4033 29.25 72C29.25 72.5967 29.0129 73.169 28.591 73.591C28.169 74.0129 27.5967 74.25 27 74.25Z" fill="white"/>
<path d="M29.133 99.0001C28.6377 99.0001 28.1562 98.8367 27.7633 98.5352C27.3704 98.2336 27.0879 97.8109 26.9597 97.3325C26.8315 96.8541 26.8648 96.3467 27.0543 95.8892C27.2438 95.4316 27.579 95.0493 28.008 94.8016L31.9072 92.5516C32.1632 92.4016 32.4463 92.3036 32.7403 92.2634C33.0343 92.2232 33.3334 92.2416 33.6202 92.3174C33.9071 92.3933 34.1761 92.5251 34.4119 92.7053C34.6476 92.8856 34.8453 93.1107 34.9937 93.3677C35.142 93.6246 35.2381 93.9084 35.2764 94.2027C35.3146 94.4969 35.2943 94.7958 35.2165 95.0822C35.1388 95.3686 35.0052 95.6367 34.8234 95.8712C34.6416 96.1058 34.4152 96.302 34.1572 96.4486L30.258 98.6986C29.9163 98.8969 29.528 99.001 29.133 99.0001Z" fill="white"/>
<path d="M72 94.4999C69.044 94.5081 66.1159 93.9287 63.3858 92.7954C60.6558 91.6622 58.1781 89.9976 56.097 87.8984C55.8824 87.6905 55.7114 87.442 55.5939 87.1673C55.4763 86.8927 55.4147 86.5973 55.4125 86.2986C55.4104 85.9998 55.4677 85.7036 55.5812 85.4273C55.6948 85.151 55.8622 84.9 56.0737 84.689C56.2853 84.4781 56.5367 84.3114 56.8134 84.1986C57.0901 84.0859 57.3864 84.0294 57.6851 84.0324C57.9839 84.0354 58.279 84.0979 58.5534 84.2162C58.8277 84.3345 59.0757 84.5062 59.283 84.7214C60.9468 86.4209 62.9311 87.7736 65.1212 88.7013C67.3112 89.6289 69.6634 90.1131 72.0418 90.1257C74.4202 90.1383 76.7774 89.6792 78.9772 88.7748C81.1769 87.8705 83.1755 86.5389 84.8573 84.8572C86.539 83.1754 87.8706 81.1768 88.775 78.977C89.6793 76.7773 90.1384 74.42 90.1258 72.0417C90.1132 69.6633 89.629 67.3111 88.7014 65.1211C87.7738 62.931 86.421 60.9467 84.7215 59.2829C84.5063 59.0756 84.3346 58.8276 84.2163 58.5532C84.098 58.2789 84.0355 57.9838 84.0325 57.685C84.0295 57.3863 84.086 57.0899 84.1987 56.8133C84.3115 56.5366 84.4782 56.2852 84.6892 56.0736C84.9001 55.8621 85.1511 55.6946 85.4274 55.5811C85.7038 55.4676 85.9999 55.4102 86.2987 55.4124C86.5974 55.4146 86.8928 55.4762 87.1674 55.5937C87.4421 55.7112 87.6906 55.8823 87.8985 56.0969C91.0421 59.2432 93.1827 63.2507 94.0499 67.613C94.9171 71.9754 94.4719 76.4969 92.7706 80.6063C91.0693 84.7158 88.1883 88.2288 84.4914 90.7017C80.7945 93.1745 76.4477 94.4963 72 94.4999Z" fill="white"/>
</svg>
