<svg width="149" height="149" viewBox="0 0 149 149" fill="none" xmlns="http://www.w3.org/2000/svg">
<path d="M136.489 99.2651C135.119 99.2651 134.007 100.376 134.007 101.747V143.934H116.636C115.266 143.934 114.155 145.045 114.155 146.415C114.155 147.786 115.266 148.897 116.636 148.897H136.489C137.859 148.897 138.971 147.786 138.971 146.415V101.747C138.971 100.376 137.867 99.2651 136.489 99.2651Z" fill="white"/>
<path d="M129.044 121.599V101.747C129.044 100.376 127.933 99.2651 126.563 99.2651H111.673C110.303 99.2651 109.192 100.376 109.192 101.747V121.599C109.192 122.97 110.303 124.081 111.673 124.081H126.563C127.941 124.081 129.044 122.97 129.044 121.599ZM124.081 119.118H114.155V104.228H124.081V119.118Z" fill="white"/>
<path d="M96.7836 42.1887C98.1541 42.1887 99.2652 41.0775 99.2652 39.7071V27.2992C99.2652 25.9288 98.1541 24.8176 96.7836 24.8176H22.3362C20.9658 24.8176 19.8546 25.9288 19.8546 27.2992V114.155C19.8546 115.525 20.9658 116.636 22.3362 116.636C23.7066 116.636 24.8178 115.525 24.8178 114.155V109.191H27.2994C28.6698 109.191 29.7809 108.08 29.7809 106.71C29.7809 105.339 28.6698 104.228 27.2994 104.228H24.8178V89.3387H34.7441V99.2651C34.7441 100.635 35.8553 101.747 37.2257 101.747C38.5961 101.747 39.7073 100.635 39.7073 99.2651V89.3387H49.6336C51.004 89.3387 52.1152 88.2276 52.1152 86.8572C53.4856 86.8572 54.5968 85.746 54.5968 84.3756V69.4861H64.5231C64.5231 70.8565 65.6342 71.9677 67.0047 71.9677C68.3751 71.9677 69.4862 70.8565 69.4862 69.4861C70.8567 69.4861 71.9678 68.3749 71.9678 67.0045C71.9678 65.6341 70.8567 64.5229 69.4862 64.5229V49.6334H79.4126V54.5966C79.4126 55.967 80.5237 57.0782 81.8941 57.0782C83.2646 57.0782 84.3757 55.967 84.3757 54.5966V49.6334H89.3389C90.7093 49.6334 91.8205 48.5223 91.8205 47.1519C91.8205 45.7814 90.7093 44.6703 89.3389 44.6703H84.3757V29.7808H94.3021V39.7071C94.3021 41.0775 95.4132 42.1887 96.7836 42.1887ZM34.7441 84.3756H24.8178V69.4861H34.7441V84.3756ZM34.7441 64.5229H24.8178V49.6334H34.7441V64.5229ZM34.7441 44.6703H24.8178V29.7808H34.7441V44.6703ZM49.6336 84.3756H39.7073V69.4861H49.6336V84.3756ZM49.6336 64.5229H39.7073V49.6334H49.6336V64.5229ZM49.6336 44.6703H39.7073V29.7808H49.6336V44.6703ZM64.5231 64.5229H54.5968V49.6334H64.5231V64.5229ZM64.5231 44.6703H54.5968V29.7808H64.5231V44.6703ZM79.4126 44.6703H69.4862V29.7808H79.4126V44.6703Z" fill="white"/>
<path d="M12.4099 126.562C13.7804 126.562 14.8915 125.451 14.8915 124.081V19.8545H32.2626C33.633 19.8545 34.7442 18.7433 34.7442 17.3729V9.92816H52.1152C53.4857 9.92816 54.5968 8.817 54.5968 7.44658V4.96499H64.5231V7.44658C64.5231 8.817 65.6343 9.92816 67.0047 9.92816H84.3758V14.8913H42.1889C40.8185 14.8913 39.7073 16.0025 39.7073 17.3729C39.7073 18.7433 40.8185 19.8545 42.1889 19.8545H104.228V29.7808C104.228 31.1512 105.34 32.2624 106.71 32.2624C108.08 32.2624 109.192 31.1512 109.192 29.7808V17.3729C109.192 16.0025 108.08 14.8913 106.71 14.8913H89.339V7.44658C89.339 6.07615 88.2278 4.96499 86.8574 4.96499H69.4863V2.48341C69.4863 1.11299 68.3751 0.00183105 67.0047 0.00183105H52.1152C50.7448 0.00183105 49.6336 1.11299 49.6336 2.48341V4.96499H32.27C30.8996 4.96499 29.7884 6.07615 29.7884 7.44658V14.8913H12.4099C11.0395 14.8913 9.92834 16.0025 9.92834 17.3729V124.081C9.92834 125.451 11.0395 126.562 12.4099 126.562Z" fill="white"/>
<path d="M146.415 54.5966H129.044V52.115C129.044 50.7446 127.933 49.6334 126.563 49.6334H116.636C115.266 49.6334 114.155 50.7446 114.155 52.115V57.0782C114.155 58.4486 115.266 59.5597 116.636 59.5597C118.007 59.5597 119.118 58.4486 119.118 57.0782V54.5966H124.081V57.0782C124.081 58.4486 125.192 59.5597 126.563 59.5597H143.934V93.2722L105.984 55.3225C105.014 54.3521 103.443 54.3521 102.473 55.3225C101.503 56.293 101.503 57.8634 102.473 58.8338L144.66 101.021C145.134 101.495 145.771 101.747 146.415 101.747C146.734 101.747 147.06 101.687 147.364 101.561C148.29 101.176 148.897 100.272 148.897 99.2651V57.0782C148.897 55.7077 147.793 54.5966 146.415 54.5966Z" fill="white"/>
<path d="M106.71 138.97H81.8941C80.5237 138.97 79.4125 140.082 79.4125 141.452V143.934H54.5967V109.191C54.5967 107.821 53.4856 106.71 52.1151 106.71C50.7447 106.71 49.6335 107.821 49.6335 109.191V146.415C49.6335 147.786 50.7447 148.897 52.1151 148.897H81.8941C83.2645 148.897 84.3757 147.786 84.3757 146.415V143.934H104.228V146.415C104.228 147.786 105.339 148.897 106.71 148.897C108.08 148.897 109.192 147.786 109.192 146.415V141.452C109.192 140.082 108.088 138.97 106.71 138.97Z" fill="white"/>
<path d="M148.171 0.727807C147.2 -0.242602 145.63 -0.242602 144.66 0.727807L0.727807 144.66C-0.242602 145.63 -0.242602 147.2 0.727807 148.171C1.20931 148.652 1.84637 148.897 2.48343 148.897C3.1205 148.897 3.75756 148.652 4.23906 148.171L148.171 4.23906C149.141 3.26865 149.141 1.69822 148.171 0.727807Z" fill="white"/>
<path d="M101.747 134.007C103.117 134.007 104.228 132.896 104.228 131.526V101.747C104.228 100.376 103.117 99.2651 101.747 99.2651H86.8573C85.4869 99.2651 84.3757 100.376 84.3757 101.747V131.526C84.3757 132.896 85.4869 134.007 86.8573 134.007C88.2277 134.007 89.3389 132.896 89.3389 131.526V104.228H99.2652V114.155H96.7836C95.4132 114.155 94.3021 115.266 94.3021 116.636C94.3021 118.007 95.4132 119.118 96.7836 119.118H99.2652V131.526C99.2652 132.896 100.376 134.007 101.747 134.007Z" fill="white"/>
<path d="M62.0416 99.2651C60.6712 99.2651 59.5601 100.376 59.5601 101.747V121.599C59.5601 122.97 60.6712 124.081 62.0416 124.081H76.9311C78.3016 124.081 79.4127 122.97 79.4127 121.599V101.747C79.4127 100.376 78.3016 99.2651 76.9311 99.2651H62.0416ZM74.4496 119.118H64.5232V104.228H74.4496V119.118Z" fill="white"/>
</svg>
