<svg width="147" height="149" viewBox="0 0 147 149" fill="none" xmlns="http://www.w3.org/2000/svg">
<path d="M49.7872 79.9438C50.9798 79.9438 51.9502 78.9808 51.9502 77.7808C51.9502 76.5807 50.9872 75.6177 49.7872 75.6177H40.0387V69.1434C40.0387 67.9508 39.0756 66.9803 37.8756 66.9803C36.6829 66.9803 35.7125 67.9434 35.7125 69.1434V75.6177H28.1271V50.6834C28.1271 49.0907 26.89 47.8536 25.3196 47.8536H3.17791C1.39265 47.8536 0 49.3944 0 51.3723V144.635C0 146.606 1.40006 148.154 3.17791 148.154H48.7649C50.5205 148.154 51.9429 146.576 51.9429 144.635V122.249C51.9429 121.057 50.9798 120.086 49.7798 120.086C48.5871 120.086 47.6167 121.049 47.6167 122.249V143.835H4.30385V52.1723H23.8009V57.6096H16.5044C15.3117 57.6096 14.3413 58.5726 14.3413 59.7727C14.3413 60.9727 15.3043 61.9357 16.5044 61.9357H23.8009V69.7805H17.26C16.0673 69.7805 15.0969 70.7435 15.0969 71.9435C15.0969 73.1362 16.0599 74.1065 17.26 74.1065H23.8009V93.1888C23.8009 94.3814 24.764 95.3519 25.964 95.3519H47.6167V112.227C47.6167 113.419 48.5797 114.39 49.7798 114.39C50.9724 114.39 51.9429 113.427 51.9429 112.227V93.8629C51.9429 92.1147 50.4391 91.0332 49.039 91.0332H40.0312V79.9735H49.7872V79.9438ZM35.72 91.0035H28.1345V79.9438H35.72V91.0035Z" fill="white"/>
<path d="M123.427 100.604V89.9443V70.4102V64.1803V40.209V38.4163V27.2677H127.635C129.598 27.2677 131.191 25.675 131.191 23.712V23.512H142.376C143.332 23.512 144.213 23.2009 144.895 22.6898C145.021 22.6083 145.139 22.512 145.243 22.4008C145.265 22.3786 145.287 22.349 145.31 22.3194C145.939 21.6897 146.317 20.8526 146.317 19.9415V8.06693C146.317 6.09648 144.547 4.49641 142.369 4.49641H131.183V4.29641C131.183 2.33337 129.583 0.740723 127.627 0.740723H100.167C98.204 0.740723 96.6114 2.33337 96.6114 4.29641V4.49641H92.5297H68.5065H68.4991H66.7065H35.7941C33.6162 4.49641 31.8384 6.09648 31.8384 8.06693V19.9415C31.8384 21.9119 33.6088 23.512 35.7941 23.512H46.0686V30.9567L38.0831 39.446H36.1126C34.2236 39.446 32.6829 40.9794 32.6829 42.8683V52.965C32.6829 54.8614 34.2236 56.3948 36.1126 56.3948H60.3506C62.247 56.3948 63.7878 54.854 63.7878 52.965V42.8683C63.7878 40.9794 62.247 39.446 60.3506 39.446H58.3876L50.4021 30.9567V23.512H66.7212H92.5445H96.6261V23.712C96.6261 25.675 98.2262 27.2677 100.182 27.2677H104.389V38.4163V64.1803V89.9443V113.553H97.6188C94.6261 113.553 92.1889 115.982 92.1889 118.975V133.057H89.8185C85.6479 133.057 82.2552 136.442 82.2552 140.606V144.539C82.2552 146.524 83.8775 148.147 85.8702 148.147H142.621C144.613 148.147 146.228 146.532 146.228 144.539V140.606C146.228 136.442 142.843 133.057 138.672 133.057H136.302V118.975C136.302 115.982 133.865 113.553 130.865 113.553H123.42V100.604C123.427 100.611 123.427 100.611 123.427 100.604ZM142.006 8.8077V16.2376L134.354 8.8077H142.006ZM131.191 11.756L138.85 19.1859H131.191V11.756ZM36.157 19.1859V8.8077H37.3571L48.0464 19.1859H36.157ZM59.4543 43.7573V52.0761H36.9941V43.7573H59.4543ZM52.4392 39.4386H44.0018L48.2168 34.9569L52.4392 39.4386ZM43.55 8.8077H63.173L53.3578 18.334L43.55 8.8077ZM66.699 19.1859H58.6839L68.4991 9.65958L78.3143 19.1859H66.699ZM73.8178 8.8077H92.5223H93.4408L83.6256 18.334L73.8178 8.8077ZM92.5223 19.1859H88.9518L96.6039 11.756V19.1859H92.5223ZM130.865 117.871C131.479 117.871 131.983 118.368 131.983 118.975V133.057H119.412C118.22 133.057 117.249 134.02 117.249 135.22C117.249 136.42 118.212 137.383 119.412 137.383H138.672C140.458 137.383 141.909 138.835 141.909 140.613V143.835H86.5665V140.613C86.5665 138.828 88.0184 137.383 89.8111 137.383H108.96C110.153 137.383 111.123 136.42 111.123 135.22C111.123 134.02 110.16 133.057 108.96 133.057H96.5002V118.975C96.5002 118.375 97.0114 117.871 97.6114 117.871H106.538H121.272H130.865ZM118.249 40.2016L108.693 49.9946V38.4089V30.4012L118.249 40.2016ZM111.656 27.2603H119.109V34.8976L111.656 27.2603ZM119.109 45.5055V64.1729V65.0915L109.553 55.2985L119.109 45.5055ZM118.249 70.4028L108.693 80.1958V64.1729V60.6024L118.249 70.4028ZM119.109 75.7141V89.9443V95.3001L109.553 85.5071L119.109 75.7141ZM118.249 100.611L108.693 110.404V90.811L118.249 100.611ZM119.109 105.915V113.553H111.656L119.109 105.915ZM121.264 22.9416H106.56C106.56 22.9416 106.56 22.9416 106.552 22.9416H106.53H100.923V5.05199H126.864V22.9416H121.264Z" fill="white"/>
<path d="M42.4535 105.004C42.4535 103.226 41.0091 101.774 39.2312 101.774H12.7191C10.9412 101.774 9.48926 103.219 9.48926 105.004V113.812C9.48926 115.59 10.9412 117.042 12.7191 117.042H39.2312C41.0091 117.042 42.4535 115.597 42.4535 113.812V105.004ZM23.8158 112.723H13.808V106.101H23.8158V112.723ZM38.1349 112.723H28.1345V106.101H38.1349V112.723Z" fill="white"/>
<path d="M39.2312 123.494H12.7191C10.9412 123.494 9.48926 124.938 9.48926 126.724V135.531C9.48926 137.309 10.9412 138.761 12.7191 138.761H39.2312C41.0091 138.761 42.4535 137.317 42.4535 135.531V126.724C42.4535 124.938 41.0091 123.494 39.2312 123.494ZM23.8158 134.435H13.808V127.812H23.8158V134.435ZM38.1349 134.435H28.1345V127.812H38.1349V134.435Z" fill="white"/>
</svg>
