<svg width="163" height="114" viewBox="0 0 163 114" fill="none" xmlns="http://www.w3.org/2000/svg">
<path d="M122.664 72.4257C111.375 72.4257 102.189 81.6112 102.189 92.9006C102.189 104.19 111.375 113.375 122.664 113.375C133.953 113.375 143.139 104.19 143.139 92.9006C143.132 81.6038 133.953 72.4257 122.664 72.4257ZM122.664 103.131C117.019 103.131 112.427 98.5378 112.427 92.8932C112.427 87.2485 117.019 82.6557 122.664 82.6557C128.309 82.6557 132.902 87.2485 132.902 92.8932C132.902 98.5378 128.309 103.131 122.664 103.131Z" fill="white"/>
<path d="M52.7133 72.4257C41.424 72.4257 32.2384 81.6112 32.2384 92.9006C32.2384 104.19 41.424 113.375 52.7133 113.375C64.0026 113.375 73.1882 104.19 73.1882 92.9006C73.1882 81.6038 64.0026 72.4257 52.7133 72.4257ZM52.7133 103.131C47.0686 103.131 42.4759 98.5378 42.4759 92.8932C42.4759 87.2485 47.0686 82.6557 52.7133 82.6557C58.358 82.6557 62.9508 87.2485 62.9508 92.8932C62.9508 98.5378 58.358 103.131 52.7133 103.131Z" fill="white"/>
<path d="M136.45 13.8233C135.583 12.0973 133.813 11.0084 131.879 11.0084H104.923V21.2459H128.724L142.658 48.9655L151.806 44.3653L136.45 13.8233Z" fill="white"/>
<path d="M107.308 87.9521H68.5806V98.1896H107.308V87.9521Z" fill="white"/>
<path d="M37.3644 87.9521H19.6156C16.7858 87.9521 14.4968 90.2411 14.4968 93.0709C14.4968 95.9006 16.7858 98.1896 19.6156 98.1896H37.357C40.1868 98.1896 42.4757 95.9006 42.4757 93.0709C42.4831 90.2411 40.1867 87.9521 37.3644 87.9521Z" fill="white"/>
<path d="M161.34 56.6621L151.273 43.6986C150.302 42.4467 148.813 41.7207 147.228 41.7207H110.034V5.89703C110.034 3.06728 107.745 0.77832 104.915 0.77832H19.6156C16.7858 0.77832 14.4968 3.06728 14.4968 5.89703C14.4968 8.72677 16.7858 11.0158 19.6156 11.0158H99.7966V46.8394C99.7966 49.6692 102.086 51.9581 104.915 51.9581H144.717L152.169 61.5585V87.9522H138.006C135.176 87.9522 132.887 90.2412 132.887 93.0709C132.887 95.9006 135.176 98.1897 138.006 98.1897H157.28C160.11 98.1897 162.399 95.9006 162.399 93.0709V59.8029C162.414 58.6621 162.036 57.5584 161.34 56.6621Z" fill="white"/>
<path d="M37.0238 62.0178H13.4747C10.6449 62.0178 8.35596 64.3068 8.35596 67.1366C8.35596 69.9663 10.6449 72.2553 13.4747 72.2553H37.0164C39.8461 72.2553 42.1351 69.9663 42.1351 67.1366C42.1351 64.3068 39.8461 62.0178 37.0238 62.0178Z" fill="white"/>
<path d="M48.7946 41.8837H5.11872C2.28898 41.8837 0 44.1726 0 47.0024C0 49.8321 2.28898 52.1211 5.11872 52.1211H48.7946C51.6243 52.1211 53.9133 49.8321 53.9133 47.0024C53.9133 44.1726 51.6169 41.8837 48.7946 41.8837Z" fill="white"/>
<path d="M57.1505 21.757H13.4747C10.6449 21.757 8.35596 24.0459 8.35596 26.8757C8.35596 29.7054 10.6449 31.9944 13.4747 31.9944H57.1505C59.9803 31.9944 62.2692 29.7054 62.2692 26.8757C62.2692 24.0459 59.9803 21.757 57.1505 21.757Z" fill="white"/>
</svg>
