<svg xmlns="http://www.w3.org/2000/svg" xmlns:xlink="http://www.w3.org/1999/xlink" viewBox="0 0 36.06 50"><defs><style>.cls-1{fill:url(#linear-gradient);}.cls-2{fill:url(#linear-gradient-2);}.cls-3{fill:url(#linear-gradient-3);}</style><linearGradient id="linear-gradient" x1="2118.06" y1="522.23" x2="2118.06" y2="495.33" gradientTransform="translate(-2096.05 -485.59)" gradientUnits="userSpaceOnUse"><stop offset="0" stop-color="#f9371e"/><stop offset="0.09" stop-color="#fa4520"/><stop offset="0.35" stop-color="#fc6923"/><stop offset="0.6" stop-color="#fe8226"/><stop offset="0.82" stop-color="#ff9227"/><stop offset="1" stop-color="#ff9728"/></linearGradient><linearGradient id="linear-gradient-2" x1="2109.1" y1="535.59" x2="2109.1" y2="485.59" xlink:href="#linear-gradient"/><linearGradient id="linear-gradient-3" x1="2124.63" y1="531.38" x2="2124.63" y2="509.81" xlink:href="#linear-gradient"/></defs><g id="Layer_2" data-name="Layer 2"><g id="Layer_1-2" data-name="Layer 1"><path class="cls-1" d="M32.09,20.59,23,34a6.06,6.06,0,1,1-10-6.81L24.68,9.74Z"/><path class="cls-2" d="M12.56,38.91,26.09,48.1a18,18,0,0,1-24.15-8l-.15-.3c-.14-.3-.28-.6-.41-.91,0-.11-.09-.21-.13-.32-.18-.45-.34-.92-.48-1.39l-.09-.3c0-.13-.08-.27-.11-.41a3.38,3.38,0,0,1-.08-.34c-.06-.25-.12-.5-.17-.75A18.36,18.36,0,0,1,0,32,17.91,17.91,0,0,1,3.15,21.8h0l.1-.15L18,0l4.29,6.28L9.75,25a10,10,0,0,0,2.46,13.68l.11.08Z"/><path class="cls-3" d="M36.06,32a18,18,0,0,1-6.45,13.82L21.1,40a9.93,9.93,0,0,0,5.11-3.86l8.11-11.94c0,.11.11.23.16.36s.12.25.17.38a17.94,17.94,0,0,1,.85,2.5c0,.11,0,.22.08.33s.07.32.11.49a2.56,2.56,0,0,0,.05.27A18.36,18.36,0,0,1,36.06,32Z"/></g></g></svg>