<svg width="39" height="39" viewBox="0 0 39 39" fill="none" xmlns="http://www.w3.org/2000/svg">
<path d="M19.5 39C30.2696 39 39 30.2696 39 19.5C39 8.73045 30.2696 0 19.5 0C8.73045 0 0 8.73045 0 19.5C0 30.2696 8.73045 39 19.5 39Z" fill="url(#paint0_linear)"/>
<path d="M19.7518 31.593C19.5194 31.593 19.2967 31.5252 19.0934 31.3994C17.0795 30.1116 15.3367 28.5625 13.9134 26.781C12.035 24.4282 10.8248 21.8043 10.4084 19.1901C9.96304 16.4597 10.4181 13.9423 11.7155 11.8994C12.248 11.057 12.9355 10.3018 13.7391 9.66277C15.6078 8.17171 17.7475 7.39715 19.8873 7.40683C22.0368 7.42619 24.07 8.24918 25.7741 9.79834C26.3744 10.3502 26.9069 10.9892 27.3426 11.7154C28.7078 13.9617 29.1048 16.9051 28.4561 20.0131C27.8655 22.8984 26.4131 25.7546 24.3605 28.0784L24.1765 28.2914C23.0631 29.5113 21.8044 30.557 20.4392 31.38C20.2359 31.5252 19.9938 31.593 19.7518 31.593ZM19.8292 8.83012C18.0283 8.83012 16.2274 9.49818 14.6299 10.7762C13.9521 11.3184 13.3809 11.9478 12.9258 12.6643C11.822 14.4071 11.4347 16.5856 11.822 18.9577C12.1996 21.3299 13.3131 23.7311 15.0365 25.8902C16.3339 27.5168 17.9121 28.9401 19.7518 30.131C20.904 29.4242 21.9787 28.5431 22.9372 27.5265L23.1212 27.3232C25.0964 25.1543 26.5003 22.453 27.0618 19.7323C27.6331 16.9729 27.2942 14.3974 26.1227 12.461C25.7547 11.8607 25.3094 11.3184 24.8059 10.8634C23.3729 9.55627 21.6688 8.85916 19.868 8.83979C19.8583 8.83011 19.8389 8.83012 19.8292 8.83012ZM19.5097 21.7365C16.7696 21.7365 14.5427 19.5096 14.5427 16.7695C14.5427 15.4431 15.0559 14.2037 15.9854 13.2646C16.9246 12.3254 18.1736 11.8026 19.5 11.8026C22.2401 11.8026 24.467 14.0295 24.467 16.7695C24.4767 19.5096 22.2498 21.7365 19.5097 21.7365ZM19.5097 13.2355C18.5609 13.2355 17.6701 13.6034 17.002 14.2715C16.3339 14.9396 15.966 15.8304 15.9757 16.7695C15.9757 18.7253 17.5636 20.3132 19.5097 20.3132C21.4655 20.3132 23.0534 18.7253 23.0534 16.7695C23.0437 14.8234 21.4558 13.2355 19.5097 13.2355Z" fill="white"/>
<defs>
<linearGradient id="paint0_linear" x1="0" y1="19.4994" x2="39.0083" y2="19.4994" gradientUnits="userSpaceOnUse">
<stop stop-color="#EF3C26"/>
<stop offset="0.163" stop-color="#F15927"/>
<stop offset="0.404" stop-color="#F47629"/>
<stop offset="0.631" stop-color="#F6882B"/>
<stop offset="0.836" stop-color="#F7932C"/>
<stop offset="1" stop-color="#F8962C"/>
</linearGradient>
</defs>
</svg>
