<svg width="39" height="39" viewBox="0 0 39 39" fill="none" xmlns="http://www.w3.org/2000/svg">
<path d="M19.5 39C30.2695 39 39 30.2695 39 19.5C39 8.73045 30.2695 0 19.5 0C8.73045 0 0 8.73045 0 19.5C0 30.2695 8.73045 39 19.5 39Z" fill="url(#paint0_linear)"/>
<path d="M9.60475 11.4155H29.4146C29.7631 11.4155 30.0923 11.5608 30.3247 11.7931C30.5571 12.0255 30.7023 12.345 30.7023 12.7033V26.3165C30.7023 26.5779 30.6249 26.8296 30.4796 27.033C30.4506 27.1007 30.4118 27.1588 30.3634 27.2169C30.3247 27.2556 30.286 27.275 30.2473 27.3041C30.0246 27.488 29.7341 27.6042 29.4243 27.6042H9.60475C9.25619 27.6042 8.927 27.459 8.69462 27.2266C8.46225 26.9942 8.31702 26.6747 8.31702 26.3165V12.7033C8.31702 12.345 8.46225 12.0255 8.69462 11.7931C8.927 11.5608 9.24651 11.4155 9.60475 11.4155ZM9.3046 25.7743L16.2468 18.8127L9.3046 13.1486V25.7743V25.7743ZM17.0117 19.4324L9.85649 26.6069H29.1047L22.2691 19.4324L20.0131 21.3495C19.8389 21.5044 19.5678 21.5044 19.3838 21.3592L17.0117 19.4324ZM23.0049 18.7934L29.705 25.8227V13.0906L23.0049 18.7934ZM9.93395 12.4031L19.6743 20.3522L28.9982 12.4031H9.93395Z" fill="white"/>
<path d="M29.4049 27.6719H9.60478C9.24654 27.6719 8.90766 27.5267 8.64624 27.2749C8.38482 27.0135 8.24927 26.6746 8.24927 26.3164V12.7032C8.24927 12.3449 8.3945 11.9964 8.64624 11.7446C8.89798 11.4832 9.24654 11.3477 9.60478 11.3477H29.4146C29.7728 11.3477 30.1117 11.4929 30.3731 11.7446C30.6346 12.0061 30.7701 12.3449 30.7701 12.7032V26.3164C30.7701 26.5875 30.6927 26.8489 30.5377 27.0813C30.5184 27.149 30.47 27.2168 30.4119 27.2749C30.3731 27.3136 30.3247 27.3427 30.2763 27.3717C30.0343 27.5557 29.7244 27.6719 29.4049 27.6719ZM9.60478 11.4929C9.28527 11.4929 8.97543 11.6188 8.75274 11.8511C8.52037 12.0835 8.3945 12.3837 8.3945 12.7032V26.3164C8.3945 26.6359 8.52037 26.9457 8.75274 27.1684C8.98512 27.4008 9.28527 27.5266 9.60478 27.5266H29.4146C29.6954 27.5266 29.9665 27.4298 30.1892 27.2459C30.2376 27.2168 30.2763 27.1975 30.3054 27.1684C30.3538 27.1297 30.3828 27.0716 30.4119 27.0135C30.5571 26.8005 30.6249 26.5584 30.6249 26.3164V12.7032C30.6249 12.3837 30.499 12.0738 30.2666 11.8511C30.0343 11.6188 29.7341 11.4929 29.4146 11.4929H9.60478ZM29.2694 26.6843H9.67255L17.002 19.3355L19.4226 21.3107C19.5775 21.4365 19.8002 21.4365 19.9551 21.301L22.2594 19.3355L29.2694 26.6843ZM10.0308 26.5391H28.9305L22.2594 19.5388L20.0616 21.4172C19.8583 21.5914 19.5484 21.6011 19.3354 21.4269L17.0214 19.5388L10.0308 26.5391ZM29.7825 26.0065L22.8985 18.7933L29.7825 12.9355V26.0065ZM23.1115 18.803L29.6276 25.6386V13.2454L23.1115 18.803ZM9.22717 25.9484V12.9936L16.3533 18.803L9.22717 25.9484ZM9.37241 13.3035V25.5902L16.1306 18.8126L9.37241 13.3035ZM19.6743 20.4393L9.72097 12.3256H29.2016L19.6743 20.4393ZM10.1373 12.4708L19.6743 20.2456L28.8046 12.4708H10.1373Z" fill="white"/>
<defs>
<linearGradient id="paint0_linear" x1="0" y1="19.5042" x2="39.0083" y2="19.5042" gradientUnits="userSpaceOnUse">
<stop stop-color="#EF3C26"/>
<stop offset="0.163" stop-color="#F15927"/>
<stop offset="0.404" stop-color="#F47629"/>
<stop offset="0.631" stop-color="#F6882B"/>
<stop offset="0.836" stop-color="#F7932C"/>
<stop offset="1" stop-color="#F8962C"/>
</linearGradient>
</defs>
</svg>
