<svg width="39" height="39" viewBox="0 0 39 39" fill="none" xmlns="http://www.w3.org/2000/svg">
<path d="M38.9867 19.5067C38.9867 30.2667 30.2667 39 19.4933 39C8.73333 39 0 30.2667 0 19.5067C0 8.73333 8.73333 0 19.4933 0C30.2667 0 38.9867 8.73333 38.9867 19.5067Z" fill="url(#paint0_linear)"/>
<path d="M26.2667 14.8931H25.8133C24.7333 14.9731 23.7067 15.3331 22.8 15.9464V9.06641H20.2933V26.7731H22.8267V26.1331C24.4933 27.2664 26.6267 27.5064 28.4933 26.7731C29.1467 26.5197 29.7467 26.1731 30.28 25.7197C34.6133 21.9997 31.9733 14.8797 26.2667 14.8931ZM26.3733 24.6797C24.3867 24.6797 22.8 23.0397 22.8533 21.0797C22.9467 16.4797 29.7867 16.4797 29.8933 21.0797C29.9467 23.0531 28.3467 24.6797 26.3733 24.6797Z" fill="white"/>
<path d="M15.9466 22.5462H18.72C16.9866 29.6395 6.54663 28.3862 6.54663 21.0795C6.54663 13.7729 16.9866 12.5062 18.72 19.6262H15.9466C14.9333 17.3729 11.9733 16.8395 10.2266 18.5862C8.47996 20.3329 9.02663 23.2795 11.2666 24.3062C13.04 25.1062 15.1333 24.3195 15.9466 22.5462Z" fill="white"/>
<defs>
<linearGradient id="paint0_linear" x1="0" y1="19.5" x2="38.9867" y2="19.5" gradientUnits="userSpaceOnUse">
<stop stop-color="#F8962C"/>
<stop offset="1" stop-color="#EF3C26"/>
</linearGradient>
</defs>
</svg>
