<svg width="41" height="40" viewBox="0 0 41 40" fill="none" xmlns="http://www.w3.org/2000/svg">
<path d="M20.4623 39.2262C31.2943 39.2262 40.0754 30.4451 40.0754 19.6131C40.0754 8.78108 31.2943 0 20.4623 0C9.63032 0 0.849243 8.78108 0.849243 19.6131C0.849243 30.4451 9.63032 39.2262 20.4623 39.2262Z" fill="url(#paint0_linear)"/>
<path d="M26.5528 12.1943C25.8016 12.1943 25.1979 12.798 25.1979 13.5359C25.1979 14.2871 25.8016 14.8908 26.5528 14.8908C27.3041 14.8908 27.9078 14.2871 27.9078 13.5359C27.8943 12.798 27.2907 12.1943 26.5528 12.1943Z" fill="#F2F2F2"/>
<path d="M20.5563 13.9248C17.4305 13.9248 14.895 16.4603 14.895 19.586C14.895 22.7118 17.4305 25.2473 20.5563 25.2473C23.682 25.2473 26.2175 22.7118 26.2175 19.586C26.2175 16.4603 23.682 13.9248 20.5563 13.9248ZM20.5563 23.2216C18.5574 23.2216 16.9341 21.5983 16.9341 19.5995C16.9341 17.6006 18.5574 15.9773 20.5563 15.9773C22.5551 15.9773 24.1784 17.6006 24.1784 19.5995C24.1784 21.5983 22.5551 23.2216 20.5563 23.2216Z" fill="#F2F2F2"/>
<path d="M25.0503 31.0831H15.8743C12.0644 31.0831 8.96545 27.9842 8.96545 24.1742V14.9982C8.96545 11.1883 12.0644 8.08936 15.8743 8.08936H25.0503C28.8603 8.08936 31.9592 11.1883 31.9592 14.9982V24.1742C31.9592 27.9842 28.8603 31.0831 25.0503 31.0831ZM15.8743 10.2492C13.2583 10.2492 11.1253 12.3822 11.1253 14.9982V24.1742C11.1253 26.7902 13.2583 28.9232 15.8743 28.9232H25.0503C27.6663 28.9232 29.7993 26.7902 29.7993 24.1742V14.9982C29.7993 12.3822 27.6663 10.2492 25.0503 10.2492H15.8743Z" fill="#F2F2F2"/>
<defs>
<linearGradient id="paint0_linear" x1="0.849243" y1="19.6131" x2="40.0754" y2="19.6131" gradientUnits="userSpaceOnUse">
<stop stop-color="#F8962C"/>
<stop offset="1" stop-color="#EF3C26"/>
</linearGradient>
</defs>
</svg>
