<svg width="40" height="40" viewBox="0 0 40 40" fill="none" xmlns="http://www.w3.org/2000/svg">
<path d="M20.3869 39.2262C31.2189 39.2262 40 30.4451 40 19.6131C40 8.78108 31.2189 0 20.3869 0C9.55489 0 0.773804 8.78108 0.773804 19.6131C0.773804 30.4451 9.55489 39.2262 20.3869 39.2262Z" fill="url(#paint0_linear)"/>
<path d="M31.2265 12.8921C30.5423 13.2006 29.7911 13.3884 29.0666 13.5092C29.4154 13.4555 29.9252 12.825 30.1264 12.5701C30.435 12.1811 30.7033 11.7383 30.8509 11.2554C30.8643 11.2152 30.8777 11.1749 30.8509 11.1481C30.8106 11.1347 30.7704 11.1347 30.7301 11.1615C29.9118 11.6042 29.0666 11.9127 28.1678 12.1408C28.0873 12.1542 28.0337 12.1408 27.9934 12.1006C27.9129 12.0201 27.8458 11.9396 27.7654 11.8725C27.3897 11.5505 26.9873 11.2956 26.5177 11.1078C25.9141 10.8664 25.2567 10.759 24.6128 10.7993C23.9823 10.8395 23.3652 11.0139 22.8017 11.3091C22.2383 11.6042 21.7419 12.0067 21.3395 12.503C20.9236 13.0128 20.6284 13.6165 20.4675 14.247C20.3199 14.8641 20.3333 15.4678 20.4272 16.0849C20.4406 16.1922 20.4272 16.2056 20.3333 16.1922C16.8051 15.669 13.894 14.408 11.5195 11.7115C11.4122 11.5908 11.3585 11.5908 11.278 11.7249C10.245 13.2811 10.7414 15.7763 12.0427 17.0105C12.2171 17.1715 12.3915 17.3325 12.5793 17.4935C12.5122 17.5069 11.6537 17.413 10.8756 17.0105C10.7682 16.9435 10.7146 16.9837 10.7146 17.1044C10.7012 17.2788 10.7146 17.4264 10.7414 17.6142C10.9426 19.1838 12.0293 20.6461 13.5318 21.2229C13.7062 21.3034 13.9074 21.3571 14.0952 21.3973C13.7598 21.4778 13.3976 21.5315 12.4317 21.451C12.311 21.4242 12.2573 21.4912 12.311 21.5986C13.0488 23.5974 14.6318 24.1877 15.8124 24.5365C15.9734 24.5633 16.1343 24.5633 16.2953 24.6036C16.2819 24.617 16.2819 24.617 16.2685 24.6304C15.8795 25.2341 14.5111 25.6768 13.8806 25.9048C12.7269 26.3073 11.4658 26.4951 10.2451 26.3744C10.0438 26.3475 10.0036 26.3475 9.94991 26.3744C9.89625 26.4012 9.9365 26.4549 10.0036 26.5085C10.2451 26.6695 10.4999 26.8171 10.7548 26.9512C11.5329 27.3671 12.3378 27.6891 13.183 27.9171C17.5564 29.1245 22.4663 28.2391 25.7531 24.9792C28.3288 22.4169 29.2276 18.8887 29.2276 15.3605C29.2276 15.2263 29.3886 15.1458 29.4825 15.0787C30.1533 14.569 30.6899 13.9787 31.1862 13.2945C31.2936 13.147 31.2936 13.0128 31.2936 12.9591C31.2936 12.9457 31.2936 12.9457 31.2936 12.9457C31.3204 12.8384 31.3204 12.8518 31.2265 12.8921Z" fill="#F2F2F2"/>
<defs>
<linearGradient id="paint0_linear" x1="0.773804" y1="19.6131" x2="40" y2="19.6131" gradientUnits="userSpaceOnUse">
<stop stop-color="#F8962C"/>
<stop offset="1" stop-color="#EF3C26"/>
</linearGradient>
</defs>
</svg>
