<svg width="41" height="40" viewBox="0 0 41 40" fill="none" xmlns="http://www.w3.org/2000/svg">
<path d="M20.5376 39.2262C31.3697 39.2262 40.1507 30.4451 40.1507 19.6131C40.1507 8.78107 31.3697 0 20.5376 0C9.70564 0 0.924561 8.78107 0.924561 19.6131C0.924561 30.4451 9.70564 39.2262 20.5376 39.2262Z" fill="url(#paint0_linear)"/>
<path d="M12.3141 15.9641H16.1106V28.172H12.3141V15.9641ZM14.219 9.90039C15.4398 9.90039 16.4191 10.8797 16.4191 12.1005C16.4191 13.3079 15.4398 14.3006 14.219 14.3006C12.9982 14.3006 12.0189 13.3079 12.0189 12.1005C12.0055 10.8797 12.9982 9.90039 14.219 9.90039Z" fill="#F2F2F2"/>
<path d="M18.4985 15.9643H22.1341V17.6278H22.1877C22.6975 16.6619 23.9317 15.6558 25.783 15.6558C29.6198 15.6558 30.3308 18.1778 30.3308 21.4646V28.1588H26.5343V22.2292C26.5343 20.8072 26.5074 18.9962 24.5622 18.9962C22.5902 18.9962 22.2816 20.5389 22.2816 22.1353V28.1722H18.4985V15.9643Z" fill="#F2F2F2"/>
<defs>
<linearGradient id="paint0_linear" x1="0.924561" y1="19.6131" x2="40.1507" y2="19.6131" gradientUnits="userSpaceOnUse">
<stop stop-color="#F8962C"/>
<stop offset="1" stop-color="#EF3C26"/>
</linearGradient>
</defs>
</svg>
