<svg width="39" height="39" viewBox="0 0 39 39" fill="none" xmlns="http://www.w3.org/2000/svg">
<path d="M19.5 39C30.2696 39 39 30.2696 39 19.5C39 8.73045 30.2696 0 19.5 0C8.73045 0 0 8.73045 0 19.5C0 30.2696 8.73045 39 19.5 39Z" fill="url(#paint0_linear)"/>
<path d="M29.2694 23.5859C29.2403 23.5665 29.2113 23.5471 29.1822 23.5278L25.503 21.4074L25.4449 21.3783C25.4255 21.3686 25.4062 21.359 25.3868 21.3493C23.8473 20.6328 22.7823 22.0367 22.1433 22.8791C22.0271 23.0243 21.8722 23.2373 21.7657 23.3438C21.6688 23.4406 21.6107 23.489 21.5623 23.5181C20.11 22.7629 18.8997 21.8721 17.8734 20.778C17.0214 19.8679 16.2662 18.8319 15.5303 17.4957C15.5884 17.3311 16.0435 17.002 16.2371 16.8567C16.4017 16.7309 16.5566 16.6243 16.6922 16.5082C17.2247 16.1112 17.5829 15.7045 17.7766 15.2592C18.0574 14.6008 17.9702 13.9521 17.5248 13.3614L15.1914 9.41109C15.0171 9.10126 14.6976 8.89793 14.3491 8.86888C12.9064 8.74302 11.6865 9.07221 10.7182 9.85647C9.75969 10.6214 9.13035 11.7929 8.89798 13.2453C8.5591 15.385 9.08194 17.8056 10.4278 20.2455C11.7736 22.6661 13.894 25.0866 16.2661 26.8778C16.8277 27.2942 17.4087 27.6524 17.9121 27.9719L18.1058 28.0978C19.4322 28.9208 20.5457 29.4533 21.6011 29.7825C22.4337 30.0439 23.247 30.1698 24.0507 30.1698C24.4283 30.1698 24.8156 30.1407 25.1932 30.0826C26.1517 29.9471 26.8972 29.7341 27.5363 29.4436C28.4367 29.037 29.1241 28.427 29.5792 27.633C29.9762 26.9456 30.1989 26.171 30.1989 25.5029C30.1989 24.68 29.8794 24.0216 29.2694 23.5859ZM28.5529 27.0424C28.2237 27.6234 27.7299 28.0494 27.0521 28.3592C26.5099 28.6109 25.8709 28.7755 25.0286 28.9111C24.0022 29.0563 23.0243 28.9789 21.9593 28.6497C21.0008 28.3592 19.9841 27.8557 18.7448 27.1005L18.5512 26.9746C18.038 26.6551 17.5055 26.3163 16.9826 25.9386C14.746 24.2443 12.7321 21.9689 11.4734 19.6839C10.2535 17.4861 9.76938 15.3269 10.0695 13.4486C10.1954 12.645 10.544 11.5412 11.4638 10.8053C12.0834 10.3115 12.8483 10.0598 13.7681 10.0598C13.9037 10.0598 14.0392 10.0695 14.1845 10.0792L16.5179 14.0295L16.5566 14.0876C16.7599 14.349 16.7987 14.562 16.6825 14.8235C16.576 15.0655 16.3436 15.3269 15.9757 15.5883L15.937 15.6174C15.8304 15.7045 15.6949 15.811 15.54 15.9175C14.9784 16.3242 14.0392 17.0116 14.4168 17.9605L14.4459 18.0186C15.2592 19.4806 16.0725 20.6231 17.0117 21.6107C18.1542 22.821 19.4903 23.8086 21.1169 24.6412C21.3784 24.7671 21.6688 24.7768 21.9303 24.68C22.1529 24.5928 22.366 24.4379 22.6177 24.1958C22.7436 24.07 22.8888 23.8957 23.1018 23.6052C23.8764 22.5886 24.3218 22.1723 24.8833 22.4337C24.9027 22.4434 24.9221 22.453 24.9414 22.4627L28.5723 24.5541L28.5916 24.5638C28.8821 24.7574 29.0176 25.0769 29.0273 25.5029C29.0176 25.9677 28.853 26.5196 28.5529 27.0424Z" fill="white"/>
<defs>
<linearGradient id="paint0_linear" x1="0" y1="19.5042" x2="39.0083" y2="19.5042" gradientUnits="userSpaceOnUse">
<stop stop-color="#EF3C26"/>
<stop offset="0.163" stop-color="#F15927"/>
<stop offset="0.404" stop-color="#F47629"/>
<stop offset="0.631" stop-color="#F6882B"/>
<stop offset="0.836" stop-color="#F7932C"/>
<stop offset="1" stop-color="#F8962C"/>
</linearGradient>
</defs>
</svg>
