<svg width="40" height="40" viewBox="0 0 40 40" fill="none" xmlns="http://www.w3.org/2000/svg">
<path d="M39.2262 19.6131C39.2262 8.78698 30.4526 0 19.6131 0C8.78698 0 0 8.78698 0 19.6131C0 29.4062 7.17716 37.5224 16.5544 38.9847V25.2877H11.5639V19.6131H16.541V15.2934C16.541 10.3834 19.4655 7.6601 23.9462 7.6601C26.0926 7.6601 28.333 8.04915 28.333 8.04915V12.8786H25.8646C23.423 12.8786 22.6718 14.3946 22.6718 15.9373V19.6131H28.1183L27.2464 25.2877H22.6718V38.9981C32.0624 37.5224 39.2262 29.4062 39.2262 19.6131Z" fill="url(#paint0_linear)"/>
<path d="M27.2463 25.2878L28.1183 19.6131H22.6717V15.9374C22.6717 14.3812 23.4364 12.8787 25.8646 12.8787H28.333V8.0492C28.333 8.0492 26.0926 7.66016 23.9462 7.66016C19.4655 7.66016 16.541 10.37 16.541 15.2934V19.6131H11.5639V25.2878H16.541V38.9982C17.5337 39.1591 18.5667 39.2396 19.5996 39.2396C20.646 39.2396 21.6656 39.1591 22.6583 38.9982V25.2878H27.2463Z" fill="#F2F2F2"/>
<defs>
<linearGradient id="paint0_linear" x1="0" y1="19.4991" x2="39.2262" y2="19.4991" gradientUnits="userSpaceOnUse">
<stop stop-color="#F8962C"/>
<stop offset="1" stop-color="#EF3C26"/>
</linearGradient>
</defs>
</svg>
