<svg width="263" height="246" viewBox="0 0 263 246" fill="none" xmlns="http://www.w3.org/2000/svg">
<path d="M135.745 214.171L177.394 238.086C177.871 238.363 178.655 238.363 179.132 238.086L252.857 195.579C253.334 195.302 253.334 194.849 252.857 194.572L211.207 170.658C210.731 170.381 209.946 170.381 209.469 170.658L135.745 213.165C135.268 213.449 135.268 213.895 135.745 214.171Z" fill="#E0E0E0"/>
<path d="M262.985 226.59C262.846 225.522 261.57 224.985 260.87 224.578L232.432 208.127C231.179 207.405 229.617 207.375 228.364 208.097L199.934 224.47C199.096 224.954 197.727 225.875 197.727 226.958C197.727 228.041 198.473 228.279 199.857 229.07C201.233 229.861 228.087 245.359 228.087 245.359C229.525 246.189 231.302 246.189 232.74 245.359L261.87 228.694C262.815 228.056 263.069 227.281 262.985 226.59Z" fill="#E0E0E0"/>
<path d="M165.89 142.311L172.596 138.441C173.396 137.98 174.695 137.98 175.495 138.441L217.552 162.694" stroke="#F79420" stroke-miterlimit="10"/>
<path d="M163.168 140.737L172.596 135.3C173.396 134.839 174.695 134.839 175.495 135.3L220.274 161.119" stroke="#F79420" stroke-miterlimit="10"/>
<path d="M222.996 159.553L175.495 132.166C174.695 131.705 173.396 131.705 172.596 132.166L160.445 139.163" stroke="#F79420" stroke-miterlimit="10"/>
<path d="M225.719 157.986L175.503 129.033C174.703 128.572 173.403 128.572 172.603 129.033L157.731 137.604" stroke="#F79420" stroke-miterlimit="10"/>
<path d="M123.641 0.473218L80.3073 25.4557C79.5075 25.9165 78.8616 27.0377 78.8616 27.9593V146.912C78.8616 147.834 79.5075 148.955 80.3073 149.416L123.641 174.398C124.441 174.859 125.74 174.859 126.54 174.398L169.866 149.416C170.666 148.955 171.311 147.834 171.311 146.912V27.967C171.311 27.0454 170.666 25.9241 169.866 25.4634L126.54 0.473218C125.74 0.0124291 124.441 0.0124291 123.641 0.473218Z" fill="#37474F"/>
<path d="M171.319 27.9588V146.919C171.319 147.841 170.673 148.962 169.873 149.423L126.54 174.405C126.148 174.636 125.617 174.751 125.094 174.751V52.4574C125.617 52.4574 126.14 52.3345 126.54 52.1118L169.873 27.1294L170.266 26.7991L170.781 26.3691C171.112 26.8682 171.319 27.4442 171.319 27.9588Z" fill="#263238"/>
<path d="M85.7518 39.6705L118.204 58.3785C119.004 58.8393 119.65 59.9606 119.65 60.8822V73.216C119.65 74.1375 119.004 74.5139 118.204 74.0531L85.7518 55.345C84.9521 54.8842 84.3061 53.763 84.3061 52.8414V40.5076C84.2984 39.586 84.9521 39.2097 85.7518 39.6705Z" fill="#455B64"/>
<path d="M87.0208 45.1078C87.0208 45.9756 87.6667 47.0508 88.4665 47.5116L115.482 63.0863C116.281 63.5471 116.927 63.2168 116.927 62.3567C116.927 61.4889 116.281 60.4137 115.482 59.9529L88.4665 44.3782C87.6667 43.9174 87.0208 44.24 87.0208 45.1078Z" fill="#F79420"/>
<path d="M87.0208 51.3822C87.0208 52.2501 87.6667 53.3252 88.4665 53.786L115.482 69.3607C116.281 69.8215 116.927 69.4912 116.927 68.6311C116.927 67.7633 116.281 66.6881 115.482 66.2273L88.4665 50.6526C87.6667 50.1842 87.0208 50.5144 87.0208 51.3822Z" fill="#263238"/>
<path d="M88.4665 50.645L103.331 59.2156V62.349L88.4665 53.7783C87.6667 53.3175 87.0208 52.2424 87.0208 51.3746C87.0208 50.5067 87.6667 50.1842 88.4665 50.645Z" fill="#F79420"/>
<path d="M85.7518 61.6271L118.204 80.3351C119.004 80.7959 119.65 81.9172 119.65 82.8388V95.1726C119.65 96.0941 119.004 96.4704 118.204 96.0097L85.7518 77.3016C84.9521 76.8408 84.3061 75.7196 84.3061 74.798V62.4642C84.2984 61.5349 84.9521 61.1586 85.7518 61.6271Z" fill="#455B64"/>
<path d="M87.0208 67.0568C87.0208 67.9246 87.6667 68.9997 88.4665 69.4605L115.482 85.0352C116.281 85.496 116.927 85.1657 116.927 84.3056C116.927 83.4378 116.281 82.3626 115.482 81.9018L88.4665 66.3272C87.6667 65.8664 87.0208 66.1966 87.0208 67.0568Z" fill="#F79420"/>
<path d="M87.0208 73.3312C87.0208 74.199 87.6667 75.2742 88.4665 75.7349L115.482 91.3096C116.281 91.7704 116.927 91.4402 116.927 90.58C116.927 89.7122 116.281 88.637 115.482 88.1762L88.4665 72.6016C87.6667 72.1408 87.0208 72.4633 87.0208 73.3312Z" fill="#263238"/>
<path d="M88.4665 72.6016L111.491 85.88V89.0134L88.4665 75.7349C87.6667 75.2741 87.0208 74.199 87.0208 73.3312C87.0208 72.4633 87.6667 72.1408 88.4665 72.6016Z" fill="#F79420"/>
<path d="M85.7518 83.5761L118.204 102.284C119.004 102.745 119.65 103.866 119.65 104.788V117.121C119.65 118.043 119.004 118.419 118.204 117.959L85.7518 99.2506C84.9521 98.7898 84.3061 97.6685 84.3061 96.7469V84.4132C84.2984 83.4839 84.9521 83.1153 85.7518 83.5761Z" fill="#455B64"/>
<path d="M87.0208 89.0133C87.0208 89.8812 87.6667 90.9563 88.4665 91.4171L115.482 106.992C116.281 107.453 116.927 107.122 116.927 106.262C116.927 105.394 116.281 104.319 115.482 103.858L88.4665 88.2838C87.6667 87.8153 87.0208 88.1455 87.0208 89.0133Z" fill="#F79420"/>
<path d="M87.0208 95.2801C87.0208 96.1479 87.6667 97.2231 88.4665 97.6839L115.482 113.259C116.281 113.719 116.927 113.389 116.927 112.529C116.927 111.661 116.281 110.586 115.482 110.125L88.4665 94.5505C87.6667 94.0897 87.0208 94.4199 87.0208 95.2801Z" fill="#263238"/>
<path d="M88.4665 94.5505L97.8945 99.9878V103.121L88.4665 97.6839C87.6667 97.2231 87.0208 96.1479 87.0208 95.2801C87.0208 94.4199 87.6667 94.0897 88.4665 94.5505Z" fill="#F79420"/>
<path d="M85.7518 105.525L118.204 124.233C119.004 124.694 119.65 125.815 119.65 126.737V139.07C119.65 139.992 119.004 140.368 118.204 139.908L85.7518 121.199C84.9521 120.739 84.3061 119.617 84.3061 118.696V106.362C84.2984 105.44 84.9521 105.064 85.7518 105.525Z" fill="#455B64"/>
<path d="M87.0208 110.962C87.0208 111.83 87.6667 112.905 88.4665 113.366L115.482 128.941C116.281 129.402 116.927 129.071 116.927 128.211C116.927 127.343 116.281 126.268 115.482 125.807L88.4665 110.233C87.6667 109.764 87.0208 110.094 87.0208 110.962Z" fill="#F79420"/>
<path d="M87.0208 117.237C87.0208 118.105 87.6667 119.18 88.4665 119.64L115.482 135.215C116.281 135.676 116.927 135.346 116.927 134.486C116.927 133.618 116.281 132.543 115.482 132.082L88.4665 116.507C87.6667 116.039 87.0208 116.369 87.0208 117.237Z" fill="#263238"/>
<path d="M88.4665 116.499L103.331 125.07V128.203L88.4665 119.633C87.6667 119.172 87.0208 118.097 87.0208 117.229C87.0208 116.369 87.6667 116.039 88.4665 116.499Z" fill="#F79420"/>
<path d="M85.7518 127.474L118.204 146.182C119.004 146.643 119.65 147.764 119.65 148.686V161.019C119.65 161.941 119.004 162.317 118.204 161.856L85.7518 143.148C84.9521 142.688 84.3061 141.566 84.3061 140.645V128.311C84.2984 127.389 84.9521 127.013 85.7518 127.474Z" fill="#455B64"/>
<path d="M87.0208 132.911C87.0208 133.779 87.6667 134.854 88.4665 135.315L115.482 150.89C116.281 151.35 116.927 151.02 116.927 150.16C116.927 149.292 116.281 148.217 115.482 147.756L88.4665 132.182C87.6667 131.721 87.0208 132.043 87.0208 132.911Z" fill="#F79420"/>
<path d="M87.0208 139.186C87.0208 140.053 87.6667 141.129 88.4665 141.589L115.482 157.164C116.281 157.625 116.927 157.295 116.927 156.435C116.927 155.567 116.281 154.492 115.482 154.031L88.4665 138.456C87.6667 137.988 87.0208 138.318 87.0208 139.186Z" fill="#263238"/>
<path d="M88.4665 138.448L108.776 150.152V153.286L88.4665 141.582C87.6667 141.121 87.0208 140.046 87.0208 139.178C87.0208 138.31 87.6667 137.988 88.4665 138.448Z" fill="#F79420"/>
<path d="M131.892 60.0067C133.392 59.1388 134.614 59.9299 134.614 61.773V133.487C134.614 135.33 133.399 137.534 131.892 138.402C130.393 139.27 129.17 138.479 129.17 136.636V64.9218C129.17 63.0786 130.385 60.8822 131.892 60.0067Z" fill="#37474F"/>
<path d="M131.892 136.828C132.646 136.398 133.253 135.292 133.253 134.37V62.4489C133.253 61.5273 132.646 61.1279 131.892 61.558C131.139 61.9881 130.531 63.094 130.531 64.0155V135.937C130.531 136.859 131.139 137.258 131.892 136.828Z" fill="#263238"/>
<path d="M131.892 136.828C132.646 136.398 133.253 135.292 133.253 134.37V99.9878L130.531 101.554V135.937C130.531 136.859 131.139 137.258 131.892 136.828Z" fill="#F79420"/>
<path d="M140.044 55.3066C141.543 54.4388 142.766 55.2298 142.766 57.073V128.787C142.766 130.63 141.551 132.834 140.044 133.702C138.536 134.57 137.321 133.779 137.321 131.936V60.2217C137.329 58.3785 138.544 56.1744 140.044 55.3066Z" fill="#37474F"/>
<path d="M140.044 132.12C140.797 131.69 141.405 130.584 141.405 129.663V57.7411C141.405 56.8195 140.797 56.4202 140.044 56.8503C139.29 57.2803 138.682 58.3862 138.682 59.3078V131.229C138.69 132.159 139.298 132.558 140.044 132.12Z" fill="#F79420"/>
<path d="M148.203 50.6066C149.702 49.7387 150.925 50.5298 150.925 52.3729V124.087C150.925 125.93 149.71 128.134 148.203 129.002C146.703 129.87 145.48 129.079 145.48 127.236V55.5217C145.488 53.6708 146.703 51.4744 148.203 50.6066Z" fill="#37474F"/>
<path d="M148.203 127.42C148.956 126.99 149.564 125.884 149.564 124.963V53.0411C149.564 52.1195 148.956 51.7201 148.203 52.1502C147.449 52.5803 146.842 53.6862 146.842 54.6078V126.529C146.849 127.451 147.457 127.85 148.203 127.42Z" fill="#263238"/>
<path d="M148.203 127.42C148.956 126.99 149.564 125.884 149.564 124.963V69.4068L146.842 70.9735V126.529C146.849 127.451 147.457 127.85 148.203 127.42Z" fill="#F79420"/>
<path d="M156.362 45.8988C157.861 45.031 159.084 45.822 159.084 47.6652V119.379C159.084 121.223 157.869 123.427 156.362 124.294C154.862 125.162 153.64 124.371 153.64 122.528V50.8139C153.647 48.9708 154.862 46.7667 156.362 45.8988Z" fill="#37474F"/>
<path d="M156.362 122.712C157.116 122.282 157.723 121.176 157.723 120.255V48.3333C157.723 47.4118 157.116 47.0124 156.362 47.4425C155.608 47.8726 155.001 48.9785 155.001 49.9V121.822C155.001 122.751 155.616 123.15 156.362 122.712Z" fill="#263238"/>
<path d="M156.362 122.712C157.116 122.282 157.723 121.176 157.723 120.255V108.113L155.001 109.68V121.822C155.001 122.751 155.616 123.15 156.362 122.712Z" fill="#F79420"/>
<path d="M164.521 41.1988C166.021 40.331 167.243 41.122 167.243 42.9652V114.679C167.243 116.522 166.028 118.727 164.521 119.594C163.022 120.462 161.799 119.671 161.799 117.828V46.1139C161.799 44.2707 163.022 42.0666 164.521 41.1988Z" fill="#37474F"/>
<path d="M164.521 118.012C165.275 117.582 165.882 116.476 165.882 115.555V43.6333C165.882 42.7117 165.275 42.3124 164.521 42.7424C163.768 43.1725 163.16 44.2784 163.16 45.2V117.121C163.16 118.051 163.768 118.442 164.521 118.012Z" fill="#263238"/>
<path d="M164.521 118.012C165.275 117.582 165.882 116.476 165.882 115.555V78.0312L163.16 79.5979V117.121C163.16 118.051 163.768 118.442 164.521 118.012Z" fill="#F79420"/>
<path d="M130.331 147.142L166.082 126.529C166.72 126.161 167.243 126.46 167.243 127.197V140.199C167.243 140.937 166.72 141.835 166.082 142.204L130.331 162.816C129.693 163.185 129.17 162.886 129.17 162.148V149.146C129.17 148.409 129.693 147.511 130.331 147.142Z" fill="#37474F"/>
<path d="M131.8 150.997C131.8 151.865 132.446 152.188 133.253 151.727L163.168 134.478C163.967 134.017 164.613 132.942 164.621 132.074C164.621 131.206 163.975 130.884 163.175 131.344L133.261 148.593C132.446 149.054 131.8 150.129 131.8 150.997Z" fill="#263238"/>
<path d="M131.8 150.997C131.8 151.865 132.446 152.188 133.253 151.727L155.009 139.178V136.045L133.253 148.593C132.446 149.054 131.8 150.129 131.8 150.997Z" fill="#F79420"/>
<path d="M131.8 157.264C131.8 158.132 132.446 158.454 133.253 157.993L163.168 140.745C163.967 140.284 164.613 139.209 164.621 138.341C164.621 137.473 163.975 137.15 163.175 137.611L133.261 154.86C132.446 155.329 131.8 156.404 131.8 157.264Z" fill="#263238"/>
<path d="M131.8 157.264C131.8 158.132 132.446 158.454 133.253 157.993L141.412 153.286V150.152L133.253 154.86C132.446 155.329 131.8 156.404 131.8 157.264Z" fill="#F79420"/>
<path d="M169.873 25.4552L126.54 0.472701C125.74 0.0119122 124.441 0.0119122 123.641 0.472701L80.3073 25.4552C79.5076 25.9159 79.5076 26.6686 80.3073 27.1294L123.641 52.1118C124.441 52.5726 125.74 52.5726 126.54 52.1118L169.866 27.1294C170.673 26.6686 170.673 25.9159 169.873 25.4552Z" fill="#455B64"/>
<path d="M124.218 46.1753L90.6043 26.7914C90.1275 26.515 89.7354 25.8391 89.7354 25.2862V24.1573C89.7354 23.6043 90.1275 22.9285 90.6043 22.652L124.218 3.26816C124.694 2.99168 125.479 2.99168 125.956 3.26816L159.569 22.652C160.046 22.9285 160.438 23.6043 160.438 24.1573V25.2862C160.438 25.8391 160.046 26.515 159.569 26.7914L125.963 46.1753C125.479 46.4518 124.702 46.4518 124.218 46.1753Z" fill="#263238"/>
<path d="M90.612 23.6581L124.225 43.042C124.702 43.3184 125.486 43.3184 125.963 43.042L159.576 23.6581C160.053 23.3816 160.053 22.9285 159.576 22.652L125.963 3.94398C125.486 3.66751 124.702 3.66751 124.225 3.94398L90.612 22.652C90.1275 22.9362 90.1275 23.3816 90.612 23.6581Z" fill="#455B64"/>
<path d="M125.094 43.2493V46.3827C124.779 46.3827 124.464 46.3135 124.225 46.1753L90.612 26.7914C90.1275 26.515 89.743 25.8391 89.743 25.2862V24.1573C89.743 23.6658 90.043 23.0898 90.4505 22.7672C90.1352 23.0437 90.1891 23.4123 90.612 23.6581L124.225 43.0419C124.464 43.1802 124.779 43.2493 125.094 43.2493Z" fill="#37474F"/>
<path d="M124.217 36.7675L101.486 23.6581C101.009 23.3816 100.617 22.7058 100.617 22.1528V21.0239C100.617 20.471 101.009 19.7951 101.486 19.5187L116.066 11.1169C116.543 10.8405 117.204 10.2568 117.535 9.81137L124.494 0.449666C124.825 0.00423646 125.479 -0.134 125.963 0.142473L148.695 13.2519C149.172 13.5284 149.564 14.2042 149.564 14.7572V22.1605C149.564 22.7135 149.172 23.3893 148.695 23.6658L125.963 36.7675C125.479 37.044 124.702 37.044 124.217 36.7675Z" fill="#263238"/>
<path d="M125.963 33.6342L140.543 25.2324C140.774 25.1019 141.043 24.8945 141.305 24.6718C141.582 24.4261 141.843 24.1573 142.012 23.9269L148.972 14.5652C149.302 14.1197 149.179 13.5361 148.703 13.2596L125.963 0.142473C125.486 -0.134 124.825 0.00423646 124.494 0.449666L117.535 9.81137C117.204 10.2568 116.666 10.8942 116.189 11.1707L101.493 19.5187C101.017 19.7951 101.017 20.2482 101.493 20.5247L124.225 33.6342C124.702 33.9106 125.479 33.9106 125.963 33.6342Z" fill="#455B64"/>
<path d="M148.695 13.2519L125.963 0.142473C125.486 -0.134 124.825 0.00423646 124.494 0.449666L117.535 9.81137C117.366 10.0418 117.104 10.3106 116.82 10.5486C116.82 10.5486 141.289 24.6641 141.297 24.6641C141.574 24.4184 141.835 24.1573 142.005 23.9269L148.964 14.5652C149.295 14.1121 149.179 13.5284 148.695 13.2519Z" fill="#37474F"/>
<path d="M106.999 19.749C107.561 19.4265 108.476 19.4265 109.037 19.749C109.599 20.0716 109.599 20.6015 109.037 20.9241C108.476 21.2466 107.561 21.2466 106.999 20.9241C106.438 20.6015 106.438 20.0716 106.999 19.749Z" fill="#F79420"/>
<path d="M111.083 22.0991C111.644 21.7765 112.559 21.7765 113.121 22.0991C113.682 22.4216 113.682 22.9515 113.121 23.2741C112.559 23.5967 111.644 23.5967 111.083 23.2741C110.522 22.9515 110.522 22.4293 111.083 22.0991Z" fill="#F79420"/>
<path d="M115.158 24.4568C115.72 24.1342 116.635 24.1342 117.196 24.4568C117.758 24.7793 117.758 25.3092 117.196 25.6318C116.635 25.9544 115.72 25.9544 115.158 25.6318C114.597 25.3016 114.597 24.7793 115.158 24.4568Z" fill="#263238"/>
<path d="M119.242 26.8068C119.803 26.4843 120.718 26.4843 121.28 26.8068C121.841 27.1294 121.841 27.6593 121.28 27.9818C120.718 28.3044 119.803 28.3044 119.242 27.9818C118.673 27.6593 118.673 27.1294 119.242 26.8068Z" fill="#263238"/>
<path d="M111.083 19.4035C111.881 19.4035 112.529 19.0321 112.529 18.574C112.529 18.116 111.881 17.7446 111.083 17.7446C110.284 17.7446 109.637 18.116 109.637 18.574C109.637 19.0321 110.284 19.4035 111.083 19.4035Z" fill="#F79420"/>
<path d="M114.143 20.3404C114.705 20.0178 115.62 20.0178 116.181 20.3404C116.743 20.663 116.743 21.1929 116.181 21.5154C115.62 21.838 114.705 21.838 114.143 21.5154C113.574 21.1929 113.574 20.663 114.143 20.3404Z" fill="#263238"/>
<path d="M119.242 24.1112C120.04 24.1112 120.688 23.7398 120.688 23.2818C120.688 22.8237 120.04 22.4524 119.242 22.4524C118.444 22.4524 117.796 22.8237 117.796 23.2818C117.796 23.7398 118.444 24.1112 119.242 24.1112Z" fill="#F79420"/>
<path d="M122.295 25.0405C122.856 24.7179 123.771 24.7179 124.333 25.0405C124.894 25.363 124.894 25.8929 124.333 26.2155C123.771 26.538 122.856 26.538 122.295 26.2155C121.734 25.8929 121.734 25.363 122.295 25.0405Z" fill="#263238"/>
<path d="M113.121 16.224C113.682 15.9015 114.597 15.9015 115.159 16.224C115.72 16.5466 115.72 17.0765 115.159 17.399C114.597 17.7216 113.682 17.7216 113.121 17.399C112.559 17.0765 112.559 16.5466 113.121 16.224Z" fill="#263238"/>
<path d="M117.196 18.574C117.758 18.2515 118.673 18.2515 119.234 18.574C119.796 18.8966 119.796 19.4265 119.234 19.7491C118.673 20.0716 117.758 20.0716 117.196 19.7491C116.635 19.4265 116.635 18.8966 117.196 18.574Z" fill="#F79420"/>
<path d="M121.28 20.9241C121.841 20.6015 122.756 20.6015 123.318 20.9241C123.879 21.2466 123.879 21.7765 123.318 22.0991C122.756 22.4216 121.841 22.4216 121.28 22.0991C120.718 21.7765 120.718 21.2543 121.28 20.9241Z" fill="#263238"/>
<path d="M123.341 29.1108C123.902 28.7882 124.817 28.7882 125.379 29.1108C125.94 29.4333 125.94 29.9632 125.379 30.2858C124.817 30.6083 123.902 30.6083 123.341 30.2858C122.779 29.9632 122.779 29.4333 123.341 29.1108Z" fill="#F79420"/>
<path d="M127.417 28.7652C128.215 28.7652 128.862 28.3938 128.862 27.9357C128.862 27.4777 128.215 27.1063 127.417 27.1063C126.618 27.1063 125.971 27.4777 125.971 27.9357C125.971 28.3938 126.618 28.7652 127.417 28.7652Z" fill="#263238"/>
<path d="M125.356 23.2818C125.917 22.9592 126.832 22.9592 127.393 23.2818C127.955 23.6043 127.955 24.1342 127.393 24.4568C126.832 24.7793 125.917 24.7793 125.356 24.4568C124.794 24.1342 124.794 23.6043 125.356 23.2818Z" fill="#263238"/>
<path d="M116.181 14.4577C116.743 14.1351 117.658 14.1351 118.219 14.4577C118.781 14.7802 118.781 15.3101 118.219 15.6327C117.658 15.9552 116.743 15.9552 116.181 15.6327C115.612 15.3101 115.612 14.7879 116.181 14.4577Z" fill="#F79420"/>
<path d="M121.28 18.2284C122.078 18.2284 122.726 17.8571 122.726 17.399C122.726 16.941 122.078 16.5696 121.28 16.5696C120.481 16.5696 119.834 16.941 119.834 17.399C119.834 17.8571 120.481 18.2284 121.28 18.2284Z" fill="#263238"/>
<path d="M124.34 19.1654C124.902 18.8428 125.817 18.8428 126.378 19.1654C126.94 19.4879 126.94 20.0179 126.378 20.3404C125.817 20.663 124.902 20.663 124.34 20.3404C123.771 20.0179 123.771 19.4879 124.34 19.1654Z" fill="#F79420"/>
<path d="M129.439 22.9362C130.237 22.9362 130.885 22.5648 130.885 22.1068C130.885 21.6487 130.237 21.2773 129.439 21.2773C128.641 21.2773 127.993 21.6487 127.993 22.1068C127.993 22.5648 128.641 22.9362 129.439 22.9362Z" fill="#263238"/>
<path d="M129.462 25.5857C130.023 25.2632 130.939 25.2632 131.5 25.5857C132.061 25.9083 132.061 26.4382 131.5 26.7607C130.939 27.0833 130.023 27.0833 129.462 26.7607C128.893 26.4382 128.893 25.9083 129.462 25.5857Z" fill="#F79420"/>
<path d="M132.515 23.8194C133.076 23.4968 133.992 23.4968 134.553 23.8194C135.114 24.1419 135.114 24.6718 134.553 24.9944C133.992 25.3169 133.076 25.3169 132.515 24.9944C131.954 24.6718 131.954 24.1419 132.515 23.8194Z" fill="#263238"/>
<path d="M125.14 33.8415V36.9672C124.81 36.9749 124.479 36.9135 124.225 36.7675L101.493 23.6581C101.009 23.3816 100.624 22.7058 100.624 22.1528V21.0239C100.624 20.5324 100.924 19.9564 101.332 19.6339C101.017 19.9103 101.07 20.279 101.493 20.5247L124.225 33.6342C124.479 33.7801 124.81 33.8492 125.14 33.8415Z" fill="#37474F"/>
<path d="M120.534 9.41969L120.557 9.38897C120.78 9.08946 121.211 8.9973 121.534 9.1893L141.32 20.5938C141.643 20.7781 141.72 21.1698 141.497 21.4617L141.474 21.4924C141.251 21.7919 140.813 21.8764 140.497 21.692L120.718 10.2875C120.395 10.1032 120.319 9.71153 120.534 9.41969Z" fill="#263238"/>
<path d="M120.534 9.41969L120.557 9.38897C120.78 9.08946 121.211 8.9973 121.534 9.1893L136.245 17.6678L135.422 18.766L120.718 10.2875C120.395 10.1032 120.319 9.71153 120.534 9.41969Z" fill="#F79420"/>
<path d="M122.172 7.22326L122.195 7.19254C122.418 6.89303 122.849 6.80087 123.172 6.99287L142.958 18.3974C143.281 18.5817 143.358 18.9734 143.135 19.2652L143.112 19.2959C142.889 19.5955 142.451 19.6799 142.135 19.4956L122.356 8.09108C122.033 7.91445 121.956 7.52277 122.172 7.22326Z" fill="#263238"/>
<path d="M122.172 7.22326L122.195 7.19254C122.418 6.89303 122.849 6.80087 123.172 6.99287L128.086 9.82672L127.263 10.9249L122.349 8.09108C122.033 7.91445 121.957 7.52277 122.172 7.22326Z" fill="#F79420"/>
<path d="M123.81 5.03451L123.833 5.00379C124.056 4.70428 124.487 4.61212 124.81 4.80412L144.596 16.2087C144.919 16.393 144.996 16.7846 144.773 17.0765L144.75 17.1072C144.527 17.4067 144.089 17.4912 143.773 17.3069L123.987 5.90233C123.671 5.71802 123.587 5.32635 123.81 5.03451Z" fill="#263238"/>
<path d="M123.81 5.03452L123.833 5.0038C124.056 4.70429 124.494 4.61213 124.81 4.79644L135.114 10.7176L134.291 11.8158L123.994 5.89466C123.671 5.71802 123.587 5.32635 123.81 5.03452Z" fill="#F79420"/>
<path d="M125.448 2.83809L125.471 2.80737C125.694 2.50786 126.125 2.4157 126.448 2.60769L146.234 14.0122C146.557 14.1965 146.634 14.5882 146.411 14.88L146.388 14.9108C146.165 15.2103 145.727 15.2948 145.411 15.1104L125.625 3.71359C125.309 3.52927 125.225 3.1376 125.448 2.83809Z" fill="#263238"/>
<path d="M125.448 2.83809L125.471 2.80737C125.694 2.50786 126.125 2.4157 126.448 2.60769L144.404 12.9601L143.581 14.0583L125.625 3.71359C125.309 3.52927 125.225 3.1376 125.448 2.83809Z" fill="#F79420"/>
<path d="M89.7354 186.217L96.4411 182.346C97.2408 181.885 98.5405 181.885 99.3402 182.346L139.19 205.324C140.174 205.893 141.405 205.186 141.405 204.049V171.134" stroke="#F79420" stroke-miterlimit="10"/>
<path d="M87.0208 184.65L96.4488 179.213C97.2485 178.752 98.5482 178.752 99.3479 179.213L141.912 203.758C142.897 204.326 144.127 203.619 144.127 202.483V171.134" stroke="#F79420" stroke-miterlimit="10"/>
<path d="M84.2985 183.076L96.4488 176.079C97.2485 175.619 98.5481 175.619 99.3479 176.079L144.635 202.191C145.619 202.759 146.849 202.053 146.849 200.916V171.326" stroke="#F79420" stroke-miterlimit="10"/>
<path d="M81.5685 181.509L96.4411 172.938C97.2408 172.478 98.5404 172.478 99.3402 172.938L147.349 200.616C148.334 201.185 149.564 200.478 149.564 199.342V171.318" stroke="#F79420" stroke-miterlimit="10"/>
<path d="M44.7792 45.9378L1.44573 70.9202C0.645965 71.381 0 72.5023 0 73.4315V192.384C0 193.306 0.645965 194.427 1.44573 194.888L44.7792 219.87C45.579 220.331 46.8786 220.331 47.6784 219.87L91.0042 194.888C91.8039 194.427 92.4499 193.306 92.4499 192.384V73.4315C92.4499 72.51 91.8039 71.3887 91.0042 70.9279L47.6784 45.9378C46.8786 45.477 45.579 45.477 44.7792 45.9378Z" fill="#37474F"/>
<path d="M92.4576 73.4233V192.384C92.4576 193.305 91.8116 194.427 91.0119 194.887L47.6784 219.87C47.2862 220.1 46.7556 220.215 46.2327 220.215V97.922C46.7556 97.922 47.2785 97.7991 47.6784 97.5764L91.0119 72.5939L91.4041 72.2637L91.9193 71.8336C92.25 72.3251 92.4576 72.9011 92.4576 73.4233Z" fill="#263238"/>
<path d="M6.89026 85.135L39.3423 103.843C40.1421 104.304 40.788 105.425 40.788 106.347V118.68C40.788 119.602 40.1421 119.978 39.3423 119.518L6.89026 100.81C6.09049 100.349 5.44453 99.2275 5.44453 98.3059V85.9721C5.43684 85.0506 6.09049 84.6743 6.89026 85.135Z" fill="#455B64"/>
<path d="M8.15918 90.5723C8.15918 91.4402 8.80514 92.5153 9.60491 92.9761L36.6201 108.551C37.4199 109.012 38.0658 108.681 38.0658 107.821C38.0658 106.953 37.4199 105.878 36.6201 105.417L9.60491 89.8428C8.80514 89.3743 8.15918 89.7045 8.15918 90.5723Z" fill="#F79420"/>
<path d="M8.15918 96.8391C8.15918 97.7069 8.80514 98.7821 9.60491 99.2429L36.6201 114.818C37.4199 115.278 38.0658 114.948 38.0658 114.088C38.0658 113.22 37.4199 112.145 36.6201 111.684L9.60491 96.1095C8.80514 95.6487 8.15918 95.979 8.15918 96.8391Z" fill="#263238"/>
<path d="M9.60491 96.1095L24.4698 104.68V107.814L9.60491 99.2429C8.80514 98.7821 8.15918 97.7069 8.15918 96.8391C8.15918 95.979 8.80514 95.6487 9.60491 96.1095Z" fill="#F79420"/>
<path d="M6.89026 107.084L39.3423 125.792C40.1421 126.253 40.788 127.374 40.788 128.296V140.629C40.788 141.551 40.1421 141.927 39.3423 141.467L6.89026 122.758C6.09049 122.298 5.44453 121.176 5.44453 120.255V107.921C5.43684 107 6.09049 106.623 6.89026 107.084Z" fill="#455B64"/>
<path d="M8.15918 112.521C8.15918 113.389 8.80514 114.464 9.60491 114.925L36.6201 130.5C37.4199 130.961 38.0658 130.63 38.0658 129.77C38.0658 128.902 37.4199 127.827 36.6201 127.366L9.60491 111.792C8.80514 111.331 8.15918 111.653 8.15918 112.521Z" fill="#F79420"/>
<path d="M8.15918 118.796C8.15918 119.663 8.80514 120.739 9.60491 121.199L36.6201 136.774C37.4199 137.235 38.0658 136.905 38.0658 136.045C38.0658 135.177 37.4199 134.102 36.6201 133.641L9.60491 118.066C8.80514 117.598 8.15918 117.928 8.15918 118.796Z" fill="#263238"/>
<path d="M9.60491 118.058L32.6289 131.337V134.47L9.60491 121.192C8.80514 120.731 8.15918 119.656 8.15918 118.788C8.15918 117.928 8.80514 117.598 9.60491 118.058Z" fill="#F79420"/>
<path d="M6.89026 129.041L39.3423 147.749C40.1421 148.209 40.788 149.331 40.788 150.252V162.586C40.788 163.508 40.1421 163.884 39.3423 163.423L6.89026 144.715C6.09049 144.254 5.44453 143.133 5.44453 142.211V129.878C5.43684 128.948 6.09049 128.572 6.89026 129.041Z" fill="#455B64"/>
<path d="M8.15918 134.47C8.15918 135.338 8.80514 136.413 9.60491 136.874L36.6201 152.449C37.4199 152.909 38.0658 152.579 38.0658 151.719C38.0658 150.851 37.4199 149.776 36.6201 149.315L9.60491 133.741C8.80514 133.28 8.15918 133.61 8.15918 134.47Z" fill="#F79420"/>
<path d="M8.15918 140.745C8.15918 141.612 8.80514 142.688 9.60491 143.148L36.6201 158.723C37.4199 159.184 38.0658 158.854 38.0658 157.994C38.0658 157.126 37.4199 156.051 36.6201 155.59L9.60491 140.015C8.80514 139.554 8.15918 139.877 8.15918 140.745Z" fill="#263238"/>
<path d="M9.60491 140.015L19.0329 145.452V148.586L9.60491 143.148C8.80514 142.688 8.15918 141.612 8.15918 140.745C8.15918 139.877 8.80514 139.554 9.60491 140.015Z" fill="#F79420"/>
<path d="M6.89026 150.989L39.3423 169.698C40.1421 170.158 40.788 171.28 40.788 172.201V184.535C40.788 185.457 40.1421 185.833 39.3423 185.372L6.89026 166.664C6.09049 166.203 5.44453 165.082 5.44453 164.16V151.827C5.43684 150.897 6.09049 150.529 6.89026 150.989Z" fill="#455B64"/>
<path d="M8.15918 156.427C8.15918 157.295 8.80514 158.37 9.60491 158.831L36.6201 174.405C37.4199 174.866 38.0658 174.536 38.0658 173.676C38.0658 172.808 37.4199 171.733 36.6201 171.272L9.60491 155.697C8.80514 155.229 8.15918 155.559 8.15918 156.427Z" fill="#F79420"/>
<path d="M8.15918 162.694C8.15918 163.561 8.80514 164.637 9.60491 165.097L36.6201 180.672C37.4199 181.133 38.0658 180.803 38.0658 179.942C38.0658 179.075 37.4199 177.999 36.6201 177.539L9.60491 161.964C8.80514 161.503 8.15918 161.833 8.15918 162.694Z" fill="#263238"/>
<path d="M9.60491 161.964L24.4698 170.535V173.668L9.60491 165.097C8.80514 164.637 8.15918 163.561 8.15918 162.694C8.15918 161.833 8.80514 161.503 9.60491 161.964Z" fill="#F79420"/>
<path d="M6.89026 172.938L39.3423 191.646C40.1421 192.107 40.788 193.229 40.788 194.15V206.484C40.788 207.405 40.1421 207.782 39.3423 207.321L6.89026 188.613C6.09049 188.152 5.44453 187.031 5.44453 186.109V173.776C5.43684 172.854 6.09049 172.478 6.89026 172.938Z" fill="#455B64"/>
<path d="M8.15918 178.376C8.15918 179.244 8.80514 180.319 9.60491 180.78L36.6201 196.354C37.4199 196.815 38.0658 196.485 38.0658 195.625C38.0658 194.757 37.4199 193.682 36.6201 193.221L9.60491 177.646C8.80514 177.178 8.15918 177.508 8.15918 178.376Z" fill="#F79420"/>
<path d="M8.15918 184.65C8.15918 185.518 8.80514 186.593 9.60491 187.054L36.6201 202.629C37.4199 203.089 38.0658 202.759 38.0658 201.899C38.0658 201.031 37.4199 199.956 36.6201 199.495L9.60491 183.921C8.80514 183.452 8.15918 183.782 8.15918 184.65Z" fill="#263238"/>
<path d="M9.60491 183.913L29.9144 195.617V198.75L9.60491 187.046C8.80514 186.585 8.15918 185.51 8.15918 184.642C8.15918 183.782 8.80514 183.452 9.60491 183.913Z" fill="#F79420"/>
<path d="M53.0306 105.471C54.5302 104.603 55.7529 105.394 55.7529 107.238V178.952C55.7529 180.795 54.5379 182.999 53.0306 183.867C51.5311 184.735 50.3083 183.944 50.3083 182.1V110.386C50.3083 108.543 51.5234 106.339 53.0306 105.471Z" fill="#37474F"/>
<path d="M53.0306 182.285C53.7842 181.855 54.3917 180.749 54.3917 179.827V107.906C54.3917 106.984 53.7842 106.585 53.0306 107.015C52.2769 107.445 51.6694 108.551 51.6694 109.472V181.394C51.6694 182.323 52.2769 182.722 53.0306 182.285Z" fill="#263238"/>
<path d="M53.0306 182.285C53.7842 181.855 54.3917 180.749 54.3917 179.827V145.445L51.6694 147.011V181.394C51.6694 182.323 52.2769 182.723 53.0306 182.285Z" fill="#F79420"/>
<path d="M61.1821 100.771C62.6817 99.9034 63.9044 100.694 63.9044 102.538V174.252C63.9044 176.095 62.6894 178.299 61.1821 179.167C59.6826 180.035 58.4598 179.244 58.4598 177.4V105.686C58.4675 103.843 59.6826 101.639 61.1821 100.771Z" fill="#37474F"/>
<path d="M61.1898 177.585C61.9434 177.155 62.5509 176.049 62.5509 175.127V103.206C62.5509 102.284 61.9434 101.885 61.1898 102.315C60.4361 102.745 59.8286 103.851 59.8286 104.772V176.694C59.8286 177.623 60.4361 178.015 61.1898 177.585Z" fill="#F79420"/>
<path d="M69.3412 96.0634C70.8407 95.1956 72.0634 95.9866 72.0634 97.8298V169.544C72.0634 171.387 70.8484 173.591 69.3412 174.459C67.8416 175.327 66.6189 174.536 66.6189 172.693V100.979C66.6266 99.1354 67.8416 96.9312 69.3412 96.0634Z" fill="#37474F"/>
<path d="M69.3412 172.885C70.0949 172.455 70.7024 171.349 70.7024 170.427V98.5056C70.7024 97.584 70.0949 97.1847 69.3412 97.6148C68.5876 98.0448 67.9801 99.1507 67.9801 100.072V171.994C67.9878 172.915 68.5953 173.315 69.3412 172.885Z" fill="#263238"/>
<path d="M69.3412 172.885C70.0949 172.455 70.7024 171.349 70.7024 170.427V114.871L67.9801 116.438V171.994C67.9878 172.915 68.5953 173.315 69.3412 172.885Z" fill="#F79420"/>
<path d="M77.5004 91.3634C78.9999 90.4956 80.2226 91.2866 80.2226 93.1297V164.844C80.2226 166.687 79.0076 168.891 77.5004 169.759C76.0008 170.627 74.7781 169.836 74.7781 167.993V96.2785C74.7858 94.4353 76.0008 92.2312 77.5004 91.3634Z" fill="#37474F"/>
<path d="M77.5004 168.177C78.254 167.747 78.8616 166.641 78.8616 165.719V93.7979C78.8616 92.8763 78.254 92.477 77.5004 92.907C76.7468 93.3371 76.1393 94.443 76.1393 95.3646V167.286C76.1393 168.215 76.7545 168.607 77.5004 168.177Z" fill="#263238"/>
<path d="M77.5004 168.177C78.254 167.747 78.8616 166.641 78.8616 165.719V153.578L76.1393 155.144V167.286C76.1393 168.215 76.7545 168.607 77.5004 168.177Z" fill="#F79420"/>
<path d="M85.6595 86.6556C87.1591 85.7878 88.3818 86.5789 88.3818 88.422V160.136C88.3818 161.979 87.1668 164.183 85.6595 165.051C84.16 165.919 82.9373 165.128 82.9373 163.285V91.5707C82.9373 89.7276 84.16 87.5311 85.6595 86.6556Z" fill="#37474F"/>
<path d="M85.6596 163.477C86.4132 163.047 87.0208 161.941 87.0208 161.019V89.0978C87.0208 88.1763 86.4132 87.7769 85.6596 88.207C84.906 88.6371 84.2985 89.7429 84.2985 90.6645V162.586C84.2985 163.508 84.906 163.907 85.6596 163.477Z" fill="#263238"/>
<path d="M85.6596 163.477C86.4132 163.047 87.0208 161.941 87.0208 161.019V123.496L84.2985 125.062V162.586C84.2985 163.508 84.906 163.907 85.6596 163.477Z" fill="#F79420"/>
<path d="M51.4696 192.599L87.2206 171.986C87.8589 171.617 88.3818 171.917 88.3818 172.654V185.656C88.3818 186.393 87.8589 187.292 87.2206 187.661L51.4696 208.273C50.8313 208.642 50.3083 208.342 50.3083 207.605V194.603C50.3083 193.866 50.8313 192.967 51.4696 192.599Z" fill="#37474F"/>
<path d="M52.9384 196.462C52.9384 197.33 53.5843 197.652 54.3918 197.191L84.3061 179.935C85.1059 179.474 85.7518 178.399 85.7595 177.531C85.7595 176.663 85.1136 176.341 84.3138 176.801L54.3995 194.058C53.5843 194.519 52.9384 195.594 52.9384 196.462Z" fill="#263238"/>
<path d="M52.9384 196.462C52.9384 197.33 53.5843 197.652 54.3918 197.191L76.1469 184.642V181.509L54.3918 194.058C53.5843 194.519 52.9384 195.594 52.9384 196.462Z" fill="#F79420"/>
<path d="M52.9384 202.728C52.9384 203.596 53.5843 203.919 54.3918 203.458L84.3061 186.201C85.1059 185.741 85.7518 184.666 85.7595 183.798C85.7595 182.93 85.1136 182.607 84.3138 183.068L54.3995 200.325C53.5843 200.785 52.9384 201.861 52.9384 202.728Z" fill="#263238"/>
<path d="M52.9384 202.728C52.9384 203.596 53.5843 203.919 54.3918 203.458L62.5509 198.75V195.617L54.3918 200.325C53.5843 200.785 52.9384 201.861 52.9384 202.728Z" fill="#F79420"/>
<path d="M91.0119 70.9197L47.6784 45.9372C46.8786 45.4765 45.579 45.4765 44.7793 45.9372L1.44577 70.9197C0.646006 71.3805 0.646006 72.1331 1.44577 72.5939L44.7793 97.5764C45.579 98.0371 46.8786 98.0371 47.6784 97.5764L91.0042 72.5939C91.8116 72.1331 91.8116 71.3805 91.0119 70.9197Z" fill="#455B64"/>
<path d="M45.356 91.6399L11.7504 72.256C11.2737 71.9795 10.8815 71.3037 10.8815 70.7507V69.6218C10.8815 69.0689 11.2737 68.393 11.7504 68.1166L45.3637 48.7327C45.8405 48.4562 46.6249 48.4562 47.1017 48.7327L80.7149 68.1166C81.1917 68.393 81.5839 69.0689 81.5839 69.6218V70.7507C81.5839 71.3037 81.1917 71.9795 80.7149 72.256L47.1017 91.6399C46.6172 91.9163 45.8405 91.9163 45.356 91.6399Z" fill="#263238"/>
<path d="M11.7504 69.1226L45.3637 88.5065C45.8405 88.783 46.6249 88.783 47.1016 88.5065L80.7149 69.1226C81.1917 68.8461 81.1917 68.393 80.7149 68.1166L47.1016 49.4085C46.6249 49.132 45.8405 49.132 45.3637 49.4085L11.7504 68.1166C11.266 68.393 11.266 68.8461 11.7504 69.1226Z" fill="#455B64"/>
<path d="M46.2327 88.7061V91.8395C45.9174 91.8395 45.6021 91.7704 45.3637 91.6322L11.7504 72.256C11.266 71.9795 10.8815 71.3037 10.8815 70.7507V69.6218C10.8815 69.1303 11.1814 68.5543 11.589 68.2318C11.2737 68.5082 11.3275 68.8769 11.7504 69.1226L45.3637 88.5065C45.6021 88.6447 45.9174 88.7061 46.2327 88.7061Z" fill="#37474F"/>
<path d="M45.356 82.233L22.6242 69.1235C22.1474 68.847 21.7552 68.1712 21.7552 67.6183V66.4893C21.7552 65.9364 22.1474 65.2606 22.6242 64.9841L37.2046 56.5824C37.6814 56.3059 38.3427 55.7222 38.6734 55.2768L45.6329 45.9151C45.9636 45.4697 46.6172 45.3314 47.1017 45.6079L69.8335 58.7173C70.3103 58.9938 70.7025 59.6696 70.7025 60.2226V67.6259C70.7025 68.1789 70.3103 68.8547 69.8335 69.1312L47.1017 82.2406C46.6172 82.5094 45.8405 82.5094 45.356 82.233Z" fill="#263238"/>
<path d="M47.1016 79.091L61.6743 70.6893C61.905 70.5588 62.1742 70.3514 62.4356 70.1287C62.7125 69.8829 62.9739 69.6141 63.1431 69.3837L70.1026 60.022C70.4333 59.5766 70.3102 58.9929 69.8335 58.7165L47.1016 45.5993C46.6249 45.3229 45.9635 45.4611 45.6328 45.9065L38.6733 55.2682C38.3427 55.7137 37.8044 56.3511 37.3276 56.6276L22.6242 64.9832C22.1474 65.2597 22.1474 65.7128 22.6242 65.9893L45.356 79.0987C45.8405 79.3675 46.6172 79.3675 47.1016 79.091Z" fill="#455B64"/>
<path d="M69.8335 58.7088L47.1017 45.5993C46.6249 45.3229 45.9636 45.4611 45.6329 45.9065L38.6734 55.2682C38.5042 55.4986 38.2428 55.7674 37.9583 56.0055C37.9583 56.0055 62.428 70.121 62.4357 70.121C62.7126 69.8752 62.974 69.6141 63.1432 69.3837L70.1027 60.022C70.4334 59.5689 70.318 58.9853 69.8335 58.7088Z" fill="#37474F"/>
<path d="M28.138 65.2136C28.6993 64.891 29.6144 64.891 30.1758 65.2136C30.7372 65.5361 30.7372 66.066 30.1758 66.3886C29.6144 66.7111 28.6993 66.7111 28.138 66.3886C27.5766 66.066 27.5766 65.5361 28.138 65.2136Z" fill="#F79420"/>
<path d="M32.2213 67.5636C32.7827 67.2411 33.6978 67.2411 34.2592 67.5636C34.8206 67.8862 34.8206 68.4161 34.2592 68.7386C33.6978 69.0612 32.7827 69.0612 32.2213 68.7386C31.6599 68.4161 31.6599 67.8862 32.2213 67.5636Z" fill="#F79420"/>
<path d="M36.2971 69.9136C36.8585 69.5911 37.7736 69.5911 38.335 69.9136C38.8964 70.2362 38.8964 70.7661 38.335 71.0886C37.7736 71.4112 36.8585 71.4112 36.2971 71.0886C35.7358 70.7661 35.7358 70.2439 36.2971 69.9136Z" fill="#263238"/>
<path d="M40.3805 72.2713C40.9419 71.9488 41.857 71.9488 42.4184 72.2713C42.9798 72.5939 42.9798 73.1238 42.4184 73.4464C41.857 73.7689 40.9419 73.7689 40.3805 73.4464C39.8115 73.1161 39.8115 72.5939 40.3805 72.2713Z" fill="#263238"/>
<path d="M31.1986 63.4472C31.76 63.1247 32.6751 63.1247 33.2365 63.4472C33.7979 63.7698 33.7979 64.2997 33.2365 64.6222C32.6751 64.9448 31.76 64.9448 31.1986 64.6222C30.6372 64.2997 30.6372 63.7775 31.1986 63.4472Z" fill="#F79420"/>
<path d="M36.2971 67.218C37.0955 67.218 37.7428 66.8467 37.7428 66.3886C37.7428 65.9305 37.0955 65.5592 36.2971 65.5592C35.4986 65.5592 34.8513 65.9305 34.8513 66.3886C34.8513 66.8467 35.4986 67.218 36.2971 67.218Z" fill="#263238"/>
<path d="M39.3577 68.155C39.919 67.8324 40.8342 67.8324 41.3955 68.155C41.9569 68.4775 41.9569 69.0074 41.3955 69.33C40.8342 69.6525 39.919 69.6525 39.3577 69.33C38.7963 69.0074 38.7963 68.4775 39.3577 68.155Z" fill="#F79420"/>
<path d="M44.4562 71.9181C45.2547 71.9181 45.902 71.5467 45.902 71.0886C45.902 70.6306 45.2547 70.2592 44.4562 70.2592C43.6578 70.2592 43.0105 70.6306 43.0105 71.0886C43.0105 71.5467 43.6578 71.9181 44.4562 71.9181Z" fill="#263238"/>
<path d="M34.2593 61.6886C34.8207 61.366 35.7358 61.366 36.2972 61.6886C36.8585 62.0111 36.8585 62.541 36.2972 62.8636C35.7358 63.1861 34.8207 63.1861 34.2593 62.8636C33.6979 62.5333 33.6979 62.0111 34.2593 61.6886Z" fill="#263238"/>
<path d="M38.335 64.0386C38.8963 63.716 39.8115 63.716 40.3728 64.0386C40.9342 64.3611 40.9342 64.891 40.3728 65.2136C39.8115 65.5361 38.8963 65.5361 38.335 65.2136C37.7736 64.891 37.7736 64.3611 38.335 64.0386Z" fill="#F79420"/>
<path d="M42.4183 66.3886C42.9797 66.066 43.8948 66.066 44.4562 66.3886C45.0176 66.7111 45.0176 67.2411 44.4562 67.5636C43.8948 67.8862 42.9797 67.8862 42.4183 67.5636C41.857 67.2411 41.857 66.7111 42.4183 66.3886Z" fill="#263238"/>
<path d="M44.4794 74.5753C45.0408 74.2527 45.9559 74.2527 46.5173 74.5753C47.0786 74.8978 47.0786 75.4277 46.5173 75.7503C45.9559 76.0728 45.0408 76.0728 44.4794 75.7503C43.918 75.4277 43.918 74.8978 44.4794 74.5753Z" fill="#F79420"/>
<path d="M47.5399 72.8089C48.1013 72.4864 49.0164 72.4864 49.5778 72.8089C50.1392 73.1315 50.1392 73.6614 49.5778 73.9839C49.0164 74.3065 48.1013 74.3065 47.5399 73.9839C46.9786 73.6614 46.9786 73.1315 47.5399 72.8089Z" fill="#263238"/>
<path d="M46.4942 68.7386C47.0555 68.4161 47.9706 68.4161 48.532 68.7386C49.0934 69.0612 49.0934 69.5911 48.532 69.9136C47.9706 70.2362 47.0555 70.2362 46.4942 69.9136C45.9328 69.5911 45.9328 69.0689 46.4942 68.7386Z" fill="#263238"/>
<path d="M38.335 61.343C39.1335 61.343 39.7807 60.9716 39.7807 60.5135C39.7807 60.0555 39.1335 59.6841 38.335 59.6841C37.5366 59.6841 36.8893 60.0555 36.8893 60.5135C36.8893 60.9716 37.5366 61.343 38.335 61.343Z" fill="#F79420"/>
<path d="M41.3956 62.2722C41.957 61.9497 42.8721 61.9497 43.4335 62.2722C43.9949 62.5948 43.9949 63.1247 43.4335 63.4472C42.8721 63.7698 41.957 63.7698 41.3956 63.4472C40.8343 63.1247 40.8343 62.6024 41.3956 62.2722Z" fill="#263238"/>
<path d="M46.4941 66.043C47.2925 66.043 47.9398 65.6717 47.9398 65.2136C47.9398 64.7555 47.2925 64.3842 46.4941 64.3842C45.6956 64.3842 45.0483 64.7555 45.0483 65.2136C45.0483 65.6717 45.6956 66.043 46.4941 66.043Z" fill="#F79420"/>
<path d="M49.5548 66.9799C50.1162 66.6574 51.0313 66.6574 51.5927 66.9799C52.1541 67.3025 52.1541 67.8324 51.5927 68.155C51.0313 68.4775 50.1162 68.4775 49.5548 68.155C48.9934 67.8324 48.9934 67.3025 49.5548 66.9799Z" fill="#263238"/>
<path d="M50.6006 71.0503C51.162 70.7277 52.0771 70.7277 52.6385 71.0503C53.1999 71.3728 53.1999 71.9027 52.6385 72.2253C52.0771 72.5478 51.162 72.5478 50.6006 72.2253C50.0316 71.895 50.0316 71.3728 50.6006 71.0503Z" fill="#F79420"/>
<path d="M54.6763 70.697C55.4748 70.697 56.1221 70.3256 56.1221 69.8676C56.1221 69.4095 55.4748 69.0381 54.6763 69.0381C53.8779 69.0381 53.2306 69.4095 53.2306 69.8676C53.2306 70.3256 53.8779 70.697 54.6763 70.697Z" fill="#263238"/>
<path d="M46.2788 79.2984V82.4241C45.9482 82.4317 45.6175 82.3703 45.3637 82.2244L22.6242 69.1226C22.1398 68.8461 21.7552 68.1703 21.7552 67.6174V66.4884C21.7552 65.9969 22.0552 65.4209 22.4627 65.0984C22.1474 65.3749 22.2013 65.7435 22.6242 65.9893L45.356 79.0987C45.6175 79.2446 45.9482 79.3061 46.2788 79.2984Z" fill="#37474F"/>
<path d="M41.6724 54.8766L41.6955 54.8458C41.9185 54.5463 42.3492 54.4542 42.6721 54.6462L62.4587 66.0507C62.7816 66.235 62.8585 66.6267 62.6355 66.9185L62.6125 66.9492C62.3894 67.2488 61.9511 67.3332 61.6358 67.1489L41.857 55.7521C41.534 55.5677 41.4571 55.1761 41.6724 54.8766Z" fill="#263238"/>
<path d="M41.6724 54.8766L41.6955 54.8458C41.9185 54.5463 42.3492 54.4542 42.6721 54.6462L57.3832 63.1247L56.5604 64.2229L41.857 55.7521C41.534 55.5677 41.4571 55.1761 41.6724 54.8766Z" fill="#F79420"/>
<path d="M43.3104 52.6878L43.3334 52.6571C43.5565 52.3576 43.9871 52.2654 44.3101 52.4574L64.0966 63.8619C64.4196 64.0463 64.4965 64.4379 64.2735 64.7298L64.2504 64.7605C64.0274 65.06 63.5891 65.1445 63.2738 64.9602L43.4949 53.5633C43.172 53.379 43.0951 52.9873 43.3104 52.6878Z" fill="#263238"/>
<path d="M43.3104 52.6878L43.3335 52.6571C43.5565 52.3576 43.9872 52.2654 44.3101 52.4574L49.2241 55.2913L48.4013 56.3895L43.4873 53.5556C43.172 53.379 43.0951 52.9873 43.3104 52.6878Z" fill="#F79420"/>
<path d="M44.9484 50.4991L44.9715 50.4683C45.1945 50.1688 45.6252 50.0767 45.9481 50.2687L65.7347 61.6732C66.0577 61.8575 66.1346 62.2492 65.9115 62.541L65.8885 62.5717C65.6655 62.8713 65.2271 62.9557 64.9118 62.7714L45.1253 51.3669C44.81 51.1826 44.7254 50.7909 44.9484 50.4991Z" fill="#263238"/>
<path d="M44.9484 50.4991L44.9715 50.4683C45.1945 50.1688 45.6328 50.0767 45.9481 50.261L56.2528 56.1821L55.4299 57.2803L45.1329 51.3592C44.81 51.1826 44.7254 50.7909 44.9484 50.4991Z" fill="#F79420"/>
<path d="M46.5864 48.3026L46.6095 48.2719C46.8325 47.9724 47.2631 47.8802 47.5861 48.0722L67.3649 59.4844C67.6879 59.6688 67.7648 60.0604 67.5418 60.3523L67.5187 60.383C67.2957 60.6825 66.8574 60.767 66.5421 60.5827L46.7633 49.1781C46.448 48.9938 46.3634 48.6021 46.5864 48.3026Z" fill="#263238"/>
<path d="M46.5864 48.3026L46.6095 48.2719C46.8325 47.9724 47.2631 47.8802 47.5861 48.0722L65.5424 58.4246L64.7196 59.5228L46.7633 49.1781C46.448 48.9938 46.3634 48.6021 46.5864 48.3026Z" fill="#F79420"/>
<path d="M138.306 176.341V212.958C138.306 213.234 138.498 213.572 138.744 213.711L173.888 233.947C174.126 234.085 174.518 234.085 174.757 233.947L175.925 233.271C176.164 233.133 176.364 232.795 176.364 232.518V195.909C176.364 195.632 176.141 195.41 175.864 195.41L138.813 175.849C138.529 175.841 138.306 176.064 138.306 176.341Z" fill="#FAFBFB"/>
<path d="M175.856 195.402H174.818C174.541 195.402 174.318 195.625 174.318 195.901V233.693C174.318 233.97 174.51 234.085 174.757 233.947L175.925 233.271C176.164 233.133 176.364 232.795 176.364 232.518V195.909C176.356 195.632 176.133 195.402 175.856 195.402Z" fill="#F5F5F5"/>
<path d="M208.293 134.386V171.003C208.293 171.28 208.485 171.617 208.731 171.756L245.259 192.798C245.497 192.937 245.89 192.937 246.128 192.798L247.297 192.123C247.535 191.984 247.735 191.646 247.735 191.37V154.753C247.735 154.476 247.512 154.253 247.235 154.253L208.801 133.879C208.516 133.887 208.293 134.109 208.293 134.386Z" fill="#E0E0E0"/>
<path d="M247.236 154.253H246.197C245.921 154.253 245.698 154.476 245.698 154.753V192.545C245.698 192.821 245.89 192.937 246.136 192.798L247.305 192.123C247.543 191.984 247.743 191.646 247.743 191.37V154.753C247.735 154.484 247.512 154.253 247.236 154.253Z" fill="#EBEBEB"/>
<path d="M134.876 175.197V174.852C134.876 174.299 135.268 173.623 135.745 173.346L209.47 130.839C209.946 130.562 210.731 130.562 211.207 130.839L250.258 153.356C250.734 153.632 251.127 154.308 251.127 154.861V155.207C251.127 155.76 250.734 156.435 250.258 156.712L176.533 199.22C176.056 199.496 175.272 199.496 174.795 199.22L135.745 176.702C135.268 176.426 134.876 175.75 134.876 175.197Z" fill="#F5F5F5"/>
<path d="M175.672 197.068V199.418C175.356 199.418 175.041 199.342 174.803 199.211L135.753 176.694C135.268 176.41 134.884 175.742 134.884 175.189V174.843C134.884 174.351 135.184 173.768 135.591 173.453C135.276 173.722 135.33 174.098 135.753 174.344L174.803 196.861C175.041 197.007 175.356 197.068 175.672 197.068Z" fill="#EBEBEB"/>
<path d="M135.745 174.344L174.795 196.861C175.272 197.138 176.056 197.138 176.533 196.861L250.258 154.353C250.734 154.077 250.734 153.624 250.258 153.347L211.207 130.83C210.731 130.553 209.946 130.553 209.469 130.83L135.745 173.338C135.268 173.622 135.268 174.067 135.745 174.344Z" fill="#FAFBFB"/>
<path d="M198.688 158.623L220.766 145.867C221.158 145.637 221.797 145.637 222.197 145.867L229.187 149.945C229.579 150.175 229.579 150.544 229.187 150.767L207.109 163.523C206.716 163.753 206.078 163.753 205.678 163.523L198.688 159.445C198.296 159.222 198.296 158.854 198.688 158.623Z" fill="#EBEBEB"/>
<path d="M202.602 150.713L202.579 150.705L200.242 149.354C199.919 149.169 199.919 148.87 200.242 148.686L218.59 138.103C218.913 137.918 218.913 137.619 218.59 137.435L218.405 137.327C218.082 137.143 217.567 137.143 217.244 137.327L199.419 147.603C199.096 147.787 198.804 147.802 198.796 147.633C198.788 147.534 198.796 147.426 198.811 147.326L199.819 142.096C199.888 141.735 199.688 141.29 199.365 141.106L199.18 140.998C198.857 140.814 198.542 140.96 198.473 141.321L197.304 147.388C197.258 147.603 197.258 147.833 197.296 148.063C197.35 148.432 197.219 148.855 196.896 149.039L185.769 155.451C185.446 155.636 185.446 155.935 185.769 156.12L185.961 156.227C186.284 156.411 186.799 156.411 187.122 156.227L197.758 150.091C198.081 149.907 198.357 149.768 198.381 149.791C198.396 149.799 198.411 149.814 198.427 149.822L202.041 151.911C202.364 152.095 202.879 152.095 203.202 151.911C204.786 150.997 209.185 148.471 210.769 147.557C211.092 147.372 211.192 147.134 211.008 147.027C210.815 146.919 210.392 146.965 210.062 147.119L203.233 150.398C202.895 150.598 202.61 150.721 202.602 150.713Z" fill="#EBEBEB"/>
<path d="M222.097 144.185L228.71 147.994C229.102 148.225 229.425 148.755 229.425 149.177C229.425 149.607 229.102 150.137 228.71 150.36L207.355 162.671C206.963 162.901 206.324 162.901 205.924 162.671L199.311 158.861C198.919 158.631 198.596 158.101 198.596 157.679C198.596 157.249 198.919 156.719 199.311 156.496L220.666 144.185C221.066 143.955 221.704 143.955 222.097 144.185Z" fill="#37474F"/>
<path d="M206.64 162.847C206.378 162.847 206.124 162.793 205.924 162.678L199.311 158.869C198.919 158.639 198.596 158.109 198.596 157.686C198.596 157.264 198.919 156.726 199.311 156.504L199.995 156.104H206.632V162.847H206.64Z" fill="#263238"/>
<path d="M199.311 156.496L220.666 144.185C221.058 143.955 221.697 143.955 222.097 144.185L228.71 147.994C229.102 148.225 229.102 148.593 228.71 148.816L207.355 161.127C206.963 161.357 206.324 161.357 205.924 161.127L199.311 157.31C198.919 157.095 198.919 156.726 199.311 156.496Z" fill="#455B64"/>
<path d="M218.828 149.861L219.497 149.477C219.528 149.461 219.52 149.43 219.497 149.415L218.721 148.97C218.69 148.954 218.644 148.954 218.613 148.97L217.944 149.354C217.913 149.369 217.921 149.4 217.952 149.415L218.728 149.861C218.751 149.876 218.805 149.884 218.828 149.861ZM217.506 148.325L216.837 148.709C216.806 148.724 216.813 148.755 216.844 148.77L217.621 149.215C217.652 149.231 217.698 149.231 217.729 149.215L218.398 148.831C218.428 148.816 218.421 148.785 218.398 148.77L217.621 148.325C217.582 148.309 217.536 148.309 217.506 148.325ZM215.329 149.576L214.191 150.229C214.16 150.245 214.168 150.275 214.191 150.291L214.968 150.736C214.999 150.751 215.045 150.751 215.075 150.736L216.214 150.083C216.244 150.068 216.237 150.037 216.214 150.022L215.437 149.576C215.406 149.561 215.36 149.561 215.329 149.576ZM216.521 148.893L215.852 149.277C215.821 149.292 215.829 149.323 215.86 149.338L216.637 149.784C216.667 149.799 216.713 149.799 216.744 149.784L217.413 149.4C217.444 149.384 217.444 149.354 217.413 149.338L216.637 148.893C216.598 148.878 216.552 148.878 216.521 148.893ZM213.884 150.414L213.214 150.797C213.184 150.813 213.191 150.844 213.214 150.859L213.991 151.304C214.022 151.32 214.068 151.32 214.099 151.304L214.768 150.92C214.799 150.905 214.791 150.874 214.76 150.859L213.984 150.414C213.96 150.398 213.914 150.398 213.884 150.414ZM212.899 150.974L212.23 151.358C212.199 151.373 212.207 151.404 212.23 151.42L213.007 151.865C213.038 151.88 213.084 151.88 213.115 151.865L213.784 151.481C213.814 151.466 213.814 151.435 213.784 151.42L213.007 150.974C212.976 150.959 212.93 150.959 212.899 150.974ZM215.96 152.802L216.629 152.418C216.66 152.403 216.652 152.372 216.629 152.357L215.852 151.911C215.821 151.896 215.775 151.896 215.745 151.911L215.075 152.295C215.045 152.31 215.052 152.341 215.075 152.357L215.852 152.802C215.883 152.817 215.929 152.817 215.96 152.802ZM214.976 153.37L215.645 152.986C215.675 152.971 215.668 152.94 215.637 152.925L214.86 152.479C214.829 152.464 214.783 152.464 214.753 152.479L214.083 152.863C214.053 152.879 214.06 152.909 214.083 152.925L214.86 153.37C214.899 153.386 214.945 153.386 214.976 153.37ZM213.991 153.931L214.66 153.547C214.691 153.532 214.683 153.501 214.66 153.485L213.884 153.04C213.853 153.025 213.807 153.025 213.776 153.04L213.107 153.424C213.076 153.439 213.084 153.47 213.107 153.485L213.884 153.931C213.914 153.946 213.968 153.954 213.991 153.931ZM213.015 154.499L213.684 154.115C213.714 154.1 213.707 154.069 213.676 154.054L212.899 153.608C212.868 153.593 212.822 153.593 212.792 153.608L212.122 153.992C212.092 154.008 212.099 154.038 212.122 154.054L212.899 154.499C212.938 154.515 212.984 154.515 213.015 154.499ZM217.852 150.429L218.521 150.045C218.551 150.03 218.544 149.999 218.521 149.983L217.744 149.538C217.713 149.523 217.667 149.523 217.636 149.538L216.967 149.922C216.936 149.937 216.936 149.968 216.967 149.983L217.744 150.429C217.775 150.444 217.821 150.444 217.852 150.429ZM216.944 152.234L218.444 151.366C218.474 151.35 218.467 151.32 218.436 151.304L216.544 150.214C216.514 150.198 216.467 150.198 216.437 150.214L215.66 150.659C215.629 150.675 215.629 150.705 215.66 150.721L216.66 151.297C216.69 151.312 216.69 151.343 216.66 151.358L216.037 151.719C216.006 151.734 216.006 151.765 216.037 151.781L216.813 152.226C216.867 152.249 216.913 152.249 216.944 152.234ZM211.915 151.542L211.246 151.926C211.215 151.942 211.223 151.973 211.254 151.988L212.03 152.433C212.061 152.449 212.107 152.449 212.138 152.433L212.807 152.049C212.838 152.034 212.83 152.003 212.807 151.988L212.03 151.542C211.992 151.527 211.946 151.527 211.915 151.542ZM210.938 152.111L210.269 152.495C210.238 152.51 210.246 152.541 210.277 152.556L211.054 153.002C211.084 153.017 211.13 153.017 211.161 153.002L211.83 152.618C211.861 152.602 211.853 152.572 211.83 152.556L211.054 152.111C211.015 152.095 210.961 152.095 210.938 152.111ZM206.024 158.462C206.055 158.477 206.101 158.477 206.132 158.462L206.801 158.078C206.832 158.063 206.824 158.032 206.801 158.017L206.024 157.571C205.994 157.556 205.947 157.556 205.917 157.571L205.248 157.955C205.217 157.97 205.225 158.001 205.248 158.017L206.024 158.462ZM203.071 156.642L202.402 157.026C202.372 157.041 202.372 157.072 202.402 157.087L203.179 157.533C203.21 157.548 203.256 157.548 203.287 157.533L203.956 157.149C203.986 157.133 203.979 157.103 203.956 157.087L203.179 156.642C203.148 156.626 203.102 156.626 203.071 156.642ZM204.655 157.97C204.686 157.986 204.732 157.986 204.763 157.97L205.432 157.586C205.463 157.571 205.455 157.54 205.424 157.525L204.648 157.08C204.617 157.064 204.571 157.064 204.54 157.08L203.871 157.464C203.84 157.479 203.84 157.51 203.871 157.525L204.655 157.97ZM207.762 158.808L208.431 158.424C208.462 158.408 208.454 158.377 208.431 158.362L207.655 157.917C207.624 157.901 207.578 157.901 207.547 157.917L206.878 158.301C206.847 158.316 206.855 158.347 206.878 158.362L207.655 158.808C207.685 158.823 207.731 158.823 207.762 158.808ZM206.67 159.376C206.701 159.391 206.747 159.391 206.778 159.376L207.447 158.992C207.478 158.977 207.47 158.946 207.447 158.93L206.67 158.485C206.639 158.47 206.593 158.47 206.563 158.485L205.894 158.869C205.863 158.884 205.87 158.915 205.894 158.93L206.67 159.376ZM204.056 156.081L203.387 156.465C203.356 156.481 203.364 156.511 203.394 156.527L204.171 156.972C204.202 156.987 204.248 156.987 204.279 156.972L204.948 156.588C204.978 156.573 204.971 156.542 204.948 156.527L204.171 156.081C204.133 156.066 204.086 156.058 204.056 156.081ZM208.97 153.247L208.301 153.631C208.27 153.647 208.277 153.677 208.301 153.693L209.077 154.138C209.108 154.154 209.154 154.154 209.185 154.138L209.854 153.754C209.885 153.739 209.877 153.708 209.854 153.693L209.077 153.247C209.046 153.232 209 153.224 208.97 153.247ZM205.04 155.513L204.371 155.897C204.34 155.912 204.348 155.943 204.371 155.958L205.148 156.404C205.178 156.419 205.225 156.419 205.255 156.404L205.924 156.02C205.955 156.004 205.947 155.974 205.924 155.958L205.148 155.513C205.117 155.498 205.071 155.498 205.04 155.513ZM209.954 152.679L209.285 153.063C209.254 153.078 209.262 153.109 209.293 153.124L210.069 153.57C210.1 153.585 210.146 153.585 210.177 153.57L210.846 153.186C210.877 153.171 210.869 153.14 210.846 153.124L210.069 152.679C210.031 152.664 209.985 152.664 209.954 152.679ZM207.985 153.808L207.316 154.192C207.285 154.207 207.285 154.238 207.316 154.253L208.093 154.699C208.124 154.714 208.17 154.714 208.201 154.699L208.87 154.315C208.9 154.299 208.893 154.269 208.87 154.253L208.093 153.808C208.062 153.793 208.016 153.793 207.985 153.808ZM207.001 154.376L206.332 154.76C206.301 154.776 206.301 154.806 206.332 154.822L207.109 155.267C207.139 155.283 207.185 155.283 207.216 155.267L207.885 154.883C207.916 154.868 207.908 154.837 207.878 154.822L207.101 154.376C207.078 154.361 207.032 154.361 207.001 154.376ZM206.024 154.945L205.355 155.329C205.324 155.344 205.332 155.375 205.355 155.39L206.132 155.835C206.163 155.851 206.209 155.851 206.24 155.835L206.909 155.451C206.939 155.436 206.932 155.405 206.901 155.39L206.124 154.945C206.101 154.929 206.047 154.929 206.024 154.945ZM211.046 155.636L211.715 155.252C211.746 155.236 211.746 155.206 211.715 155.19L210.938 154.745C210.907 154.73 210.861 154.73 210.831 154.745L210.162 155.129C210.131 155.144 210.138 155.175 210.162 155.19L210.938 155.636C210.969 155.651 211.015 155.651 211.046 155.636ZM219.674 147.073L219.005 147.457C218.974 147.472 218.982 147.503 219.005 147.518L219.782 147.964C219.813 147.979 219.859 147.979 219.889 147.964L220.559 147.58C220.589 147.564 220.582 147.534 220.559 147.518L219.782 147.073C219.751 147.057 219.705 147.057 219.674 147.073ZM218.49 147.756L217.821 148.14C217.79 148.156 217.798 148.186 217.821 148.202L218.598 148.647C218.628 148.663 218.674 148.663 218.705 148.647L219.374 148.263C219.405 148.248 219.397 148.217 219.374 148.202L218.598 147.756C218.567 147.741 218.513 147.741 218.49 147.756ZM220.658 146.504L219.989 146.888C219.959 146.904 219.966 146.935 219.989 146.95L220.766 147.395C220.797 147.411 220.843 147.411 220.874 147.395L221.543 147.011C221.574 146.996 221.574 146.965 221.543 146.95L220.766 146.504C220.735 146.489 220.689 146.489 220.658 146.504ZM215.575 151.742L216.244 151.358C216.275 151.343 216.267 151.312 216.237 151.297L215.46 150.851C215.429 150.836 215.383 150.836 215.352 150.851L214.683 151.235C214.653 151.251 214.66 151.281 214.683 151.297L215.46 151.742C215.498 151.757 215.545 151.757 215.575 151.742ZM221.75 145.936C221.72 145.921 221.674 145.921 221.643 145.936L220.974 146.32C220.943 146.336 220.951 146.366 220.974 146.382L221.75 146.827C221.781 146.842 221.827 146.842 221.858 146.827L222.527 146.443C222.558 146.428 222.55 146.397 222.527 146.382L221.75 145.936ZM212.03 155.067L212.699 154.683C212.73 154.668 212.722 154.637 212.692 154.622L211.915 154.177C211.884 154.161 211.838 154.161 211.807 154.177L211.138 154.561C211.107 154.576 211.115 154.607 211.138 154.622L211.915 155.067C211.953 155.083 211.999 155.083 212.03 155.067ZM224.081 148.117L224.75 147.733C224.78 147.718 224.773 147.687 224.75 147.672L223.973 147.226C223.942 147.211 223.896 147.211 223.865 147.226L223.196 147.61C223.165 147.626 223.173 147.656 223.196 147.672L223.973 148.117C224.004 148.133 224.05 148.133 224.081 148.117ZM221.989 148.048L222.658 147.664C222.689 147.649 222.681 147.618 222.658 147.603L221.881 147.157C221.85 147.142 221.804 147.142 221.774 147.157L221.104 147.541C221.074 147.557 221.074 147.587 221.104 147.603L221.881 148.048C221.912 148.063 221.958 148.063 221.989 148.048ZM222.858 146.581C222.827 146.566 222.781 146.566 222.75 146.581L222.081 146.965C222.05 146.981 222.058 147.011 222.081 147.027L222.858 147.472C222.889 147.487 222.935 147.487 222.965 147.472L223.635 147.088C223.665 147.073 223.665 147.042 223.635 147.027L222.858 146.581ZM223.065 146.458L224.957 147.549C224.988 147.564 225.034 147.564 225.065 147.549L225.734 147.165C225.765 147.15 225.757 147.119 225.734 147.104L223.842 146.013C223.811 145.998 223.765 145.998 223.735 146.013L223.065 146.397C223.035 146.412 223.035 146.443 223.065 146.458ZM220.789 147.71L220.12 148.094C220.089 148.11 220.097 148.14 220.12 148.156L220.897 148.601C220.928 148.616 220.974 148.616 221.005 148.601L221.674 148.217C221.704 148.202 221.697 148.171 221.674 148.156L220.897 147.71C220.866 147.695 220.82 147.695 220.789 147.71ZM213.391 151.973L212.722 152.357C212.692 152.372 212.699 152.403 212.722 152.418L213.499 152.863C213.53 152.879 213.576 152.879 213.607 152.863L214.276 152.479C214.306 152.464 214.299 152.433 214.268 152.418L213.491 151.973C213.468 151.957 213.422 151.957 213.391 151.973ZM222.989 148.686C223.019 148.701 223.065 148.701 223.096 148.686L223.765 148.302C223.796 148.286 223.788 148.255 223.758 148.24L222.981 147.795C222.95 147.779 222.904 147.779 222.873 147.795L222.204 148.179C222.173 148.194 222.173 148.225 222.204 148.24L222.989 148.686ZM214.376 151.412L213.707 151.796C213.676 151.811 213.684 151.842 213.714 151.857L214.491 152.303C214.522 152.318 214.568 152.318 214.599 152.303L215.268 151.919C215.298 151.903 215.291 151.873 215.26 151.857L214.483 151.412C214.453 151.397 214.399 151.397 214.376 151.412ZM207.009 157.901C207.039 157.917 207.085 157.917 207.116 157.901L207.785 157.517C207.816 157.502 207.808 157.471 207.778 157.456L207.001 157.01C206.97 156.995 206.924 156.995 206.893 157.01L206.224 157.394C206.193 157.41 206.201 157.441 206.224 157.456L207.009 157.901ZM205.532 156.511L204.863 156.895C204.832 156.911 204.84 156.941 204.863 156.957L205.64 157.402C205.671 157.418 205.717 157.418 205.747 157.402L206.416 157.018C206.447 157.003 206.447 156.972 206.416 156.957L205.64 156.511C205.609 156.496 205.555 156.496 205.532 156.511ZM208.101 157.333L208.77 156.949C208.8 156.934 208.8 156.903 208.77 156.888L207.993 156.442C207.962 156.427 207.916 156.427 207.885 156.442L207.216 156.826C207.185 156.842 207.193 156.872 207.224 156.888L208.001 157.333C208.024 157.348 208.07 157.348 208.101 157.333ZM209.077 156.765L209.746 156.381C209.777 156.365 209.777 156.335 209.746 156.319L208.97 155.874C208.939 155.859 208.893 155.859 208.862 155.874L208.193 156.258C208.162 156.273 208.17 156.304 208.201 156.319L208.977 156.765C209 156.78 209.054 156.78 209.077 156.765ZM210.062 156.204L210.731 155.82C210.761 155.805 210.754 155.774 210.731 155.759L209.954 155.313C209.923 155.298 209.877 155.298 209.846 155.313L209.177 155.697C209.146 155.713 209.146 155.743 209.177 155.759L209.954 156.204C209.985 156.219 210.031 156.219 210.062 156.204ZM206.509 155.943L205.84 156.327C205.809 156.342 205.817 156.373 205.84 156.388L206.616 156.834C206.647 156.849 206.693 156.849 206.724 156.834L207.393 156.45C207.424 156.434 207.416 156.404 207.393 156.388L206.616 155.943C206.586 155.928 206.54 155.928 206.509 155.943ZM207.493 155.375L206.824 155.759C206.793 155.774 206.793 155.805 206.824 155.82L207.601 156.266C207.631 156.281 207.678 156.281 207.708 156.266L208.377 155.882C208.408 155.866 208.401 155.835 208.37 155.82L207.593 155.375C207.57 155.359 207.524 155.359 207.493 155.375ZM211.423 153.109L210.754 153.493C210.723 153.508 210.731 153.539 210.754 153.555L211.53 154C211.561 154.015 211.607 154.015 211.638 154L212.307 153.616C212.338 153.601 212.338 153.57 212.307 153.555L211.53 153.109C211.5 153.094 211.453 153.094 211.423 153.109ZM210.446 153.677L209.777 154.061C209.746 154.077 209.746 154.108 209.777 154.123L210.554 154.568C210.584 154.584 210.631 154.584 210.661 154.568L211.33 154.184C211.361 154.169 211.361 154.138 211.33 154.123L210.554 153.677C210.523 153.662 210.469 153.662 210.446 153.677ZM212.407 152.541L211.738 152.925C211.707 152.94 211.715 152.971 211.738 152.986L212.515 153.432C212.545 153.447 212.592 153.447 212.622 153.432L213.291 153.048C213.322 153.032 213.314 153.002 213.284 152.986L212.507 152.541C212.484 152.525 212.438 152.525 212.407 152.541ZM208.477 154.806L207.808 155.19C207.778 155.206 207.778 155.236 207.808 155.252L208.585 155.697C208.616 155.713 208.662 155.713 208.693 155.697L209.362 155.313C209.393 155.298 209.385 155.267 209.362 155.252L208.585 154.806C208.554 154.791 208.508 154.791 208.477 154.806ZM209.462 154.246L208.793 154.63C208.762 154.645 208.77 154.676 208.8 154.691L209.577 155.137C209.608 155.152 209.654 155.152 209.685 155.137L210.354 154.753C210.385 154.737 210.385 154.707 210.354 154.691L209.577 154.246C209.539 154.23 209.493 154.223 209.462 154.246ZM208.739 158.239L209.408 157.855C209.439 157.84 209.431 157.809 209.408 157.794L208.631 157.348C208.6 157.333 208.554 157.333 208.524 157.348L207.855 157.732C207.824 157.748 207.831 157.778 207.855 157.794L208.631 158.239C208.67 158.255 208.716 158.262 208.739 158.239ZM202.979 157.663L202.202 157.218C202.172 157.202 202.125 157.202 202.095 157.218L201.426 157.602C201.395 157.617 201.403 157.648 201.426 157.663L202.202 158.109C202.233 158.124 202.279 158.124 202.31 158.109L202.979 157.725C203.01 157.709 203.01 157.679 202.979 157.663ZM204.448 158.093L203.671 157.648C203.64 157.633 203.594 157.633 203.563 157.648L202.525 158.247C202.495 158.262 202.502 158.293 202.533 158.308L203.31 158.754C203.34 158.769 203.387 158.769 203.417 158.754L204.456 158.155C204.479 158.139 204.479 158.109 204.448 158.093ZM201.779 156.795L201.003 156.35C200.972 156.335 200.926 156.335 200.895 156.35L200.064 156.826C200.034 156.842 200.041 156.872 200.064 156.888L200.841 157.333C200.872 157.348 200.918 157.348 200.949 157.333L201.779 156.857C201.818 156.842 201.81 156.811 201.779 156.795ZM202.418 156.427C202.448 156.442 202.495 156.442 202.525 156.427L203.194 156.043C203.225 156.027 203.225 155.997 203.194 155.981L202.418 155.536C202.387 155.521 202.341 155.521 202.31 155.536L201.641 155.92C201.61 155.935 201.61 155.966 201.641 155.981L202.418 156.427ZM205.817 158.585L205.04 158.139C205.009 158.124 204.963 158.124 204.932 158.139L203.64 158.884C203.61 158.9 203.617 158.93 203.64 158.946L204.417 159.391C204.448 159.407 204.494 159.407 204.525 159.391L205.817 158.646C205.847 158.631 205.847 158.6 205.817 158.585ZM206.463 159.491L205.686 159.046C205.655 159.03 205.609 159.03 205.578 159.046L204.748 159.522C204.717 159.537 204.725 159.568 204.748 159.583L205.524 160.029C205.555 160.044 205.601 160.044 205.632 160.029L206.463 159.552C206.493 159.537 206.493 159.514 206.463 159.491ZM209.723 152.218C209.754 152.234 209.8 152.234 209.831 152.218L210.5 151.834C210.531 151.819 210.523 151.788 210.5 151.773L209.723 151.327C209.692 151.312 209.646 151.312 209.616 151.327L208.946 151.711C208.916 151.727 208.916 151.757 208.946 151.773L209.723 152.218ZM207.762 153.347C207.793 153.363 207.839 153.363 207.87 153.347L208.539 152.963C208.57 152.948 208.562 152.917 208.531 152.902L207.755 152.456C207.724 152.441 207.678 152.441 207.647 152.456L206.978 152.84C206.947 152.856 206.955 152.886 206.978 152.902L207.762 153.347ZM203.402 155.858C203.433 155.874 203.479 155.874 203.51 155.858L204.179 155.475C204.209 155.459 204.209 155.428 204.179 155.413L203.402 154.968C203.371 154.952 203.325 154.952 203.294 154.968L202.625 155.352C202.595 155.367 202.602 155.398 202.625 155.413L203.402 155.858ZM208.739 152.779C208.77 152.794 208.816 152.794 208.847 152.779L209.516 152.395C209.546 152.38 209.539 152.349 209.508 152.333L208.731 151.888C208.7 151.873 208.654 151.873 208.624 151.888L207.954 152.272C207.924 152.287 207.931 152.318 207.954 152.333L208.739 152.779ZM206.778 153.916C206.809 153.931 206.855 153.931 206.886 153.916L207.555 153.532C207.585 153.516 207.585 153.485 207.555 153.47L206.778 153.025C206.747 153.009 206.701 153.009 206.67 153.025L206.001 153.409C205.97 153.424 205.978 153.455 206.009 153.47L206.778 153.916ZM207.001 159.568C206.97 159.552 206.924 159.552 206.893 159.568L205.855 160.167C205.824 160.182 205.832 160.213 205.855 160.228L206.632 160.674C206.663 160.689 206.709 160.689 206.739 160.674L207.778 160.075C207.808 160.059 207.801 160.029 207.778 160.013L207.001 159.568ZM205.363 154.73C205.394 154.745 205.44 154.745 205.471 154.73L206.14 154.346C206.17 154.33 206.163 154.299 206.14 154.284L205.363 153.839C205.332 153.823 205.286 153.823 205.255 153.839L204.586 154.223C204.555 154.238 204.563 154.269 204.586 154.284L205.363 154.73ZM204.386 155.298C204.417 155.313 204.463 155.313 204.494 155.298L205.163 154.914C205.194 154.899 205.186 154.868 205.163 154.852L204.386 154.407C204.356 154.392 204.309 154.392 204.279 154.407L203.61 154.791C203.579 154.806 203.587 154.837 203.617 154.852L204.386 155.298ZM225.211 149.07C225.18 149.054 225.134 149.054 225.103 149.07L223.45 150.022C223.419 150.037 223.427 150.068 223.45 150.083L224.227 150.529C224.257 150.544 224.304 150.544 224.334 150.529L225.988 149.576C226.018 149.561 226.011 149.53 225.988 149.515L225.211 149.07ZM223.035 150.321C223.004 150.306 222.958 150.306 222.927 150.321L222.258 150.705C222.227 150.721 222.235 150.751 222.266 150.767L223.042 151.212C223.073 151.228 223.119 151.228 223.15 151.212L223.819 150.828C223.85 150.813 223.842 150.782 223.819 150.767L223.035 150.321ZM209.723 157.679L210.392 157.295C210.423 157.279 210.415 157.249 210.385 157.233L209.608 156.788C209.577 156.772 209.531 156.772 209.5 156.788L208.831 157.172C208.8 157.187 208.808 157.218 208.831 157.233L209.608 157.679C209.646 157.694 209.7 157.694 209.723 157.679ZM221.074 151.458C221.043 151.443 220.997 151.443 220.966 151.458L220.297 151.842C220.266 151.857 220.274 151.888 220.297 151.903L221.074 152.349C221.105 152.364 221.151 152.364 221.181 152.349L221.85 151.965C221.881 151.949 221.874 151.919 221.85 151.903L221.074 151.458ZM226.195 148.501C226.165 148.486 226.118 148.486 226.088 148.501L225.419 148.885C225.388 148.901 225.396 148.931 225.419 148.947L226.195 149.392C226.226 149.407 226.272 149.407 226.303 149.392L226.972 149.008C227.003 148.993 227.003 148.962 226.972 148.947L226.195 148.501ZM227.956 148.386L226.065 147.295C226.034 147.28 225.988 147.28 225.957 147.295L225.288 147.679C225.257 147.695 225.265 147.726 225.288 147.741L227.18 148.831C227.21 148.847 227.257 148.847 227.287 148.831L227.956 148.447C227.987 148.432 227.987 148.401 227.956 148.386ZM217.398 153.57C217.367 153.555 217.321 153.555 217.29 153.57L216.46 154.046C216.429 154.061 216.437 154.092 216.46 154.107L217.236 154.553C217.267 154.568 217.313 154.568 217.344 154.553L218.175 154.077C218.205 154.061 218.198 154.031 218.175 154.015L217.398 153.57ZM219.882 152.141C219.851 152.126 219.805 152.126 219.774 152.141L218.736 152.74C218.705 152.756 218.713 152.787 218.736 152.802L219.513 153.247C219.543 153.263 219.59 153.263 219.62 153.247L220.658 152.648C220.689 152.633 220.682 152.602 220.651 152.587L219.882 152.141ZM215.122 154.883C215.091 154.868 215.045 154.868 215.014 154.883L209.477 158.078C209.446 158.093 209.446 158.124 209.477 158.139L210.254 158.585C210.285 158.6 210.331 158.6 210.361 158.585L215.898 155.39C215.929 155.375 215.921 155.344 215.898 155.329L215.122 154.883ZM209.277 158.255C209.246 158.239 209.2 158.239 209.17 158.255L208.339 158.731C208.308 158.746 208.316 158.777 208.339 158.792L209.116 159.238C209.146 159.253 209.193 159.253 209.223 159.238L210.054 158.761C210.085 158.746 210.077 158.715 210.054 158.7L209.277 158.255ZM216.26 154.23C216.229 154.215 216.183 154.215 216.152 154.23L215.322 154.707C215.291 154.722 215.291 154.753 215.322 154.768L216.098 155.213C216.129 155.229 216.175 155.229 216.206 155.213L217.036 154.737C217.067 154.722 217.06 154.691 217.029 154.676L216.26 154.23ZM208.139 158.907C208.108 158.892 208.062 158.892 208.031 158.907L207.201 159.384C207.17 159.399 207.178 159.43 207.209 159.445L207.985 159.89C208.016 159.906 208.062 159.906 208.093 159.89L208.923 159.414C208.954 159.399 208.946 159.368 208.923 159.353L208.139 158.907ZM218.536 152.917C218.505 152.902 218.459 152.902 218.428 152.917L217.598 153.393C217.567 153.409 217.575 153.439 217.598 153.455L218.375 153.9C218.405 153.916 218.451 153.916 218.482 153.9L219.313 153.424C219.343 153.409 219.336 153.378 219.313 153.363L218.536 152.917ZM222.058 150.89C222.027 150.874 221.981 150.874 221.95 150.89L221.281 151.274C221.251 151.289 221.258 151.32 221.289 151.335L222.066 151.781C222.097 151.796 222.143 151.796 222.173 151.781L222.842 151.397C222.873 151.381 222.866 151.35 222.842 151.335L222.058 150.89ZM224.211 149.323L224.88 148.939C224.911 148.924 224.911 148.893 224.88 148.878L224.104 148.432C224.073 148.417 224.027 148.417 223.996 148.432L223.327 148.816C223.296 148.831 223.304 148.862 223.327 148.878L224.104 149.323C224.134 149.338 224.181 149.346 224.211 149.323ZM219.813 149.3L220.482 148.916C220.512 148.901 220.505 148.87 220.482 148.855L219.705 148.409C219.674 148.394 219.628 148.394 219.597 148.409L218.928 148.793C218.897 148.808 218.905 148.839 218.928 148.855L219.705 149.3C219.736 149.315 219.789 149.315 219.813 149.3ZM217.59 153.14L219.559 152.003C219.59 151.988 219.582 151.957 219.551 151.942L218.774 151.496C218.744 151.481 218.698 151.481 218.667 151.496L216.698 152.633C216.667 152.648 216.675 152.679 216.698 152.694L217.475 153.14C217.513 153.155 217.559 153.163 217.59 153.14ZM223.119 149.891C223.15 149.907 223.196 149.907 223.227 149.891L223.896 149.507C223.927 149.492 223.927 149.461 223.896 149.446L223.119 149C223.089 148.985 223.042 148.985 223.012 149L222.343 149.384C222.312 149.4 222.32 149.43 222.35 149.446L223.119 149.891ZM222.112 149.254L222.781 148.87C222.812 148.855 222.804 148.824 222.781 148.808L222.004 148.363C221.973 148.348 221.927 148.348 221.897 148.363L221.228 148.747C221.197 148.762 221.197 148.793 221.228 148.808L222.004 149.254C222.035 149.269 222.089 149.269 222.112 149.254ZM216.606 153.708L217.275 153.324C217.306 153.309 217.298 153.278 217.267 153.263L216.49 152.817C216.46 152.802 216.414 152.802 216.383 152.817L215.714 153.201C215.683 153.217 215.691 153.247 215.714 153.263L216.49 153.708C216.529 153.724 216.575 153.724 216.606 153.708ZM220.943 151.143C220.974 151.158 221.02 151.158 221.051 151.143L221.72 150.759C221.75 150.744 221.743 150.713 221.72 150.698L220.943 150.252C220.912 150.237 220.866 150.237 220.835 150.252L220.166 150.636C220.136 150.652 220.143 150.682 220.174 150.698L220.943 151.143ZM211.692 156.542L212.361 156.158C212.392 156.143 212.384 156.112 212.361 156.097L211.584 155.651C211.553 155.636 211.507 155.636 211.477 155.651L210.808 156.035C210.777 156.05 210.784 156.081 210.808 156.097L211.584 156.542C211.615 156.557 211.661 156.557 211.692 156.542ZM212.676 155.974L213.345 155.59C213.376 155.574 213.368 155.544 213.345 155.528L212.569 155.083C212.538 155.067 212.492 155.067 212.461 155.083L211.792 155.467C211.761 155.482 211.769 155.513 211.792 155.528L212.569 155.974C212.599 155.989 212.645 155.989 212.676 155.974ZM210.708 157.11L211.377 156.726C211.407 156.711 211.4 156.68 211.377 156.665L210.6 156.219C210.569 156.204 210.523 156.204 210.492 156.219L209.823 156.603C209.792 156.619 209.8 156.65 209.823 156.665L210.6 157.11C210.631 157.126 210.677 157.126 210.708 157.11ZM214.637 154.845L215.306 154.461C215.337 154.445 215.329 154.415 215.306 154.399L214.529 153.954C214.499 153.939 214.453 153.939 214.422 153.954L213.753 154.338C213.722 154.353 213.722 154.384 213.753 154.399L214.529 154.845C214.56 154.86 214.614 154.86 214.637 154.845ZM213.653 155.413L214.322 155.029C214.353 155.014 214.353 154.983 214.322 154.968L213.545 154.522C213.514 154.507 213.468 154.507 213.437 154.522L212.768 154.906C212.738 154.922 212.745 154.952 212.776 154.968L213.553 155.413C213.584 155.428 213.63 155.428 213.653 155.413ZM215.621 154.276L216.291 153.892C216.321 153.877 216.314 153.846 216.291 153.831L215.514 153.386C215.483 153.37 215.437 153.37 215.406 153.386L214.737 153.77C214.706 153.785 214.714 153.816 214.745 153.831L215.522 154.276C215.545 154.292 215.591 154.292 215.621 154.276ZM220.12 145.89C220.151 145.905 220.197 145.905 220.228 145.89L220.897 145.506C220.928 145.491 220.92 145.46 220.897 145.445L220.689 145.322C220.658 145.306 220.612 145.306 220.582 145.322L219.913 145.706C219.882 145.721 219.889 145.752 219.92 145.767L220.12 145.89ZM215.283 149.008C215.314 149.023 215.36 149.023 215.391 149.008L216.06 148.624C216.091 148.609 216.083 148.578 216.06 148.563L215.283 148.117C215.252 148.102 215.206 148.102 215.175 148.117L214.506 148.501C214.476 148.517 214.476 148.547 214.506 148.563L215.283 149.008ZM217.252 147.879C217.283 147.895 217.329 147.895 217.359 147.879L218.028 147.495C218.059 147.48 218.052 147.449 218.028 147.434L217.252 146.988C217.221 146.973 217.175 146.973 217.144 146.988L216.475 147.372C216.444 147.388 216.452 147.418 216.483 147.434L217.252 147.879ZM214.083 149.699C214.114 149.715 214.16 149.715 214.191 149.699L214.86 149.315C214.891 149.3 214.883 149.269 214.852 149.254L214.076 148.808C214.045 148.793 213.999 148.793 213.968 148.808L213.299 149.192C213.268 149.208 213.276 149.238 213.299 149.254L214.083 149.699ZM216.267 148.447C216.298 148.463 216.344 148.463 216.375 148.447L217.044 148.063C217.075 148.048 217.067 148.017 217.044 148.002L216.267 147.557C216.237 147.541 216.191 147.541 216.16 147.557L215.491 147.941C215.46 147.956 215.46 147.987 215.491 148.002L216.267 148.447ZM212.115 150.836C212.146 150.851 212.192 150.851 212.222 150.836L212.892 150.452C212.922 150.437 212.915 150.406 212.892 150.39L212.115 149.945C212.084 149.93 212.038 149.93 212.007 149.945L211.338 150.329C211.307 150.344 211.315 150.375 211.346 150.39L212.115 150.836ZM213.099 150.268C213.13 150.283 213.176 150.283 213.207 150.268L213.876 149.884C213.907 149.868 213.899 149.838 213.876 149.822L213.099 149.377C213.068 149.361 213.022 149.361 212.991 149.377L212.322 149.761C212.292 149.776 212.299 149.807 212.322 149.822L213.099 150.268ZM218.152 147.027C218.182 147.042 218.228 147.042 218.259 147.027L218.928 146.643C218.959 146.627 218.951 146.597 218.928 146.581L218.721 146.458C218.69 146.443 218.644 146.443 218.613 146.458L217.944 146.842C217.913 146.858 217.921 146.888 217.944 146.904L218.152 147.027ZM221.104 145.329C221.135 145.345 221.181 145.345 221.212 145.329L221.881 144.945C221.912 144.93 221.904 144.899 221.881 144.884L221.674 144.761C221.643 144.746 221.597 144.746 221.566 144.761L220.897 145.145C220.866 145.161 220.866 145.191 220.897 145.207L221.104 145.329ZM222.735 146.266C222.766 146.282 222.812 146.282 222.842 146.266L223.511 145.882C223.542 145.867 223.535 145.836 223.511 145.821L222.735 145.376C222.704 145.36 222.658 145.36 222.627 145.376L221.958 145.76C221.927 145.775 221.935 145.806 221.958 145.821L222.735 146.266ZM225.188 148.762L225.857 148.378C225.888 148.363 225.888 148.332 225.857 148.317L225.08 147.871C225.05 147.856 225.003 147.856 224.973 147.871L224.304 148.255C224.273 148.271 224.28 148.302 224.304 148.317L225.08 148.762C225.111 148.778 225.165 148.778 225.188 148.762ZM219.136 146.458C219.167 146.474 219.213 146.474 219.244 146.458L219.913 146.074C219.943 146.059 219.936 146.028 219.913 146.013L219.705 145.89C219.674 145.875 219.628 145.875 219.597 145.89L218.928 146.274C218.897 146.289 218.905 146.32 218.936 146.336L219.136 146.458ZM211.138 151.404C211.169 151.42 211.215 151.42 211.246 151.404L211.915 151.02C211.946 151.005 211.946 150.974 211.915 150.959L211.138 150.513C211.107 150.498 211.061 150.498 211.031 150.513L210.361 150.897C210.331 150.913 210.338 150.943 210.369 150.959L211.138 151.404Z" fill="#F79420"/>
<path d="M210.654 145.314L202.618 149.945L202.579 149.922L199.549 148.171C199.027 147.872 198.696 147.142 198.804 146.551L199.942 140.668L206.64 135.261L207.978 136.037L206.847 141.92C206.732 142.511 207.063 143.233 207.586 143.54L210.654 145.314Z" fill="#455B64"/>
<path d="M202.618 149.953V151.496L198.419 149.077C197.627 148.632 197.127 147.526 197.304 146.635L198.596 139.908L199.942 140.675L198.803 146.558C198.688 147.15 199.026 147.871 199.549 148.179L202.579 149.93L202.618 149.953Z" fill="#263238"/>
<path d="M210.654 145.314L202.618 149.953V151.496L210.654 146.865V145.314Z" fill="#37474F"/>
<path d="M218.036 106.293C218.405 106.508 218.705 107.046 218.705 107.506V132.136C218.705 132.589 218.382 133.142 217.99 133.372L187.253 151.097C186.861 151.327 186.238 151.335 185.869 151.12C185.5 150.905 185.2 150.367 185.2 149.907V125.277C185.2 124.824 185.523 124.271 185.915 124.041L216.652 106.316C217.044 106.093 217.667 106.078 218.036 106.293Z" fill="#455B64"/>
<path d="M187.253 151.089C186.861 151.32 186.238 151.327 185.869 151.112C185.5 150.897 185.2 150.36 185.2 149.899V125.27C185.2 125.039 185.277 124.794 185.407 124.563L209.323 138.356L187.253 151.089Z" fill="#263238"/>
<path d="M218.705 132.128V107.499C218.705 107.046 218.382 106.861 217.99 107.084L187.253 124.809C186.861 125.039 186.538 125.592 186.538 126.045V150.675C186.538 151.128 186.861 151.312 187.253 151.089L217.99 133.364C218.382 133.134 218.705 132.581 218.705 132.128Z" fill="#37474F"/>
<path d="M216.952 108.466L187.776 125.285C187.461 125.469 187.207 125.907 187.207 126.276V148.14C187.207 148.501 187.461 148.655 187.776 148.471L216.952 131.652C217.267 131.467 217.521 131.03 217.521 130.661V108.797C217.529 108.428 217.267 108.282 216.952 108.466Z" fill="white"/>
<path d="M176.164 188.229L158.861 178.261C158.385 177.984 157.992 177.308 157.992 176.755V166.219C157.992 165.666 158.385 164.99 158.861 164.713L170.719 157.878C171.196 157.602 171.981 157.602 172.457 157.878L189.752 167.847C190.229 168.123 190.621 168.799 190.621 169.352L190.629 179.889C190.629 180.442 190.237 181.117 189.76 181.394L177.91 188.229C177.425 188.505 176.648 188.505 176.164 188.229Z" fill="#263238"/>
<path d="M177.902 175.688L189.752 168.853C190.229 168.576 190.229 168.123 189.752 167.847L172.457 157.878C171.98 157.602 171.196 157.602 170.719 157.878L158.861 164.713C158.384 164.99 158.384 165.435 158.861 165.719L176.164 175.688C176.641 175.964 177.417 175.964 177.902 175.688Z" fill="#455B64"/>
<path d="M177.033 175.895V188.436C176.718 188.436 176.402 188.36 176.164 188.229L158.869 178.261C158.385 177.976 158 177.308 158 176.755L157.992 166.211C157.992 165.75 158.277 165.213 158.654 164.882C158.408 165.151 158.477 165.489 158.861 165.712L176.164 175.688C176.402 175.826 176.71 175.895 177.033 175.895Z" fill="#37474F"/>
<path d="M163.191 165.351C163.498 165.166 164.014 165.166 164.337 165.351L176.771 172.524C177.094 172.708 177.102 173.008 176.787 173.192C176.472 173.376 175.964 173.376 175.641 173.192L163.206 166.019C162.891 165.835 162.883 165.535 163.191 165.351Z" fill="#37474F"/>
<path d="M163.191 165.351C163.498 165.166 164.014 165.166 164.337 165.351L171.911 169.721L170.789 170.381L163.214 166.011C162.891 165.835 162.883 165.535 163.191 165.351Z" fill="#F79420"/>
<path d="M165.352 164.107C165.659 163.922 166.175 163.922 166.498 164.107L178.932 171.28C179.255 171.464 179.263 171.763 178.948 171.948C178.64 172.132 178.125 172.132 177.802 171.948L165.367 164.775C165.052 164.59 165.044 164.291 165.352 164.107Z" fill="#37474F"/>
<path d="M165.352 164.107C165.659 163.922 166.175 163.922 166.498 164.107L167.513 164.69L166.39 165.351L165.375 164.767C165.052 164.59 165.044 164.291 165.352 164.107Z" fill="#F79420"/>
<path d="M167.505 162.863C167.813 162.678 168.328 162.678 168.651 162.863L181.086 170.035C181.409 170.22 181.416 170.519 181.101 170.704C180.793 170.888 180.278 170.888 179.955 170.704L167.52 163.531C167.205 163.346 167.197 163.047 167.505 162.863Z" fill="#37474F"/>
<path d="M167.505 162.863C167.813 162.678 168.328 162.678 168.651 162.863L173.049 165.397L171.927 166.057L167.528 163.523C167.205 163.346 167.197 163.047 167.505 162.863Z" fill="#F79420"/>
<path d="M169.666 161.618C169.974 161.434 170.489 161.434 170.812 161.618L183.247 168.791C183.57 168.976 183.577 169.275 183.262 169.459C182.947 169.644 182.439 169.644 182.116 169.459L169.681 162.286C169.366 162.102 169.358 161.803 169.666 161.618Z" fill="#37474F"/>
<path d="M169.666 161.618C169.973 161.434 170.489 161.434 170.812 161.618L179.717 166.756L178.594 167.417L169.689 162.279C169.366 162.102 169.358 161.803 169.666 161.618Z" fill="#F79420"/>
<path d="M171.827 160.374C172.134 160.19 172.65 160.19 172.973 160.374L185.407 167.547C185.73 167.732 185.738 168.031 185.423 168.215C185.115 168.4 184.6 168.4 184.277 168.215L171.842 161.042C171.519 160.858 171.512 160.559 171.827 160.374Z" fill="#37474F"/>
<path d="M171.827 160.374C172.134 160.19 172.65 160.19 172.973 160.374L184.177 166.833L183.054 167.493L171.85 161.035C171.519 160.858 171.511 160.559 171.827 160.374Z" fill="#F79420"/>
<path d="M178.394 184.804V182.669C178.394 182.116 178.702 181.494 179.071 181.271C179.448 181.056 179.747 181.325 179.747 181.885V184.02C179.747 184.573 179.44 185.195 179.071 185.418C178.694 185.633 178.394 185.357 178.394 184.804Z" fill="#37474F"/>
<path d="M179.102 181.594C178.855 181.74 178.648 182.085 178.648 182.369C178.648 182.653 178.848 182.776 179.102 182.63C179.348 182.484 179.555 182.139 179.555 181.855C179.555 181.571 179.355 181.448 179.102 181.594Z" fill="#F79420"/>
<path d="M180.54 183.575V181.44C180.54 180.887 180.847 180.265 181.216 180.042C181.593 179.827 181.893 180.096 181.893 180.657V182.792C181.893 183.345 181.585 183.967 181.216 184.189C180.839 184.404 180.54 184.128 180.54 183.575Z" fill="#37474F"/>
<path d="M181.216 182.822C180.97 182.968 180.763 183.314 180.763 183.598C180.763 183.882 180.963 184.005 181.216 183.859C181.462 183.713 181.67 183.368 181.67 183.083C181.67 182.799 181.462 182.684 181.216 182.822Z" fill="#F79420"/>
<path d="M220.612 209.955C220.866 210.293 220.912 211.069 221.174 212.129C221.435 213.181 221.52 214.002 221.343 214.517C221.174 215.032 220.036 216.191 218.644 216.621C217.252 217.051 215.537 216.69 213.883 215.7C212.23 214.709 210.977 213.511 208.616 212.835C206.255 212.167 205.078 211.622 203.956 210.723C202.648 209.671 201.802 208.104 204.309 207.436C206.832 206.76 211.353 207.805 216.306 208.02L220.612 209.955Z" fill="#263238"/>
<path d="M220.612 206.86V210.562C220.612 210.562 220.105 211.791 217.99 211.875C216.698 211.921 215.76 211.338 215.183 210.531V206.86H220.612Z" fill="#F7A7A8"/>
<path d="M213.53 182.63C213.507 187.238 214.822 208.488 214.822 208.488C214.822 208.488 216.706 210.869 220.805 208.488L222.197 184.911L213.53 182.63Z" fill="#37474F"/>
<path d="M209.485 217.197C209.739 217.535 209.785 218.311 210.046 219.371C210.308 220.423 210.392 221.244 210.215 221.759C210.046 222.274 208.908 223.433 207.516 223.863C206.124 224.293 204.409 223.932 202.756 222.942C201.103 221.951 199.849 220.753 197.488 220.077C195.128 219.409 193.951 218.864 192.828 217.965C191.521 216.913 190.675 215.346 193.182 214.678C195.704 214.002 200.226 215.047 205.178 215.262L209.485 217.197Z" fill="#263238"/>
<path d="M209.485 214.102V217.804C209.485 217.804 208.977 219.033 206.863 219.117C205.571 219.163 204.632 218.572 204.056 217.773V214.102H209.485Z" fill="#F7A7A8"/>
<path d="M202.402 189.872C202.379 194.48 203.694 215.73 203.694 215.73C203.694 215.73 205.578 218.111 209.677 215.73L211.069 192.153L202.402 189.872Z" fill="#37474F"/>
<path d="M216.744 233.601C216.744 233.793 216.767 233.962 216.798 234.116C216.883 234.446 217.044 234.692 217.267 234.838L217.283 234.845C217.644 235.076 218.159 235.06 218.721 234.738C219.813 234.108 220.697 232.58 220.697 231.32C220.697 230.706 220.482 230.284 220.143 230.069L220.151 230.061L220.059 230.007H220.051C219.813 229.9 219.528 229.884 219.213 229.976C219.059 230.022 218.898 230.092 218.728 230.191C217.629 230.814 216.744 232.342 216.744 233.601Z" fill="#455B64"/>
<path d="M217.283 229.354C217.598 229.178 217.898 229.086 218.159 229.086C218.367 229.086 218.552 229.139 218.713 229.239L218.767 229.27L220.043 230.007C219.805 229.9 219.52 229.884 219.205 229.976C219.051 230.022 218.89 230.092 218.721 230.191C217.629 230.821 216.744 232.349 216.744 233.609C216.744 233.801 216.767 233.97 216.798 234.124C216.883 234.454 217.044 234.7 217.267 234.845L215.96 234.093L215.937 234.085L215.829 234.016C215.822 234.008 215.806 234.008 215.798 233.993C215.499 233.77 215.314 233.348 215.314 232.78C215.306 231.512 216.191 229.984 217.283 229.354Z" fill="#263238"/>
<path d="M238.123 222.12C238.123 222.312 238.146 222.481 238.176 222.635C238.261 222.965 238.422 223.211 238.645 223.356L238.661 223.364C239.022 223.595 239.538 223.579 240.099 223.257C241.191 222.627 242.075 221.099 242.075 219.839C242.075 219.225 241.86 218.802 241.522 218.587L241.529 218.58L241.437 218.526H241.429C241.191 218.418 240.906 218.403 240.591 218.495C240.437 218.541 240.276 218.61 240.107 218.71C239.007 219.332 238.123 220.861 238.123 222.12Z" fill="#455B64"/>
<path d="M238.669 217.873C238.984 217.696 239.284 217.604 239.545 217.604C239.753 217.604 239.938 217.658 240.099 217.758L240.153 217.789L241.429 218.526C241.191 218.418 240.906 218.403 240.591 218.495C240.437 218.541 240.276 218.61 240.107 218.71C239.015 219.34 238.13 220.868 238.13 222.128C238.13 222.32 238.153 222.489 238.184 222.642C238.269 222.972 238.43 223.218 238.653 223.364L237.346 222.611L237.323 222.604L237.215 222.535C237.208 222.527 237.192 222.527 237.184 222.512C236.885 222.289 236.7 221.867 236.7 221.298C236.692 220.031 237.577 218.503 238.669 217.873Z" fill="#263238"/>
<path d="M234.308 238.086C234.308 238.278 234.285 238.447 234.255 238.601C234.17 238.931 234.009 239.177 233.786 239.323L233.77 239.33C233.409 239.561 232.893 239.538 232.332 239.223C231.24 238.593 230.356 237.065 230.356 235.805C230.356 235.191 230.571 234.769 230.909 234.554L230.902 234.546L230.994 234.492H231.002C231.24 234.385 231.525 234.369 231.84 234.461C231.994 234.507 232.155 234.577 232.324 234.669C233.424 235.299 234.308 236.827 234.308 238.086Z" fill="#455B64"/>
<path d="M233.77 233.839C233.455 233.663 233.155 233.571 232.893 233.571C232.686 233.571 232.501 233.624 232.34 233.724L232.286 233.755L231.009 234.492C231.248 234.385 231.532 234.369 231.847 234.461C232.001 234.508 232.163 234.577 232.332 234.669C233.424 235.299 234.308 236.827 234.308 238.086C234.308 238.278 234.285 238.447 234.254 238.601C234.17 238.931 234.008 239.177 233.785 239.323L235.093 238.57L235.116 238.562L235.223 238.493C235.231 238.486 235.247 238.486 235.254 238.47C235.554 238.248 235.739 237.825 235.739 237.257C235.746 235.997 234.862 234.469 233.77 233.839Z" fill="#263238"/>
<path d="M248.189 231.297C248.189 231.489 248.166 231.658 248.135 231.812C248.051 232.142 247.889 232.388 247.666 232.534L247.651 232.541C247.289 232.772 246.774 232.757 246.213 232.434C245.121 231.804 244.236 230.276 244.236 229.016C244.236 228.402 244.452 227.98 244.79 227.765L244.782 227.757L244.875 227.703H244.882C245.121 227.596 245.405 227.58 245.72 227.672C245.874 227.719 246.036 227.788 246.205 227.887C247.305 228.51 248.189 230.038 248.189 231.297Z" fill="#455B64"/>
<path d="M247.651 227.05C247.335 226.874 247.035 226.782 246.774 226.782C246.566 226.782 246.382 226.835 246.22 226.935L246.166 226.966L244.89 227.703C245.128 227.596 245.413 227.58 245.728 227.672C245.882 227.719 246.043 227.788 246.213 227.887C247.305 228.517 248.189 230.046 248.189 231.305C248.189 231.497 248.166 231.666 248.135 231.82C248.051 232.15 247.889 232.396 247.666 232.541L248.973 231.789L248.996 231.781L249.104 231.712C249.112 231.704 249.127 231.704 249.135 231.689C249.435 231.466 249.619 231.044 249.619 230.476C249.627 229.208 248.743 227.68 247.651 227.05Z" fill="#263238"/>
<path d="M221.366 222.965C221.366 223.157 221.343 223.326 221.312 223.479C221.228 223.81 221.066 224.055 220.843 224.201L220.828 224.209C220.466 224.439 219.951 224.424 219.39 224.101C218.298 223.472 217.413 221.943 217.413 220.684C217.413 220.069 217.629 219.647 217.967 219.432L217.959 219.424L218.052 219.371H218.059C218.298 219.263 218.582 219.248 218.898 219.34C219.051 219.386 219.213 219.455 219.382 219.555C220.474 220.185 221.366 221.713 221.366 222.965Z" fill="#455B64"/>
<path d="M220.82 218.725C220.505 218.549 220.205 218.457 219.943 218.457C219.736 218.457 219.551 218.51 219.39 218.61L219.336 218.641L218.059 219.378C218.298 219.271 218.582 219.255 218.898 219.348C219.051 219.394 219.213 219.463 219.382 219.563C220.474 220.192 221.358 221.721 221.358 222.98C221.358 223.172 221.335 223.341 221.305 223.495C221.22 223.825 221.058 224.071 220.835 224.217L222.143 223.464L222.166 223.456L222.273 223.387C222.281 223.379 222.297 223.379 222.304 223.364C222.604 223.141 222.789 222.719 222.789 222.151C222.796 220.883 221.912 219.355 220.82 218.725Z" fill="#263238"/>
<path d="M233.163 218.795L240.214 216.775V218.28L233.163 222.343V218.795Z" fill="#F5F5F5"/>
<path d="M233.163 218.795L232.463 218.372L239.545 216.437L240.214 216.775L233.163 218.795Z" fill="#FAFBFB"/>
<path d="M230.11 223.287L220.105 219.54V218.019L230.11 218.91V223.287Z" fill="#F5F5F5"/>
<path d="M220.105 218.019L220.836 217.827L230.702 218.464L230.11 218.91L220.105 218.019Z" fill="#FAFBFB"/>
<path d="M229.841 222.803C229.841 223.932 233.316 223.932 233.316 222.803V212.927H229.841V222.803Z" fill="#FAFBFB"/>
<path d="M232.447 220.231L234.362 232.634H233.055L231.263 220.231C231.709 220.361 232.094 220.331 232.447 220.231Z" fill="#FAFBFB"/>
<path d="M231.263 220.231V223.641L233.055 234.738V232.641L231.263 220.231Z" fill="#F5F5F5"/>
<path d="M234.362 232.641H233.055V234.738H234.362V232.641Z" fill="#EBEBEB"/>
<path d="M230.671 223.541L217.767 230.291V228.21L230.671 220.246V223.541Z" fill="#F5F5F5"/>
<path d="M230.671 220.246C230.363 220.2 230.079 220.1 229.841 219.87L216.96 227.672L217.767 228.218L230.671 220.246Z" fill="#FAFBFB"/>
<path d="M217.767 230.291V228.21L216.96 227.672V229.685L217.767 230.291Z" fill="#EBEBEB"/>
<path d="M246.935 227.911L233.147 223.195V220.1L246.935 225.829V227.911Z" fill="#F5F5F5"/>
<path d="M233.147 220.1C233.263 220.069 233.309 219.87 233.316 219.563L247.335 225.653L246.928 225.822L233.147 220.1Z" fill="#FAFBFB"/>
<path d="M247.343 225.66V227.672L246.936 227.911V225.829L247.343 225.66Z" fill="#EBEBEB"/>
<path d="M234.524 195.709H228.633V216.084C228.633 217.773 234.524 217.773 234.524 216.084V195.709Z" fill="#F1F0F0"/>
<path d="M208.885 197.537C208.885 196.485 209.446 195.517 210.354 194.987L230.971 183.099C231.878 182.577 233.001 182.577 233.916 183.099L254.533 194.987C255.441 195.509 256.002 196.485 256.002 197.537L232.44 211.122L208.885 197.537Z" fill="#F79420"/>
<path d="M208.885 197.537V199.242L230.986 211.983C231.44 212.244 231.94 212.374 232.44 212.374C232.947 212.374 233.447 212.244 233.901 211.983L256.002 199.242V197.537L233.901 210.278C233.447 210.539 232.947 210.669 232.44 210.669C231.94 210.669 231.44 210.539 230.986 210.278L208.885 197.537Z" fill="#FAFBFB"/>
<path d="M208.885 197.537V199.242L230.986 211.983C231.44 212.244 231.94 212.374 232.44 212.374V210.677C231.94 210.677 231.44 210.546 230.986 210.285L208.885 197.537Z" fill="#F5F5F5"/>
<path opacity="0.1" d="M208.885 197.537C208.885 197.076 209 196.631 209.2 196.224L231.471 209.064C232.071 209.41 232.809 209.41 233.409 209.064L255.687 196.231C255.887 196.631 256.002 197.076 256.002 197.537L232.44 211.122L208.885 197.537Z" fill="black"/>
<path d="M248.873 188.275C248.873 188.275 229.748 182.515 226.426 181.601C223.104 180.695 216.721 179.159 214.86 179.996C212.999 180.833 212.053 181.793 211.876 184.481C211.838 184.988 211.876 187.446 211.876 187.446C211.876 187.446 221.12 190.302 228.695 190.302C236.269 190.302 248.873 188.275 248.873 188.275Z" fill="#263238"/>
<path d="M232.532 155.812L233.801 162.663L240.829 163.469L239.814 154.023L232.532 155.812Z" fill="#F7A7A8"/>
<path d="M225.965 150.344C225.965 150.344 225.042 153.171 225.326 153.34C225.611 153.516 226.864 153.432 226.864 153.432L225.965 150.344Z" fill="#FBF4A4"/>
<path d="M227.78 141.29C226.572 142.565 225.419 144.692 225.926 150.091C226.48 156.004 228.249 157.579 228.995 157.924C230.11 158.439 233.901 157.533 235.131 156.626C236.677 155.49 239.576 152.664 240.337 149.185C241.229 145.084 240.091 140.43 237.092 139.493C232.87 138.164 228.802 140.215 227.78 141.29Z" fill="#F7A7A8"/>
<path d="M225.019 144.201C225.734 145.552 227.095 148.924 230.94 149.876C230.94 149.876 231.155 147.58 233.055 147.557C234.97 147.534 235.608 149.876 234.662 151.512C233.716 153.148 232.524 152.771 232.524 152.771C232.524 152.771 232.716 155.997 235.047 157.149C235.047 157.149 237.846 158.424 240.399 156.795C241.545 156.066 242.875 152.886 243.559 150.344C245.005 144.953 244.751 140.829 241.322 139.984C240.599 137.726 239.438 136.997 237.277 136.851C232.632 136.544 229.625 139.984 225.757 139.984C223.75 139.992 224.196 142.657 225.019 144.201Z" fill="#263238"/>
<path d="M241.245 140.376L243.575 139.378C243.298 138.733 242.56 138.441 241.914 138.717C241.268 138.986 240.968 139.731 241.245 140.376Z" fill="#263238"/>
<path d="M248.827 185.979C248.819 189.65 249.173 193.467 247.643 196.154C246.166 198.75 239.168 204.372 231.355 203.059C226.249 202.199 209.754 195.924 209.754 195.924C209.754 195.924 202.448 193.228 202.418 191.309C202.41 190.84 202.364 190.349 202.394 189.842C202.548 187.292 203.579 184.543 208.923 184.681C214.76 184.834 232.078 187.668 232.078 187.668L248.827 185.979Z" fill="#37474F"/>
<path d="M247.466 162.263C246.835 160.344 244.398 158.262 241.968 158.715C237.492 159.545 232.593 160.996 231.301 161.373C231.301 161.373 231.886 171.218 226.826 174.198L226.157 186.739C226.157 186.739 227.41 189.235 229.34 190.464C231.432 191.792 234.339 193.781 239.591 193.344C245.828 192.829 248.873 188.267 248.873 188.267C248.873 188.267 248.819 176.417 248.619 171.111C248.45 166.61 247.904 163.577 247.466 162.263Z" fill="#455B64"/>
<path d="M226.695 176.632C226.695 176.632 229.34 173.891 230.271 170.719C230.271 170.719 230.271 175.373 226.649 177.884L226.695 176.632Z" fill="#37474F"/>
<path d="M231.301 161.373C228.541 162.202 226.857 162.348 223.804 167.04C220.751 171.733 214.068 181.033 213.407 182.147C212.484 183.698 212.092 185.549 212.884 186.977C213.63 188.313 215.791 187.73 218.813 185.073C221.743 182.507 227.541 175.25 227.541 175.25C227.541 175.25 230.571 168.638 231.301 161.373Z" fill="#F7A7A8"/>
<path d="M231.301 161.373C231.301 161.373 228.841 161.887 227.31 162.632C226.841 162.863 225.288 163.454 224.288 165.105C222.15 168.645 219.097 173.691 219.097 173.691C219.097 173.691 218.574 178.084 223.919 179.612L226.757 176.548C227.918 175.304 228.879 173.883 229.587 172.339C230.794 169.705 232.163 165.512 231.301 161.373Z" fill="#455B64"/>
<path d="M213.807 187.638C211.253 187.33 205.524 179.489 203.617 177.001C201.71 174.513 200.111 173.031 198.388 172.086C196.665 171.141 195.174 169.651 194.704 166.656C194.266 163.861 196.873 162.079 199.011 164.89C200.364 166.672 201.733 167.801 201.802 167.501C201.872 167.202 201.379 165.965 201.395 164.667C201.41 163.108 202.502 164.137 202.825 164.683C203.148 165.228 203.533 166.119 203.979 167.255C204.525 168.645 204.302 170.058 204.963 171.011C205.624 171.963 214.529 180.48 214.529 180.48L213.807 187.638Z" fill="#F7A7A8"/>
<path d="M257.148 163.569V189.865L236.246 201.96V175.68L257.148 163.569Z" fill="#F79420"/>
<path opacity="0.1" d="M257.148 163.569V189.865L236.246 201.96V175.68L257.148 163.569Z" fill="black"/>
<path d="M234.347 200.862L236.246 201.96C236.246 201.96 236.246 181.225 236.246 177.854C236.246 176.709 236.592 176.141 237.054 175.895C238.645 174.912 240.753 176.993 240.753 176.993L240.76 175.242L260.954 163.561C259.055 162.463 257.809 161.749 253.972 163.922C250.142 166.096 238.884 172.593 237.107 173.683C235.685 174.559 234.347 175.588 234.347 177.976C234.347 182.123 234.347 200.862 234.347 200.862Z" fill="#F79420"/>
<path opacity="0.4" d="M237.107 173.691C238.861 172.554 250.142 166.096 253.972 163.93C257.801 161.757 259.055 162.479 260.954 163.569L240.76 175.25C240.076 174.49 238.699 173.668 237.107 173.691Z" fill="white"/>
<path d="M240.752 177.001L260.954 165.274V163.569L240.76 175.25L240.752 177.001Z" fill="#F79420"/>
<path opacity="0.2" d="M240.752 177.001L260.954 165.274V163.569L240.76 175.25L240.752 177.001Z" fill="black"/>
<path d="M241.052 210.331C241.368 210.331 241.683 210.247 241.967 210.086C242.537 209.755 242.883 209.164 242.883 208.504V194.711C242.883 194.196 242.467 193.774 241.944 193.774C241.429 193.774 241.006 194.188 241.006 194.711V208.435L239.522 207.574C239.076 207.313 238.499 207.467 238.245 207.92C237.984 208.365 238.138 208.941 238.592 209.195L240.145 210.086C240.429 210.247 240.745 210.331 241.052 210.331Z" fill="#E6E6E6"/>
<path d="M252.48 203.673C252.795 203.673 253.11 203.589 253.395 203.427C253.964 203.097 254.31 202.506 254.31 201.845V188.052C254.31 187.538 253.895 187.115 253.372 187.115C252.857 187.115 252.434 187.53 252.434 188.052V201.776L250.95 200.916C250.503 200.655 249.927 200.808 249.673 201.262C249.412 201.707 249.565 202.283 250.019 202.536L251.572 203.427C251.857 203.596 252.172 203.673 252.48 203.673Z" fill="#E6E6E6"/>
</svg>
