<svg width="333" height="106" viewBox="0 0 333 106" fill="none" xmlns="http://www.w3.org/2000/svg">
<path d="M329.73 7.72H322.98V2.05H327.67C328.24 2.05 328.69 1.59 328.69 1.03C328.69 0.47 328.23 0 327.67 0H109.06C108.49 0 108.04 0.46 108.04 1.02C108.04 1.58 108.5 2.04 109.06 2.04H112.16V7.71H105.95C104.25 7.71 102.88 9.08 102.88 10.78V56.17H99.54C97.9 56.17 96.51 57.24 96.01 58.71H87.07V45.66C87.07 42.91 84.84 40.68 82.09 40.68H81.08V38.59H81.47C83.53 38.59 85.21 36.92 85.21 34.85V23.72C85.21 21.66 83.54 19.98 81.47 19.98H80.72C80.05 13.11 78.7 8.01 78.63 7.73C78.27 6.39 77.05 5.46 75.67 5.46H20.36C13.46 5.46 7.12003 16.19 3.41003 34.17C1.55003 43.18 0.760026 53.73 1.06003 65.53C1.07003 65.88 1.08003 66.13 1.08003 66.26C1.08003 67.32 1.44003 68.41 1.88003 69.35C1.40003 70.26 1.08003 71.51 1.08003 73.22V95.22C1.08003 100.43 4.81003 100.7 5.56003 100.7H33.81C35.11 100.7 36.21 99.89 36.66 98.76H46.23C49.47 102.72 54.39 105.25 59.9 105.25C65.41 105.25 70.33 102.72 73.57 98.76H75.88C77.41 98.76 78.65 97.52 78.65 95.99V93.42H118.31C120.71 100.31 127.25 105.26 134.96 105.26C143.34 105.26 150.35 99.41 152.15 91.57H162V84.1H158.52C158.53 83.73 158.53 83.31 158.48 82.83L158.44 82.25L158.42 81.93H162V74.46H156.39L156.35 74.37C156.04 73.76 155.68 73.07 155.28 72.38H172.95V75.45H169.48V92.8H240.97C243.18 100.02 249.9 105.26 257.84 105.26C265.78 105.26 272.5 100.01 274.71 92.8H286.26C288.47 100.02 295.19 105.26 303.13 105.26C311.07 105.26 317.79 100.01 320 92.8H327.66V91H329.1V91.96H330.79V87.62H329.1V88.58H327.66V83.81H328.9C329.95 83.81 330.79 82.96 330.79 81.92V79.22C330.79 78.17 329.94 77.33 328.9 77.33H327.66V75.46H324.98C324.97 75.45 324.97 75.43 324.96 75.42C324.87 75.2 324.77 74.98 324.69 74.76C324.65 74.67 324.61 74.58 324.57 74.49L324.52 74.39C324.17 73.71 323.78 72.93 323.3 72.15C323.27 72.1 323.24 72.05 323.2 72C323.1 71.86 323.01 71.71 322.91 71.57C322.51 70.98 322.06 70.31 321.48 69.64C320.24 68.08 318.64 66.6 316.7 65.24C316.11 64.83 315.49 64.46 314.86 64.1H329.72C331.42 64.1 332.79 62.73 332.79 61.03V10.79C332.8 9.09 331.42 7.72 329.73 7.72ZM83.14 24.6C83.26 23.32 83.43 22.46 83.43 22.46C83.43 22.46 83.6 23.32 83.72 24.6C83.85 25.88 83.93 27.6 83.94 29.31C83.94 31.02 83.85 32.73 83.72 34.02C83.6 35.3 83.43 36.16 83.43 36.16C83.43 36.16 83.26 35.3 83.14 34.02C83.01 32.74 82.92 31.02 82.92 29.31C82.92 27.6 83.01 25.89 83.14 24.6ZM329.73 61H303.93C303.74 60.99 303.55 60.98 303.34 60.97C303.27 60.97 303.2 60.96 303.13 60.96C303.1 60.96 303.07 60.96 303.04 60.96C302.82 60.97 302.62 60.99 302.4 61H258.64C258.45 60.99 258.26 60.98 258.05 60.97C257.98 60.97 257.91 60.96 257.84 60.96C257.81 60.96 257.78 60.96 257.75 60.96C257.53 60.97 257.33 60.99 257.11 61H135.76C135.57 60.99 135.38 60.98 135.17 60.97C135.1 60.97 135.03 60.96 134.96 60.96C134.93 60.96 134.9 60.96 134.87 60.96C134.65 60.97 134.45 60.99 134.23 61H105.95V10.79H329.73V61ZM319.13 71.58C319.74 72.25 320.2 73.01 320.68 73.71C321.12 74.44 321.49 75.17 321.84 75.86C322.13 76.59 322.46 77.26 322.66 77.94C322.85 78.63 323.06 79.26 323.19 79.88C323.3 80.5 323.4 81.07 323.49 81.61C323.53 82.15 323.56 82.64 323.59 83.09C323.69 83.97 323.55 84.68 323.55 85.15C323.52 85.62 323.51 85.87 323.51 85.87C323.51 85.87 323.47 85.62 323.39 85.15C323.3 84.69 323.25 84 323.01 83.16C322.9 82.74 322.79 82.28 322.66 81.78C322.49 81.29 322.31 80.76 322.11 80.2C321.91 79.64 321.61 79.08 321.35 78.48C321.07 77.88 320.7 77.29 320.36 76.66C319.57 75.45 318.66 74.2 317.5 73.04C316.39 71.84 315 70.83 313.53 69.87C312.04 68.92 310.34 68.27 308.6 67.71C307.71 67.49 306.81 67.24 305.94 67.16C305.15 66.99 303.96 67.01 303.13 66.95C301.27 66.98 299.41 67.2 297.65 67.71C295.91 68.27 294.21 68.92 292.72 69.87C291.25 70.83 289.86 71.84 288.75 73.04C287.6 74.19 286.68 75.45 285.89 76.66C285.55 77.29 285.18 77.88 284.9 78.48C284.64 79.08 284.34 79.65 284.14 80.21C283.95 80.77 283.76 81.3 283.59 81.79C283.46 82.29 283.35 82.75 283.24 83.16C283 83.99 282.96 84.7 282.86 85.16C282.79 85.63 282.75 85.87 282.75 85.87C282.75 85.87 282.74 85.62 282.71 85.15C282.7 84.91 282.68 84.62 282.66 84.28C282.62 83.94 282.63 83.55 282.67 83.1C282.7 82.66 282.72 82.15 282.77 81.61C282.86 81.08 282.97 80.5 283.07 79.88C283.19 79.26 283.41 78.63 283.6 77.94C283.8 77.26 284.14 76.59 284.42 75.86C284.77 75.17 285.14 74.43 285.58 73.71C286.06 73.01 286.52 72.26 287.13 71.58C288.25 70.15 289.69 68.86 291.32 67.71C292.96 66.57 294.83 65.65 296.83 65C298.85 64.38 300.98 64.08 303.12 64.02C304.28 64.1 305.11 64.08 306.27 64.3C307.38 64.43 308.39 64.73 309.41 65C311.41 65.65 313.29 66.57 314.93 67.71C316.57 68.86 318.01 70.15 319.13 71.58ZM303.74 84.63C303.32 84.67 303.14 84.78 303.13 84.77C303.13 84.77 303.18 84.79 303.28 84.83C303.38 84.86 303.51 84.95 303.66 85.02C303.81 85.11 303.98 85.23 304.15 85.38C303.84 85.24 303.49 85.15 303.13 85.15C301.78 85.15 300.68 86.25 300.68 87.6C300.68 87.96 300.76 88.3 300.9 88.61C300.76 88.45 300.64 88.28 300.55 88.13C300.37 87.82 300.29 87.6 300.29 87.6C300.29 87.6 300.27 87.65 300.24 87.75C300.21 87.85 300.16 88 300.15 88.21C300.12 88.52 300.16 88.97 300.37 89.46C300.01 88.93 299.8 88.29 299.8 87.6C299.8 85.76 301.29 84.27 303.13 84.27C303.83 84.27 304.47 84.48 305 84.85C304.51 84.64 304.05 84.61 303.74 84.63ZM303.7 82.93C300.8 82.93 298.46 85.28 298.46 88.17C298.46 89.55 299 90.79 299.87 91.73C298.65 90.76 297.85 89.28 297.85 87.61C297.85 84.69 300.22 82.33 303.13 82.33C304.81 82.33 306.29 83.13 307.25 84.35C306.32 83.47 305.08 82.93 303.7 82.93ZM258.46 84.63C258.04 84.67 257.86 84.78 257.85 84.77C257.85 84.77 257.9 84.79 258 84.83C258.1 84.86 258.23 84.95 258.38 85.02C258.53 85.11 258.7 85.23 258.87 85.38C258.56 85.24 258.21 85.15 257.85 85.15C256.5 85.15 255.4 86.25 255.4 87.6C255.4 87.96 255.48 88.3 255.62 88.61C255.48 88.45 255.36 88.28 255.27 88.13C255.09 87.82 255.01 87.6 255.01 87.6C255.01 87.6 254.99 87.65 254.96 87.75C254.93 87.85 254.88 88 254.87 88.21C254.84 88.52 254.88 88.97 255.09 89.46C254.73 88.93 254.52 88.29 254.52 87.6C254.52 85.76 256.01 84.27 257.85 84.27C258.55 84.27 259.19 84.48 259.72 84.85C259.23 84.64 258.77 84.61 258.46 84.63ZM258.41 82.93C255.51 82.93 253.17 85.28 253.17 88.17C253.17 89.55 253.71 90.79 254.58 91.73C253.36 90.76 252.56 89.28 252.56 87.61C252.56 84.69 254.93 82.33 257.84 82.33C259.52 82.33 261 83.13 261.96 84.35C261.04 83.47 259.79 82.93 258.41 82.93ZM191.34 75.44V72.37H237.54C237.13 73.07 236.77 73.75 236.46 74.36L236.41 74.47C236.37 74.56 236.32 74.65 236.29 74.74C236.2 74.97 236.11 75.18 236.02 75.4C236.01 75.41 236.01 75.43 236 75.44H191.34ZM223.64 78.22C223.64 78.22 223.63 78.88 223.47 79.82C223.32 80.77 223.04 82.01 222.68 83.22C222.31 84.43 221.86 85.62 221.45 86.49C221.05 87.36 220.7 87.92 220.7 87.92C220.7 87.92 220.71 87.26 220.87 86.32C221.02 85.37 221.3 84.13 221.66 82.92C222.03 81.71 222.48 80.52 222.88 79.65C223.28 78.78 223.64 78.22 223.64 78.22ZM214.56 78.22C214.56 78.22 214.55 78.88 214.39 79.82C214.24 80.77 213.96 82.01 213.6 83.22C213.23 84.43 212.78 85.62 212.37 86.49C211.97 87.36 211.62 87.92 211.62 87.92C211.62 87.92 211.63 87.26 211.79 86.32C211.94 85.37 212.22 84.13 212.58 82.92C212.95 81.71 213.4 80.52 213.8 79.65C214.2 78.78 214.56 78.22 214.56 78.22ZM205.47 78.22C205.47 78.22 205.46 78.88 205.3 79.82C205.15 80.77 204.87 82.01 204.51 83.22C204.14 84.43 203.69 85.62 203.28 86.49C202.88 87.36 202.53 87.92 202.53 87.92C202.53 87.92 202.54 87.26 202.7 86.32C202.85 85.37 203.13 84.13 203.49 82.92C203.86 81.71 204.31 80.52 204.71 79.65C205.12 78.78 205.47 78.22 205.47 78.22ZM196.39 78.22C196.39 78.22 196.38 78.88 196.22 79.82C196.07 80.77 195.79 82.01 195.43 83.22C195.06 84.43 194.61 85.62 194.2 86.49C193.8 87.36 193.45 87.92 193.45 87.92C193.45 87.92 193.46 87.26 193.62 86.32C193.77 85.37 194.05 84.13 194.41 82.92C194.78 81.71 195.23 80.52 195.63 79.65C196.04 78.78 196.39 78.22 196.39 78.22ZM184.54 86.32C184.69 85.37 184.97 84.13 185.33 82.92C185.7 81.71 186.15 80.52 186.55 79.65C186.95 78.78 187.3 78.22 187.3 78.22C187.3 78.22 187.29 78.88 187.13 79.82C186.98 80.77 186.7 82.01 186.34 83.22C185.97 84.43 185.52 85.62 185.11 86.49C184.71 87.36 184.36 87.92 184.36 87.92C184.36 87.92 184.39 87.26 184.54 86.32ZM152.51 73.71C152.95 74.44 153.32 75.17 153.67 75.86C153.96 76.59 154.29 77.26 154.49 77.94C154.68 78.63 154.89 79.26 155.02 79.88C155.13 80.5 155.23 81.07 155.32 81.61C155.36 82.15 155.39 82.64 155.42 83.09C155.52 83.97 155.38 84.68 155.38 85.15C155.35 85.62 155.34 85.87 155.34 85.87C155.34 85.87 155.3 85.62 155.22 85.15C155.13 84.69 155.08 84 154.84 83.16C154.73 82.74 154.62 82.28 154.49 81.78C154.32 81.29 154.14 80.76 153.94 80.2C153.74 79.64 153.44 79.08 153.18 78.48C152.9 77.88 152.53 77.29 152.19 76.66C151.4 75.45 150.49 74.2 149.33 73.04C148.22 71.84 146.83 70.83 145.36 69.87C143.87 68.92 142.17 68.27 140.43 67.71C139.54 67.49 138.64 67.24 137.77 67.16C136.98 66.99 135.79 67.01 134.96 66.95C133.1 66.98 131.24 67.2 129.48 67.71C127.74 68.27 126.04 68.92 124.55 69.87C123.08 70.83 121.69 71.84 120.58 73.04C119.43 74.19 118.51 75.45 117.72 76.66C117.38 77.29 117.01 77.88 116.73 78.48C116.47 79.08 116.17 79.65 115.97 80.21C115.78 80.77 115.59 81.3 115.42 81.79C115.29 82.29 115.18 82.75 115.07 83.16C114.83 83.99 114.79 84.7 114.69 85.16C114.62 85.63 114.58 85.87 114.58 85.87C114.58 85.87 114.57 85.62 114.54 85.15C114.53 84.91 114.51 84.62 114.49 84.28C114.45 83.94 114.46 83.55 114.5 83.1C114.53 82.66 114.55 82.15 114.6 81.61C114.69 81.08 114.8 80.5 114.9 79.88C115.02 79.26 115.24 78.63 115.43 77.94C115.63 77.26 115.97 76.59 116.25 75.86C116.6 75.17 116.97 74.43 117.41 73.71C117.89 73.01 118.35 72.26 118.96 71.58C120.08 70.15 121.52 68.86 123.15 67.71C124.79 66.57 126.66 65.65 128.66 65C130.68 64.38 132.81 64.08 134.95 64.02C136.11 64.1 136.94 64.08 138.1 64.3C139.21 64.43 140.22 64.73 141.24 65C143.24 65.65 145.12 66.57 146.76 67.71C148.39 68.86 149.83 70.15 150.95 71.58C151.57 72.26 152.03 73.01 152.51 73.71ZM134.96 84.28C135.66 84.28 136.3 84.49 136.83 84.86C136.34 84.65 135.88 84.61 135.57 84.64C135.15 84.68 134.97 84.79 134.96 84.78C134.96 84.78 135.01 84.8 135.11 84.84C135.21 84.87 135.34 84.96 135.49 85.03C135.64 85.12 135.81 85.24 135.98 85.39C135.67 85.25 135.32 85.16 134.96 85.16C133.61 85.16 132.51 86.26 132.51 87.61C132.51 87.97 132.59 88.31 132.73 88.62C132.59 88.46 132.47 88.29 132.38 88.14C132.2 87.83 132.12 87.61 132.12 87.61C132.12 87.61 132.1 87.66 132.07 87.76C132.04 87.86 131.99 88.01 131.98 88.22C131.95 88.53 131.99 88.98 132.2 89.47C131.84 88.94 131.63 88.3 131.63 87.61C131.63 85.77 133.12 84.28 134.96 84.28ZM139.08 84.34C138.14 83.47 136.9 82.93 135.52 82.93C132.62 82.93 130.28 85.28 130.28 88.17C130.28 89.55 130.82 90.79 131.69 91.73C130.47 90.76 129.67 89.28 129.67 87.61C129.67 84.69 132.04 82.33 134.95 82.33C136.64 82.32 138.12 83.12 139.08 84.34ZM106.03 70.97C105.37 71.01 104.43 71.11 103.3 71.16C101.04 71.29 98.03 71.37 95.02 71.38C92.01 71.38 89 71.29 86.74 71.16C85.61 71.1 84.67 71.01 84.01 70.97C83.35 70.92 82.98 70.87 82.98 70.87C82.98 70.87 83.36 70.83 84.01 70.77C84.67 70.73 85.61 70.63 86.74 70.58C89 70.45 92.01 70.36 95.02 70.36C98.03 70.36 101.04 70.45 103.3 70.58C104.43 70.64 105.37 70.73 106.03 70.77C106.69 70.82 107.06 70.87 107.06 70.87C107.06 70.87 106.69 70.92 106.03 70.97ZM83.09 88.36C83.82 88.32 84.86 88.22 86.11 88.17C87.36 88.13 88.82 88.04 90.38 88.01C91.94 87.97 93.61 87.96 95.28 87.95C96.95 87.96 98.61 87.97 100.18 88.01C101.74 88.04 103.2 88.13 104.45 88.17C105.7 88.22 106.74 88.32 107.47 88.36C108.2 88.41 108.62 88.46 108.62 88.46C108.62 88.46 108.2 88.51 107.47 88.56C106.74 88.6 105.7 88.7 104.45 88.75C103.2 88.79 101.74 88.88 100.18 88.91C98.62 88.95 96.95 88.96 95.28 88.97C93.61 88.96 91.95 88.95 90.38 88.91C88.82 88.88 87.36 88.79 86.11 88.75C84.86 88.7 83.82 88.6 83.09 88.56C82.36 88.51 81.94 88.46 81.94 88.46C81.94 88.46 82.37 88.42 83.09 88.36ZM278.22 85.86C278.22 85.86 278.18 85.61 278.1 85.14C278.01 84.68 277.96 83.99 277.72 83.15C277.61 82.73 277.5 82.27 277.37 81.77C277.2 81.28 277.02 80.75 276.82 80.19C276.62 79.63 276.32 79.07 276.06 78.47C275.78 77.87 275.41 77.28 275.07 76.65C274.28 75.44 273.37 74.19 272.21 73.03C271.1 71.83 269.71 70.82 268.24 69.86C266.75 68.91 265.05 68.26 263.31 67.7C262.42 67.48 261.52 67.23 260.65 67.15C259.86 66.98 258.67 67 257.84 66.94C255.98 66.97 254.12 67.19 252.36 67.7C250.62 68.26 248.92 68.91 247.43 69.86C245.96 70.82 244.57 71.83 243.46 73.03C242.31 74.18 241.39 75.44 240.6 76.65C240.26 77.28 239.89 77.87 239.61 78.47C239.35 79.07 239.05 79.64 238.85 80.2C238.66 80.76 238.47 81.29 238.3 81.78C238.17 82.28 238.06 82.74 237.95 83.15C237.71 83.98 237.67 84.69 237.57 85.15C237.5 85.62 237.46 85.86 237.46 85.86C237.46 85.86 237.45 85.61 237.42 85.14C237.41 84.9 237.39 84.61 237.37 84.27C237.33 83.93 237.34 83.54 237.38 83.09C237.41 82.65 237.43 82.14 237.48 81.6C237.57 81.07 237.68 80.49 237.78 79.87C237.9 79.25 238.12 78.62 238.31 77.93C238.51 77.25 238.85 76.58 239.13 75.85C239.48 75.16 239.85 74.42 240.29 73.7C240.77 73 241.23 72.25 241.84 71.57C242.96 70.14 244.4 68.85 246.03 67.7C247.67 66.56 249.54 65.64 251.54 64.99C253.56 64.37 255.69 64.07 257.83 64.01C258.99 64.09 259.82 64.07 260.98 64.29C262.09 64.42 263.1 64.72 264.12 64.99C266.12 65.64 268 66.56 269.64 67.7C271.27 68.85 272.71 70.14 273.83 71.57C274.44 72.24 274.9 73 275.38 73.7C275.82 74.43 276.19 75.16 276.54 75.85C276.83 76.58 277.16 77.25 277.36 77.93C277.55 78.62 277.76 79.25 277.89 79.87C278 80.49 278.1 81.06 278.19 81.6C278.23 82.14 278.26 82.63 278.29 83.08C278.39 83.96 278.25 84.67 278.25 85.14C278.24 85.61 278.22 85.86 278.22 85.86ZM119.03 85.49C119.06 85.01 119.1 84.45 119.24 83.87C119.3 83.58 119.36 83.27 119.43 82.95C119.53 82.64 119.63 82.32 119.74 82C119.92 81.33 120.27 80.69 120.57 80C120.96 79.36 121.3 78.65 121.8 78.03C122.25 77.37 122.81 76.79 123.34 76.19C123.94 75.65 124.52 75.09 125.18 74.65C125.8 74.15 126.51 73.81 127.15 73.42C127.84 73.12 128.49 72.77 129.15 72.59C129.48 72.48 129.8 72.38 130.1 72.28C130.42 72.22 130.72 72.15 131.02 72.09C131.6 71.95 132.15 71.91 132.63 71.88C133.11 71.83 133.53 71.82 133.88 71.84C134.57 71.86 134.96 71.89 134.96 71.89C134.96 71.89 134.57 71.96 133.89 72.04C133.55 72.07 133.14 72.14 132.69 72.26C132.23 72.36 131.71 72.47 131.17 72.66C130.9 72.75 130.61 72.84 130.32 72.93C130.03 73.05 129.74 73.17 129.44 73.3C128.82 73.52 128.24 73.9 127.59 74.21C126.99 74.6 126.36 74.97 125.78 75.44C125.17 75.87 124.63 76.41 124.07 76.91C123.56 77.47 123.02 78 122.59 78.62C122.11 79.2 121.75 79.84 121.36 80.43C121.06 81.07 120.67 81.66 120.45 82.28C120.32 82.58 120.2 82.88 120.08 83.16C119.99 83.46 119.9 83.74 119.81 84.01C119.62 84.56 119.51 85.07 119.41 85.53C119.29 85.98 119.22 86.4 119.19 86.74C119.1 87.42 119.04 87.81 119.04 87.81C119.04 87.81 119.01 87.42 119 86.73C118.97 86.39 118.98 85.98 119.03 85.49ZM149.73 66.11C149.34 65.81 148.95 65.5 148.53 65.21C148.19 64.97 147.83 64.75 147.47 64.54V64.08H246.11C245.48 64.43 244.87 64.8 244.29 65.21C243.87 65.51 243.47 65.81 243.08 66.12H149.73V66.11ZM241.92 85.49C241.95 85.01 241.99 84.45 242.13 83.87C242.19 83.58 242.25 83.27 242.32 82.95C242.42 82.64 242.52 82.32 242.63 82C242.81 81.33 243.16 80.69 243.46 80C243.85 79.36 244.19 78.65 244.69 78.03C245.14 77.37 245.7 76.79 246.23 76.19C246.83 75.65 247.41 75.09 248.07 74.65C248.69 74.15 249.4 73.81 250.04 73.42C250.73 73.12 251.38 72.77 252.04 72.59C252.37 72.48 252.69 72.38 252.99 72.28C253.31 72.22 253.61 72.15 253.91 72.09C254.49 71.95 255.04 71.91 255.52 71.88C256 71.83 256.42 71.82 256.77 71.84C257.46 71.86 257.85 71.89 257.85 71.89C257.85 71.89 257.46 71.96 256.78 72.04C256.44 72.07 256.03 72.14 255.58 72.26C255.12 72.36 254.6 72.47 254.06 72.66C253.79 72.75 253.5 72.84 253.21 72.93C252.92 73.05 252.63 73.17 252.33 73.3C251.71 73.52 251.13 73.9 250.48 74.21C249.88 74.6 249.25 74.97 248.67 75.44C248.06 75.87 247.52 76.41 246.96 76.91C246.45 77.47 245.91 78 245.48 78.62C245 79.2 244.64 79.84 244.25 80.43C243.95 81.07 243.56 81.66 243.34 82.28C243.21 82.58 243.09 82.88 242.97 83.16C242.88 83.46 242.79 83.74 242.7 84.01C242.51 84.56 242.4 85.07 242.3 85.53C242.18 85.98 242.11 86.4 242.08 86.74C241.99 87.42 241.93 87.81 241.93 87.81C241.93 87.81 241.9 87.42 241.89 86.73C241.85 86.39 241.87 85.98 241.92 85.49ZM287.2 85.49C287.23 85.01 287.27 84.45 287.41 83.87C287.47 83.58 287.53 83.27 287.6 82.95C287.7 82.64 287.8 82.32 287.91 82C288.09 81.33 288.44 80.69 288.74 80C289.13 79.36 289.47 78.65 289.97 78.03C290.42 77.37 290.98 76.79 291.51 76.19C292.11 75.65 292.69 75.09 293.35 74.65C293.97 74.15 294.68 73.81 295.32 73.42C296.01 73.12 296.66 72.77 297.32 72.59C297.65 72.48 297.97 72.38 298.27 72.28C298.59 72.22 298.89 72.15 299.19 72.09C299.77 71.95 300.32 71.91 300.8 71.88C301.28 71.83 301.7 71.82 302.05 71.84C302.74 71.86 303.13 71.89 303.13 71.89C303.13 71.89 302.74 71.96 302.06 72.04C301.72 72.07 301.31 72.14 300.86 72.26C300.4 72.36 299.88 72.47 299.34 72.66C299.07 72.75 298.78 72.84 298.49 72.93C298.2 73.05 297.91 73.17 297.61 73.3C296.99 73.52 296.41 73.9 295.76 74.21C295.16 74.6 294.53 74.97 293.95 75.44C293.34 75.87 292.8 76.41 292.24 76.91C291.73 77.47 291.19 78 290.76 78.62C290.28 79.2 289.92 79.84 289.53 80.43C289.23 81.07 288.84 81.66 288.62 82.28C288.49 82.58 288.37 82.88 288.25 83.16C288.16 83.46 288.07 83.74 287.98 84.01C287.79 84.56 287.68 85.07 287.58 85.53C287.46 85.98 287.39 86.4 287.36 86.74C287.27 87.42 287.21 87.81 287.21 87.81C287.21 87.81 287.18 87.42 287.17 86.73C287.14 86.39 287.15 85.98 287.2 85.49ZM231.27 5.73C230.45 5.77 229.29 5.87 227.89 5.92C226.49 5.96 224.86 6.05 223.11 6.08C221.66 6.12 220.13 6.13 218.59 6.13V5.12C220.13 5.13 221.66 5.14 223.11 5.17C224.86 5.2 226.49 5.29 227.89 5.33C229.29 5.38 230.46 5.48 231.27 5.52C232.09 5.58 232.55 5.62 232.55 5.62C232.55 5.62 232.09 5.66 231.27 5.73ZM216.54 6.13C215.04 6.12 213.55 6.11 212.14 6.08C210.39 6.05 208.76 5.96 207.36 5.92C205.96 5.87 204.79 5.77 203.98 5.73C203.16 5.67 202.7 5.63 202.7 5.63C202.7 5.63 203.17 5.59 203.98 5.53C204.8 5.49 205.96 5.39 207.36 5.34C208.76 5.3 210.39 5.21 212.14 5.18C213.55 5.15 215.04 5.13 216.54 5.13V6.13ZM296.78 5.73C295.96 5.77 294.8 5.87 293.4 5.92C292 5.96 290.37 6.05 288.62 6.08C288.48 6.08 288.33 6.08 288.19 6.09V5.17C288.33 5.17 288.48 5.17 288.62 5.18C290.37 5.21 292 5.3 293.4 5.34C294.8 5.39 295.97 5.49 296.78 5.53C297.6 5.59 298.06 5.63 298.06 5.63C298.06 5.63 297.6 5.66 296.78 5.73ZM286.13 6.12C285.14 6.13 284.13 6.14 283.12 6.14C281.25 6.13 279.39 6.12 277.64 6.08C275.89 6.05 274.26 5.96 272.86 5.92C271.46 5.87 270.29 5.77 269.48 5.73C268.66 5.67 268.2 5.63 268.2 5.63C268.2 5.63 268.67 5.59 269.48 5.53C270.3 5.49 271.46 5.39 272.86 5.34C274.26 5.3 275.89 5.21 277.64 5.18C279.39 5.14 281.26 5.13 283.12 5.12C284.13 5.13 285.13 5.13 286.13 5.14V6.12ZM266.76 3.72C264.35 3.72 262.35 5.44 261.91 7.72H253.38V2.05H286.13V3.72H266.76ZM251.34 7.72H237.6C237.16 5.44 235.15 3.72 232.75 3.72H218.6V2.05H251.35V7.72H251.34ZM216.54 3.72H202.39C199.98 3.72 197.98 5.44 197.54 7.72H183.8V2.05H216.55V3.72H216.54ZM181.75 7.72H173.22C172.78 5.44 170.77 3.72 168.37 3.72H149V2.05H181.75V7.72ZM152.12 5.12C153.99 5.13 155.85 5.14 157.6 5.18C159.35 5.21 160.98 5.3 162.38 5.34C163.78 5.39 164.95 5.49 165.76 5.53C166.58 5.59 167.04 5.63 167.04 5.63C167.04 5.63 166.57 5.67 165.76 5.73C164.94 5.77 163.78 5.87 162.38 5.92C160.98 5.96 159.35 6.05 157.6 6.08C155.85 6.12 153.98 6.13 152.12 6.14C151.07 6.13 150.03 6.13 149 6.12V5.14C150.03 5.13 151.07 5.12 152.12 5.12ZM146.95 6.08C146.85 6.08 146.74 6.08 146.63 6.07C144.88 6.04 143.25 5.95 141.85 5.91C140.45 5.86 139.28 5.76 138.47 5.72C137.65 5.66 137.19 5.62 137.19 5.62C137.19 5.62 137.66 5.58 138.47 5.52C139.29 5.48 140.45 5.38 141.85 5.33C143.25 5.29 144.88 5.2 146.63 5.17C146.73 5.17 146.84 5.17 146.95 5.16V6.08ZM320.93 7.72H301.97C301.53 5.44 299.52 3.72 297.12 3.72H288.18V2.05H320.93V7.72ZM114.2 2.05H146.95V3.72H138.01C135.6 3.72 133.6 5.44 133.16 7.72H114.2V2.05ZM96.88 68.06C98.93 68.07 100.97 68.08 102.89 68.12C104.81 68.15 106.6 68.24 108.13 68.28C109.67 68.33 110.94 68.43 111.84 68.47C112.74 68.53 113.25 68.57 113.25 68.57C113.25 68.57 112.74 68.61 111.84 68.67C110.94 68.71 109.67 68.81 108.13 68.86C106.59 68.9 104.8 68.99 102.89 69.02C100.97 69.06 98.92 69.07 96.88 69.08C94.83 69.07 92.79 69.06 90.87 69.02C88.95 68.99 87.16 68.9 85.63 68.86C84.09 68.81 82.82 68.71 81.92 68.67C81.02 68.61 80.51 68.57 80.51 68.57C80.51 68.57 81.02 68.53 81.92 68.47C82.82 68.43 84.09 68.33 85.63 68.28C87.17 68.24 88.96 68.15 90.87 68.12C92.79 68.08 94.84 68.07 96.88 68.06ZM60.51 84.63C60.09 84.67 59.91 84.78 59.9 84.77C59.9 84.77 59.95 84.79 60.05 84.83C60.15 84.86 60.28 84.95 60.43 85.02C60.58 85.11 60.75 85.23 60.92 85.38C60.61 85.24 60.26 85.15 59.9 85.15C58.55 85.15 57.45 86.25 57.45 87.6C57.45 87.96 57.53 88.3 57.67 88.61C57.53 88.45 57.41 88.28 57.32 88.13C57.14 87.82 57.06 87.6 57.06 87.6C57.06 87.6 57.04 87.65 57.01 87.75C56.98 87.85 56.93 88 56.92 88.21C56.89 88.52 56.93 88.97 57.14 89.46C56.78 88.93 56.57 88.29 56.57 87.6C56.57 85.76 58.06 84.27 59.9 84.27C60.6 84.27 61.24 84.48 61.77 84.85C61.28 84.64 60.82 84.61 60.51 84.63ZM60.47 82.93C57.57 82.93 55.23 85.28 55.23 88.17C55.23 89.55 55.77 90.79 56.64 91.73C55.42 90.76 54.62 89.28 54.62 87.61C54.62 84.69 56.99 82.33 59.9 82.33C61.58 82.33 63.06 83.13 64.02 84.35C63.09 83.47 61.84 82.93 60.47 82.93ZM78 62.22C78 62.22 56.19 62.22 47.73 62.22C40.28 62.22 35.16 64.05 34.04 68.72H32.41C33.29 59.89 43.52 59.75 43.97 59.75H44.99V42.79L76.47 41.79L44.99 40.79V20.98L76.47 19.98L44.99 18.98V17.9H77.38C77.74 20.7 78 23.9 78 27.24C78 37.21 78 62.22 78 62.22ZM5.74003 38.48C5.74003 38.48 5.71003 37.17 5.96003 35.27C6.08003 34.32 6.27003 33.22 6.52003 32.05C6.77003 30.88 7.08003 29.65 7.44003 28.44C7.80003 27.22 8.22003 26.02 8.65003 24.91C9.08003 23.8 9.52003 22.77 9.94003 21.91C10.76 20.18 11.49 19.09 11.49 19.09C11.49 19.09 11.41 20.4 11.05 22.27C10.88 23.21 10.65 24.29 10.36 25.44C10.08 26.59 9.76003 27.81 9.39003 29.01C9.03003 30.22 8.63003 31.41 8.24003 32.53C7.85003 33.65 7.45003 34.68 7.08003 35.56C6.37003 37.33 5.74003 38.48 5.74003 38.48ZM30.62 67.05L11.3 68.06L24.03 68.73H8.45003V42.81H42.95V57.76C40.11 58.04 32.24 59.49 30.62 67.05ZM42.64 29.04C42.64 31.66 42.55 34.28 42.42 36.25C42.36 37.23 42.27 38.05 42.23 38.63C42.18 39.2 42.13 39.53 42.13 39.53C42.13 39.53 42.09 39.2 42.03 38.63C41.99 38.06 41.89 37.24 41.84 36.25C41.71 34.28 41.62 31.66 41.62 29.04C41.62 26.42 41.71 23.8 41.84 21.83C41.9 20.85 41.99 20.03 42.03 19.45C42.08 18.88 42.13 18.55 42.13 18.55C42.13 18.55 42.18 18.88 42.23 19.45C42.27 20.02 42.37 20.84 42.42 21.83C42.56 23.79 42.64 26.42 42.64 29.04ZM17.59 19.55H29.29C29.99 19.55 30.55 20.12 30.55 20.81V37.76C30.55 37.85 30.52 37.93 30.5 38.01L29.6 21.04L28.64 39.02H17.59V19.55ZM14.48 20.48C14.61 19.98 15.04 19.64 15.54 19.57V39.02H11.11C10.28 39.02 9.67003 38.23 9.89003 37.43L14.48 20.48ZM5.11003 42.81H6.40003V68.72H5.02003C4.59003 67.98 4.15003 67.03 4.15003 66.26C4.15003 66.21 4.15003 66.15 4.15003 66.07H4.79003C5.31003 66.07 5.74003 65.65 5.74003 65.12V60.11C5.74003 59.59 5.32003 59.16 4.79003 59.16H4.07003C4.08003 58.41 4.09003 57.61 4.11003 56.77H4.79003C5.31003 56.77 5.74003 56.35 5.74003 55.82V50.81C5.74003 50.29 5.32003 49.86 4.79003 49.86H4.43003C4.59003 47.62 4.81003 45.24 5.11003 42.81ZM33.81 70.78C33.81 72.87 33.81 76.59 33.81 80.61L4.97003 82.06L33.81 83.52C33.81 86.31 33.81 89.08 33.81 91.42L4.97003 92.89L27.39 94.03H4.15003C4.15003 89.84 4.15003 76.24 4.15003 73.23C4.15003 72.02 4.36003 71.26 4.62003 70.78H33.81C33.81 70.77 33.81 70.77 33.81 70.78ZM76.33 11.49C76.45 12.08 76.58 12.74 76.71 13.46L14.76 14.96L51.65 15.86H45H12.84C13.22 15.03 13.61 14.28 13.99 13.62C16.33 10.05 18.61 8.53 20.36 8.53C29.57 8.53 75.65 8.53 75.65 8.53C75.65 8.53 75.74 8.88 75.89 9.49L20.45 10.48L76.33 11.49ZM71.9 67.57C72.58 67.62 72.96 67.67 72.96 67.67C72.96 67.67 72.57 67.72 71.9 67.77C71.22 67.81 70.26 67.91 69.09 67.96C66.77 68.09 63.67 68.17 60.57 68.18C57.47 68.18 54.38 68.09 52.05 67.96C50.89 67.9 49.92 67.81 49.24 67.77C48.56 67.72 48.18 67.67 48.18 67.67C48.18 67.67 48.57 67.63 49.24 67.57C49.92 67.53 50.88 67.43 52.05 67.38C54.37 67.25 57.47 67.16 60.57 67.16C63.67 67.16 66.76 67.25 69.09 67.38C70.25 67.44 71.22 67.53 71.9 67.57ZM43.97 85.49C44 85.01 44.04 84.45 44.18 83.87C44.24 83.58 44.3 83.27 44.37 82.95C44.47 82.64 44.57 82.32 44.68 82C44.86 81.33 45.21 80.69 45.51 80C45.9 79.36 46.24 78.65 46.74 78.03C47.19 77.37 47.75 76.79 48.28 76.19C48.88 75.65 49.46 75.09 50.12 74.65C50.74 74.15 51.45 73.81 52.09 73.42C52.78 73.12 53.43 72.77 54.09 72.59C54.42 72.48 54.74 72.38 55.04 72.28C55.36 72.22 55.66 72.15 55.96 72.09C56.54 71.95 57.09 71.91 57.57 71.88C58.05 71.83 58.47 71.82 58.82 71.84C59.51 71.86 59.9 71.89 59.9 71.89C59.9 71.89 59.51 71.96 58.83 72.04C58.49 72.07 58.08 72.14 57.63 72.26C57.17 72.36 56.65 72.47 56.11 72.66C55.84 72.75 55.55 72.84 55.26 72.93C54.97 73.05 54.68 73.17 54.38 73.3C53.76 73.52 53.18 73.9 52.53 74.21C51.93 74.6 51.3 74.97 50.72 75.44C50.11 75.87 49.57 76.41 49.01 76.91C48.5 77.47 47.96 78 47.53 78.62C47.05 79.2 46.69 79.84 46.3 80.43C46 81.07 45.61 81.66 45.39 82.28C45.26 82.58 45.14 82.88 45.02 83.16C44.93 83.46 44.84 83.74 44.75 84.01C44.56 84.56 44.45 85.07 44.35 85.53C44.23 85.98 44.16 86.4 44.13 86.74C44.04 87.42 43.98 87.81 43.98 87.81C43.98 87.81 43.95 87.42 43.94 86.73C43.91 86.39 43.92 85.98 43.97 85.49ZM84.69 47.77C84.75 46.94 84.84 46.25 84.88 45.77C84.93 45.29 84.98 45.01 84.98 45.01C84.98 45.01 85.03 45.29 85.08 45.77C85.12 46.25 85.22 46.95 85.27 47.77C85.4 49.43 85.48 51.64 85.49 53.85C85.49 56.06 85.4 58.27 85.27 59.93C85.21 60.76 85.12 61.45 85.08 61.93C85.03 62.41 84.98 62.69 84.98 62.69C84.98 62.69 84.94 62.41 84.88 61.93C84.84 61.45 84.74 60.75 84.69 59.93C84.56 58.27 84.47 56.06 84.47 53.85C84.48 51.64 84.56 49.43 84.69 47.77ZM38.2 69.54C37.2 71.23 37.5 73.35 37.43 75.34C37.41 79.34 37.32 83.07 37.27 86.26C37.22 89.46 37.12 92.12 37.08 93.99C37.02 95.85 36.98 96.92 36.98 96.92C36.98 96.92 36.94 95.85 36.88 93.99C36.84 92.13 36.74 89.46 36.69 86.26C36.65 83.06 36.55 79.33 36.53 75.34C36.53 74.33 36.5 73.35 36.54 72.27C36.54 71.77 36.64 71.21 36.75 70.65C36.91 70.11 37.08 69.58 37.36 69.08C38.45 67.04 40.6 65.83 42.69 65.26C44.82 64.65 47 64.53 49.12 64.49C51.22 64.5 53.29 64.51 55.29 64.52C59.29 64.54 63.02 64.63 66.21 64.68C69.41 64.73 72.07 64.83 73.94 64.87C75.8 64.93 76.87 64.97 76.87 64.97C76.87 64.97 75.8 65.01 73.94 65.07C72.08 65.11 69.41 65.21 66.21 65.26C63.01 65.3 59.28 65.4 55.29 65.42C53.29 65.43 51.23 65.45 49.13 65.46C47.07 65.51 44.95 65.66 42.97 66.25C41 66.77 39.14 67.84 38.2 69.54ZM59.9 99.31C54.64 99.31 50.2 95.85 48.72 91.08C50.46 94.94 54.33 97.63 58.83 97.63C59.56 97.63 60.27 97.55 60.97 97.42C60.35 97.48 59.72 97.49 59.13 97.43C56.36 97.2 54.1 95.73 52.72 94.11C52.02 93.3 51.51 92.45 51.2 91.64C50.86 90.85 50.7 90.11 50.58 89.51C50.5 88.9 50.47 88.42 50.48 88.09C50.48 87.76 50.48 87.59 50.48 87.59C50.48 87.59 50.5 87.76 50.53 88.09C50.54 88.41 50.65 88.88 50.77 89.47C50.93 90.05 51.15 90.75 51.54 91.48C51.91 92.22 52.46 92.99 53.14 93.72C53.83 94.45 54.71 95.12 55.74 95.62C56.77 96.12 57.95 96.44 59.17 96.52C60.43 96.61 61.7 96.42 62.92 95.98C64.13 95.54 65.27 94.82 66.19 93.89C67.12 92.96 67.84 91.83 68.28 90.62C68.51 90.02 68.66 89.38 68.75 88.78C68.82 88.49 68.81 88.13 68.84 87.81C68.87 87.52 68.83 87.19 68.83 86.89C68.75 85.66 68.43 84.48 67.93 83.45C67.43 82.42 66.76 81.54 66.03 80.85C65.3 80.16 64.53 79.61 63.79 79.25C63.06 78.86 62.36 78.65 61.78 78.48C61.2 78.36 60.73 78.26 60.4 78.24C60.08 78.21 59.9 78.19 59.9 78.19C59.9 78.19 60.07 78.19 60.4 78.19C60.73 78.17 61.2 78.21 61.81 78.29C62.41 78.41 63.15 78.56 63.94 78.91C64.74 79.22 65.6 79.73 66.41 80.43C68.03 81.8 69.5 84.09 69.73 86.83C69.74 87.17 69.8 87.5 69.77 87.87C69.75 88.11 69.75 88.35 69.73 88.6C69.85 87.93 69.93 87.25 69.93 86.55C69.93 82.04 67.24 78.17 63.38 76.44C68.15 77.92 71.61 82.37 71.61 87.62C71.61 94.07 66.36 99.31 59.9 99.31ZM110.25 91.03C109.35 91.07 108.08 91.17 106.54 91.22C105 91.26 103.21 91.35 101.3 91.38C99.38 91.42 97.33 91.43 95.29 91.44C93.24 91.43 91.2 91.42 89.28 91.38C87.36 91.35 85.57 91.26 84.04 91.22C82.5 91.17 81.23 91.07 80.33 91.03C79.43 90.97 78.92 90.93 78.92 90.93C78.92 90.93 79.43 90.89 80.33 90.83C81.23 90.79 82.5 90.69 84.04 90.64C85.58 90.6 87.37 90.51 89.28 90.48C91.2 90.44 93.25 90.43 95.29 90.42C97.34 90.43 99.38 90.44 101.3 90.48C103.22 90.51 105.01 90.6 106.54 90.64C108.08 90.69 109.35 90.79 110.25 90.83C111.15 90.89 111.66 90.93 111.66 90.93C111.66 90.93 111.15 90.97 110.25 91.03ZM134.96 99.31C129.7 99.31 125.26 95.85 123.78 91.08C125.52 94.94 129.39 97.63 133.89 97.63C134.62 97.63 135.33 97.55 136.03 97.42C135.41 97.48 134.78 97.49 134.19 97.43C131.42 97.2 129.16 95.73 127.78 94.11C127.08 93.3 126.57 92.45 126.26 91.64C125.92 90.85 125.76 90.11 125.64 89.51C125.56 88.9 125.53 88.42 125.54 88.09C125.54 87.76 125.54 87.59 125.54 87.59C125.54 87.59 125.56 87.76 125.59 88.09C125.6 88.41 125.71 88.88 125.83 89.47C125.99 90.05 126.21 90.75 126.6 91.48C126.97 92.22 127.52 92.99 128.2 93.72C128.89 94.45 129.77 95.12 130.8 95.62C131.83 96.12 133.01 96.44 134.23 96.52C135.49 96.61 136.76 96.42 137.98 95.98C139.19 95.54 140.33 94.82 141.25 93.89C142.18 92.96 142.9 91.83 143.34 90.62C143.57 90.02 143.72 89.38 143.81 88.78C143.88 88.49 143.87 88.13 143.9 87.81C143.93 87.52 143.89 87.19 143.89 86.89C143.81 85.66 143.49 84.48 142.99 83.45C142.49 82.42 141.82 81.54 141.09 80.85C140.36 80.16 139.59 79.61 138.85 79.25C138.12 78.86 137.42 78.65 136.84 78.48C136.26 78.36 135.79 78.26 135.46 78.24C135.14 78.21 134.96 78.19 134.96 78.19C134.96 78.19 135.13 78.19 135.46 78.19C135.79 78.17 136.26 78.21 136.88 78.29C137.48 78.41 138.22 78.56 139.01 78.91C139.81 79.22 140.67 79.73 141.48 80.43C143.1 81.8 144.57 84.09 144.8 86.83C144.81 87.17 144.87 87.5 144.84 87.87C144.82 88.11 144.82 88.35 144.8 88.6C144.92 87.93 145 87.25 145 86.55C145 82.04 142.31 78.17 138.45 76.44C143.22 77.92 146.68 82.37 146.68 87.62C146.67 94.07 141.43 99.31 134.96 99.31ZM180.42 72.37H183.86V75.44H180.42V72.37ZM175.46 86.32C175.61 85.37 175.89 84.13 176.25 82.92C176.62 81.71 177.07 80.52 177.47 79.65C177.87 78.78 178.22 78.22 178.22 78.22C178.22 78.22 178.21 78.88 178.05 79.82C177.9 80.77 177.62 82.01 177.26 83.22C176.89 84.43 176.44 85.62 176.03 86.49C175.63 87.36 175.28 87.92 175.28 87.92C175.28 87.92 175.3 87.26 175.46 86.32ZM229.78 89.88C228.14 89.92 225.8 90.03 222.99 90.08C220.18 90.12 216.9 90.22 213.38 90.24C209.87 90.26 206.12 90.29 202.37 90.31C198.62 90.29 194.87 90.26 191.36 90.24C187.85 90.22 184.56 90.12 181.75 90.08C178.94 90.03 176.6 89.93 174.96 89.89C173.32 89.82 172.38 89.79 172.38 89.79C172.38 89.79 173.32 89.75 174.96 89.69C176.6 89.65 178.94 89.54 181.75 89.5C184.56 89.46 187.84 89.36 191.36 89.34C194.87 89.32 198.62 89.29 202.37 89.27C206.12 89.29 209.87 89.32 213.38 89.34C216.89 89.36 220.18 89.46 222.99 89.5C225.8 89.55 228.14 89.65 229.78 89.69C231.42 89.76 232.36 89.79 232.36 89.79C232.36 89.79 231.42 89.81 229.78 89.88ZM232.55 79.82C232.4 80.77 232.12 82.01 231.76 83.22C231.39 84.43 230.94 85.62 230.53 86.49C230.13 87.36 229.78 87.92 229.78 87.92C229.78 87.92 229.79 87.26 229.95 86.32C230.1 85.37 230.38 84.13 230.74 82.92C231.11 81.71 231.56 80.52 231.96 79.65C232.36 78.78 232.71 78.22 232.71 78.22C232.71 78.22 232.71 78.88 232.55 79.82ZM257.85 99.31C252.59 99.31 248.15 95.85 246.67 91.08C248.41 94.94 252.28 97.63 256.78 97.63C257.51 97.63 258.22 97.55 258.92 97.42C258.3 97.48 257.67 97.49 257.08 97.43C254.31 97.2 252.05 95.73 250.67 94.11C249.97 93.3 249.46 92.45 249.15 91.64C248.81 90.85 248.65 90.11 248.53 89.51C248.45 88.9 248.42 88.42 248.43 88.09C248.43 87.76 248.43 87.59 248.43 87.59C248.43 87.59 248.45 87.76 248.48 88.09C248.49 88.41 248.6 88.88 248.72 89.47C248.88 90.05 249.1 90.75 249.49 91.48C249.86 92.22 250.41 92.99 251.09 93.72C251.78 94.45 252.66 95.12 253.69 95.62C254.72 96.12 255.9 96.44 257.12 96.52C258.38 96.61 259.65 96.42 260.87 95.98C262.08 95.54 263.22 94.82 264.14 93.89C265.07 92.96 265.79 91.83 266.23 90.62C266.46 90.02 266.61 89.38 266.7 88.78C266.77 88.49 266.76 88.13 266.79 87.81C266.82 87.52 266.78 87.19 266.78 86.89C266.7 85.66 266.38 84.48 265.88 83.45C265.38 82.42 264.71 81.54 263.98 80.85C263.25 80.16 262.48 79.61 261.74 79.25C261.01 78.86 260.31 78.65 259.73 78.48C259.15 78.36 258.68 78.26 258.35 78.24C258.03 78.21 257.85 78.19 257.85 78.19C257.85 78.19 258.02 78.19 258.35 78.19C258.68 78.17 259.15 78.21 259.77 78.29C260.37 78.41 261.11 78.56 261.9 78.91C262.7 79.22 263.56 79.73 264.37 80.43C265.99 81.8 267.46 84.09 267.69 86.83C267.7 87.17 267.76 87.5 267.73 87.87C267.71 88.11 267.71 88.35 267.69 88.6C267.81 87.93 267.89 87.25 267.89 86.55C267.89 82.04 265.2 78.17 261.34 76.44C266.11 77.92 269.57 82.37 269.57 87.62C269.55 94.07 264.31 99.31 257.85 99.31ZM303.13 99.31C297.87 99.31 293.43 95.85 291.95 91.08C293.69 94.94 297.56 97.63 302.06 97.63C302.79 97.63 303.5 97.55 304.2 97.42C303.58 97.48 302.95 97.49 302.36 97.43C299.59 97.2 297.33 95.73 295.95 94.11C295.25 93.3 294.74 92.45 294.43 91.64C294.09 90.85 293.93 90.11 293.81 89.51C293.73 88.9 293.7 88.42 293.71 88.09C293.71 87.76 293.71 87.59 293.71 87.59C293.71 87.59 293.73 87.76 293.76 88.09C293.77 88.41 293.88 88.88 294 89.47C294.16 90.05 294.38 90.75 294.77 91.48C295.14 92.22 295.69 92.99 296.37 93.72C297.06 94.45 297.94 95.12 298.97 95.62C300 96.12 301.18 96.44 302.4 96.52C303.66 96.61 304.93 96.42 306.15 95.98C307.36 95.54 308.49 94.82 309.42 93.89C310.35 92.96 311.07 91.83 311.51 90.62C311.74 90.02 311.89 89.38 311.98 88.78C312.05 88.49 312.04 88.13 312.07 87.81C312.1 87.52 312.06 87.19 312.06 86.89C311.98 85.66 311.66 84.48 311.16 83.45C310.66 82.42 309.98 81.54 309.26 80.85C308.53 80.16 307.76 79.61 307.02 79.25C306.29 78.86 305.59 78.65 305.01 78.48C304.43 78.36 303.96 78.26 303.63 78.24C303.31 78.21 303.13 78.19 303.13 78.19C303.13 78.19 303.3 78.19 303.63 78.19C303.96 78.17 304.43 78.21 305.04 78.29C305.64 78.41 306.38 78.56 307.17 78.91C307.97 79.22 308.83 79.73 309.64 80.43C311.26 81.8 312.73 84.09 312.96 86.83C312.97 87.17 313.03 87.5 313 87.87C312.98 88.11 312.98 88.35 312.96 88.6C313.08 87.93 313.16 87.25 313.16 86.55C313.16 82.04 310.47 78.17 306.61 76.44C311.38 77.92 314.84 82.37 314.84 87.62C314.84 94.07 309.6 99.31 303.13 99.31Z" fill="#1F3F7A"/>
<path d="M108.3 21.47C108.46 22.54 108.6 23.69 108.76 24.91C108.91 26.13 109.02 27.42 109.14 28.75C109.27 30.08 109.32 31.46 109.39 32.85C109.45 34.23 109.47 35.69 109.48 37.06C109.47 37.79 109.46 38.51 109.45 39.24C109.42 39.94 109.4 40.64 109.37 41.33C109.29 42.72 109.24 44.1 109.11 45.43C108.98 46.76 108.87 48.05 108.72 49.27C108.56 50.49 108.42 51.65 108.26 52.72C107.94 54.85 107.63 56.64 107.39 57.9C107.14 59.16 107 59.88 107 59.88C107 59.88 107.42 59.27 108 58.11C108.59 56.96 109.36 55.27 110.07 53.17C110.43 52.12 110.8 50.97 111.1 49.73C111.42 48.5 111.73 47.18 111.94 45.81C112.17 44.43 112.39 43.01 112.51 41.54C112.56 40.8 112.63 40.05 112.66 39.31C112.68 38.59 112.7 37.86 112.71 37.13C112.69 35.59 112.65 34.14 112.51 32.66C112.4 31.2 112.18 29.77 111.95 28.4C111.74 27.02 111.43 25.71 111.11 24.48C110.81 23.24 110.44 22.09 110.08 21.04C109.37 18.93 108.59 17.25 108 16.1C107.41 14.95 106.99 14.34 106.99 14.34C106.99 14.34 107.14 15.06 107.4 16.31C107.67 17.55 107.98 19.34 108.3 21.47Z" fill="#1F3F7A"/>
<path d="M322.59 41.53C322.71 43 322.93 44.42 323.16 45.8C323.38 47.18 323.68 48.49 324 49.72C324.3 50.96 324.66 52.11 325.03 53.16C325.74 55.27 326.51 56.95 327.1 58.1C327.69 59.25 328.1 59.87 328.1 59.87C328.1 59.87 327.96 59.15 327.71 57.89C327.47 56.64 327.17 54.85 326.84 52.71C326.68 51.64 326.54 50.48 326.38 49.26C326.23 48.04 326.12 46.75 325.99 45.42C325.86 44.09 325.81 42.71 325.73 41.32C325.71 40.63 325.68 39.93 325.66 39.23C325.65 38.51 325.64 37.78 325.63 37.05C325.64 35.69 325.66 34.23 325.72 32.84C325.79 31.44 325.84 30.07 325.97 28.74C326.1 27.41 326.2 26.12 326.35 24.9C326.5 23.68 326.65 22.52 326.81 21.46C327.14 19.33 327.45 17.54 327.7 16.29C327.96 15.03 328.11 14.32 328.11 14.32C328.11 14.32 327.69 14.93 327.1 16.08C326.51 17.23 325.73 18.92 325.02 21.02C324.66 22.07 324.29 23.22 323.99 24.46C323.67 25.69 323.36 27.01 323.15 28.38C322.92 29.75 322.71 31.18 322.59 32.64C322.45 34.11 322.42 35.56 322.39 37.11C322.41 37.84 322.43 38.56 322.44 39.29C322.46 40.04 322.53 40.8 322.59 41.53Z" fill="#1F3F7A"/>
<path d="M114.35 41.79C112.3 54.5 109.56 59.49 109.56 59.49H217.56H325.56C325.56 59.49 322.82 54.5 320.77 41.79H301.07L300.94 39.98H320.76V34.8H300.58L300.43 32.61C303.97 32.54 307.1 32.48 309.69 32.44C315.2 32.31 318.35 32.24 318.35 32.24C318.35 32.24 315.2 32.17 309.69 32.04C307.09 32 303.95 31.94 300.38 31.87L299.48 18.97L298.59 31.84C295.04 31.77 291.12 31.71 286.85 31.67C278.71 31.6 269.39 31.44 259.41 31.38L258.55 18.97L257.69 31.37C256.65 31.36 255.62 31.36 254.57 31.36C243.04 31.32 230.76 31.27 218.47 31.23L217.62 18.98L216.77 31.23C204.44 31.28 192.12 31.32 180.55 31.36C179.54 31.36 178.54 31.37 177.54 31.37L176.68 18.97L175.82 31.38C165.8 31.44 156.44 31.6 148.27 31.67C144.05 31.71 140.17 31.77 136.64 31.84L135.75 18.97L134.85 31.87C131.24 31.94 128.06 32 125.43 32.04C119.92 32.17 116.77 32.24 116.77 32.24C116.77 32.24 119.92 32.31 125.43 32.44C128.04 32.48 131.21 32.54 134.8 32.61L134.65 34.8H114.47V39.98H134.29L134.16 41.79H114.35ZM320.78 56.8C320.78 56.8 317.58 56.85 311.97 56.94C306.36 57 298.36 57.09 288.74 57.2C279.13 57.26 267.92 57.34 255.9 57.42C243.89 57.45 231.07 57.48 218.26 57.51C205.45 57.48 192.63 57.45 180.62 57.41C168.61 57.33 157.39 57.26 147.78 57.19C138.17 57.08 130.16 56.99 124.55 56.93C118.94 56.84 115.74 56.79 115.74 56.79C115.74 56.79 118.94 56.74 124.55 56.65C130.16 56.59 138.16 56.5 147.78 56.39C157.39 56.33 168.6 56.25 180.62 56.17C192.63 56.14 205.45 56.11 218.26 56.07C231.07 56.1 243.89 56.13 255.9 56.16C267.91 56.24 279.13 56.31 288.74 56.38C298.35 56.49 306.36 56.58 311.97 56.64C317.58 56.75 320.78 56.8 320.78 56.8ZM219.21 41.79L219.08 39.98H257.1L256.97 41.79H219.21ZM216.04 41.79H178.27L178.14 39.98H216.16L216.04 41.79ZM297.91 41.79H260.14L260.01 39.98H298.03L297.91 41.79ZM286.86 32.81C291.1 32.77 295.01 32.71 298.54 32.64L298.39 34.79H259.65L259.53 33.1C269.47 33.04 278.75 32.89 286.86 32.81ZM254.58 33.13C255.59 33.13 256.58 33.12 257.58 33.12L257.46 34.8H218.72L218.61 33.26C230.86 33.21 243.09 33.17 254.58 33.13ZM180.56 33.12C192.08 33.16 204.35 33.21 216.63 33.25L216.52 34.79H177.78L177.66 33.1C178.63 33.11 179.58 33.12 180.56 33.12ZM136.7 32.64C140.21 32.7 144.07 32.77 148.27 32.81C156.41 32.88 165.73 33.03 175.7 33.1L175.58 34.8H136.84L136.7 32.64ZM137.21 39.98H175.23L175.1 41.79H137.33L137.21 39.98Z" fill="#1F3F7A"/>
<path d="M148.27 16.27C157.72 16.35 168.74 16.54 180.56 16.58C192.37 16.62 204.97 16.67 217.57 16.72C230.17 16.67 242.77 16.63 254.58 16.59C266.39 16.56 277.42 16.36 286.87 16.28C296.32 16.19 304.19 15.99 309.71 15.9C315.22 15.77 318.37 15.7 318.37 15.7C318.37 15.7 315.22 15.63 309.71 15.5C304.2 15.42 296.32 15.21 286.87 15.12C277.42 15.04 266.4 14.84 254.58 14.81C242.77 14.77 230.17 14.72 217.57 14.68C204.97 14.73 192.37 14.77 180.56 14.82C168.75 14.86 157.72 15.05 148.27 15.13C138.82 15.22 130.95 15.42 125.43 15.51C119.92 15.64 116.77 15.71 116.77 15.71C116.77 15.71 119.92 15.78 125.43 15.91C130.95 15.97 138.82 16.17 148.27 16.27Z" fill="#1F3F7A"/>
<path d="M73.03 31.83C72.91 29.68 72.76 27.53 72.51 25.37C72.26 27.52 72.12 29.67 71.99 31.83C71.89 33.73 71.83 35.64 71.79 37.54C70.36 37.53 68.93 37.5 67.5 37.53C65.83 37.53 64.16 37.57 62.49 37.62C60.82 37.68 59.15 37.74 57.48 37.85C55.81 37.95 54.14 38.08 52.47 38.28C54.14 38.48 55.81 38.61 57.48 38.71C59.15 38.82 60.82 38.89 62.49 38.94C64.16 38.99 65.83 39.03 67.5 39.03C69.17 39.06 70.84 39.02 72.51 39.01H73.26L73.25 38.28C73.21 36.13 73.14 33.98 73.03 31.83Z" fill="#1F3F7A"/>
<path d="M60.2701 24.33C62.1001 24.3 63.9201 24.22 65.7501 24.17C66.6601 24.15 67.5801 24.09 68.4901 24.05C69.4001 24.01 70.3201 23.96 71.2301 23.89C70.3201 23.82 69.4001 23.77 68.4901 23.73C67.5801 23.69 66.6601 23.63 65.7501 23.61C63.9201 23.56 62.1001 23.48 60.2701 23.45C56.6201 23.37 52.9601 23.38 49.3101 23.4H48.8101L48.8201 23.89C48.8501 26.24 48.8901 28.6 48.9801 30.95C49.0201 32.13 49.0401 33.3 49.1101 34.48C49.1701 35.66 49.2201 36.83 49.3101 38.01C49.4001 36.83 49.4501 35.66 49.5101 34.48C49.5801 33.3 49.6001 32.13 49.6401 30.95C49.7201 28.76 49.7601 26.57 49.7901 24.38C53.2801 24.4 56.7701 24.4 60.2701 24.33Z" fill="#1F3F7A"/>
<path d="M31.45 48.8H39.03C39.81 48.8 40.44 48.17 40.44 47.39C40.44 46.61 39.81 45.98 39.03 45.98H31.45C30.67 45.98 30.04 46.61 30.04 47.39C30.04 48.17 30.67 48.8 31.45 48.8ZM31.45 47.01H39.03C39.24 47.01 39.41 47.18 39.41 47.39C39.41 47.6 39.24 47.77 39.03 47.77H31.45C31.24 47.77 31.07 47.6 31.07 47.39C31.07 47.18 31.24 47.01 31.45 47.01Z" fill="#1F3F7A"/>
<path d="M28.0301 72.05C26.8201 72.01 25.4001 71.92 23.8801 71.89C22.3601 71.85 20.7401 71.84 19.1201 71.83C17.5001 71.84 15.8801 71.85 14.3601 71.89C12.8401 71.92 11.4301 72.01 10.2101 72.05C9.01005 72.1 8.00005 72.2 7.29005 72.24C6.58005 72.29 6.18005 72.34 6.18005 72.34C6.18005 72.34 6.58005 72.38 7.29005 72.44C8.00005 72.48 9.01005 72.58 10.2201 72.63C11.4301 72.67 12.8501 72.76 14.3701 72.79C15.8901 72.83 17.5101 72.84 19.1301 72.85C20.7501 72.84 22.3701 72.83 23.8901 72.79C25.4101 72.76 26.8201 72.67 28.0401 72.63C29.2501 72.58 30.2701 72.48 30.9701 72.44C31.6801 72.39 32.0801 72.34 32.0801 72.34C32.0801 72.34 31.6801 72.29 30.9701 72.24C30.2601 72.2 29.2501 72.1 28.0301 72.05Z" fill="#1F3F7A"/>
<path d="M73.82 57.27H50.49C49.88 57.27 49.38 57.77 49.38 58.38C49.38 58.99 49.88 59.49 50.49 59.49H73.83C74.44 59.49 74.94 58.99 74.94 58.38C74.94 57.77 74.43 57.27 73.82 57.27Z" fill="#1F3F7A"/>
<path d="M50.49 56.07H73.83C74.44 56.07 74.94 55.57 74.94 54.96C74.94 54.35 74.44 53.85 73.83 53.85H50.49C49.88 53.85 49.38 54.35 49.38 54.96C49.38 55.57 49.87 56.07 50.49 56.07Z" fill="#1F3F7A"/>
<path d="M50.49 52.66H73.83C74.44 52.66 74.94 52.16 74.94 51.55C74.94 50.94 74.44 50.44 73.83 50.44H50.49C49.88 50.44 49.38 50.94 49.38 51.55C49.38 52.17 49.87 52.66 50.49 52.66Z" fill="#1F3F7A"/>
<path d="M33.88 57.55C35.14 57.5 36.18 57.4 36.92 57.36C37.65 57.31 38.07 57.26 38.07 57.26C38.07 57.26 37.65 57.22 36.92 57.16C36.19 57.12 35.14 57.02 33.88 56.97C32.62 56.93 31.16 56.84 29.59 56.81C28.02 56.77 26.35 56.76 24.67 56.75C23 56.76 21.32 56.77 19.75 56.81C18.18 56.84 16.71 56.93 15.46 56.97C14.2 57.02 13.16 57.12 12.42 57.16C11.69 57.21 11.27 57.26 11.27 57.26C11.27 57.26 11.69 57.31 12.42 57.36C13.15 57.4 14.2 57.5 15.46 57.55C16.72 57.59 18.18 57.68 19.75 57.71C21.32 57.75 22.99 57.76 24.67 57.77C26.34 57.76 28.02 57.75 29.59 57.71C31.16 57.68 32.63 57.6 33.88 57.55Z" fill="#1F3F7A"/>
</svg>
