<svg width="268" height="247" viewBox="0 0 268 247" fill="none" xmlns="http://www.w3.org/2000/svg">
<path d="M80.6285 68.252L76.2201 68.2593C75.9146 65.3445 75.2162 62.5462 74.176 59.9155L77.9005 57.7512C78.919 57.161 79.2682 55.8274 78.6789 54.7708L77.1149 51.9507C76.5257 50.8867 75.2162 50.4932 74.1832 51.0835L70.5023 53.1749C68.7928 50.7701 66.7486 48.6058 64.428 46.7403L66.5449 43.0967C67.1487 42.0547 66.7923 40.6774 65.7374 40.0216L62.9222 38.2726C61.8601 37.6095 60.4925 37.9229 59.8741 38.9722L57.75 42.5794C55.022 41.3041 52.0758 40.3932 48.9695 39.8977V35.6201C48.9695 34.3594 47.9365 33.2882 46.6489 33.2299L43.2226 33.0696C41.9277 33.0113 40.8657 33.9951 40.8657 35.2703V39.5916C37.6648 39.8612 34.5731 40.5827 31.6706 41.6976L29.3791 37.7917C28.7098 36.6403 27.2113 36.1958 26.0401 36.8006L22.9047 38.4111C21.719 39.0232 21.3116 40.4515 21.9954 41.6102L24.3669 45.6108C21.7699 47.4472 19.4493 49.6479 17.4851 52.1474L13.1931 49.7135C11.9783 49.0212 10.4142 49.3783 9.70861 50.5151L7.8245 53.5393C7.11159 54.6833 7.53351 56.1626 8.76292 56.8476L13.2004 59.3107C11.971 62.1527 11.1344 65.1987 10.778 68.3759L5.45298 68.3832C4.01989 68.3832 2.85596 69.4763 2.85596 70.8171V74.3805C2.85596 75.7214 4.01989 76.7926 5.45298 76.778L10.9235 76.7124C11.3818 79.824 12.2984 82.7826 13.5932 85.5299L8.77019 88.2699C7.54079 88.9694 7.11886 90.456 7.83177 91.5855L9.71589 94.5878C10.4215 95.7101 11.9856 96.0453 13.2004 95.3384L18.0817 92.5037C20.0312 94.8137 22.3009 96.8469 24.8179 98.5375L22.0027 103.318C21.3188 104.484 21.7262 105.912 22.912 106.502L26.0473 108.069C27.2185 108.652 28.7171 108.186 29.3864 107.034L32.1798 102.232C34.9369 103.209 37.854 103.821 40.8729 104.039V109.395C40.8729 110.671 41.9277 111.64 43.2299 111.56L46.6562 111.356C47.9365 111.275 48.9768 110.197 48.9768 108.936V103.638C51.9085 103.136 54.6946 102.261 57.2844 101.066L59.8741 105.431C60.4925 106.473 61.8601 106.765 62.9222 106.087L65.7374 104.294C66.7923 103.624 67.1487 102.247 66.5449 101.205L64.0279 96.9124C66.2758 95.1271 68.2835 93.0648 69.9858 90.7839L74.176 93.1085C75.2017 93.6769 76.5184 93.2689 77.1076 92.1976L78.6717 89.3557C79.2609 88.2917 78.9117 86.9582 77.8933 86.3825L73.8413 84.087C74.9398 81.5074 75.7109 78.7601 76.0965 75.8963L80.6212 75.838C81.7852 75.8234 82.7309 74.8396 82.7309 73.63V70.4309C82.7381 69.2285 81.7997 68.252 80.6285 68.252ZM44.9467 94.5951C31.9034 95.0834 20.9915 84.9396 20.9915 71.932C20.9915 58.9245 31.9034 48.6496 44.9467 48.9629C57.5463 49.269 67.447 59.4127 67.447 71.6333C67.4542 83.8611 57.5463 94.1287 44.9467 94.5951Z" fill="#96A6B7"/>
<path d="M30.3612 36.6326L27.2186 36.5233L26.1346 39.3434L30.3612 36.6326Z" fill="#96A6B7"/>
<path d="M61.4818 37.9297L65.1046 37.9661V40.6405L61.4818 37.9297Z" fill="#96A6B7"/>
<path d="M75.2744 50.8352L78.8826 50.981L77.9806 52.9995L75.2744 50.8352Z" fill="#96A6B7"/>
<path d="M80.9413 68.288L84.5859 68.5795L83.3928 70.3503L80.9413 68.288Z" fill="#96A6B7"/>
<path d="M74.8816 93.3413L78.417 93.8441L78.8462 90.9511L74.8816 93.3413Z" fill="#96A6B7"/>
<path d="M61.3508 106.385L64.5225 106.961L64.7772 104.615L61.3508 106.385Z" fill="#96A6B7"/>
<path d="M45.4777 112.026L42.6261 111.515L45.0776 107.865L45.4777 112.026Z" fill="#96A6B7"/>
<path d="M30.0338 108.95L26.7166 108.265L29.2772 105.154L30.0338 108.95Z" fill="#96A6B7"/>
<path d="M11.3818 49.3851L14.8445 49.4944L13.4696 52.0231L11.3818 49.3851Z" fill="#96A6B7"/>
<path d="M4.48547 76.6026L7.66447 77.0763L7.40986 74.4748L4.48547 76.6026Z" fill="#96A6B7"/>
<path d="M11.3091 95.6513L14.4081 96.1541L14.6627 94.0991L11.3091 95.6513Z" fill="#96A6B7"/>
<path d="M84.193 68.543L79.7483 68.5503C79.4427 65.6136 78.7371 62.7862 77.6896 60.1337L81.4432 57.9548C82.469 57.3572 82.8181 56.0164 82.2289 54.9452L80.6503 52.1032C80.0538 51.032 78.7298 50.6385 77.6968 51.2287L73.9868 53.3347C72.2627 50.9081 70.1967 48.722 67.8616 46.8492L69.993 43.1764C70.6041 42.1198 70.2404 40.7352 69.1783 40.0794L66.3412 38.3159C65.2646 37.6455 63.8897 37.9661 63.2641 39.0227L61.1253 42.659C58.3755 41.3765 55.4075 40.451 52.2722 39.9555V35.6342C52.2722 34.3663 51.2246 33.2878 49.937 33.2222L46.4816 33.0619C45.1722 33.0036 44.1101 33.9946 44.1101 35.2844V39.6422C40.8802 39.9118 37.7667 40.6405 34.8423 41.7627L32.5362 37.8204C31.8597 36.6617 30.3539 36.2172 29.1681 36.822L26.0037 38.4471C24.8106 39.0592 24.396 40.5093 25.0871 41.6753L27.4804 45.7051C24.8616 47.556 22.5191 49.7786 20.5405 52.2927L16.2121 49.8442C14.9827 49.1519 13.4114 49.509 12.6985 50.6531L10.7998 53.7064C10.0796 54.8577 10.5088 56.3516 11.7455 57.0366L16.2193 59.5215C14.9754 62.3854 14.1388 65.4533 13.7751 68.6669L8.40645 68.6742C6.95881 68.6742 5.7876 69.7746 5.7876 71.1227V74.7153C5.7876 76.0634 6.96608 77.1492 8.40645 77.1273L13.9206 77.0617C14.3862 80.1952 15.3027 83.1829 16.6122 85.9521L11.7455 88.7212C10.5015 89.428 10.0796 90.9292 10.7998 92.066L12.6985 95.0902C13.4114 96.227 14.9827 96.5622 16.2121 95.848L21.137 92.9915C23.1011 95.3234 25.3926 97.371 27.9314 99.069L25.0943 103.893C24.4033 105.066 24.8106 106.509 26.0109 107.107L29.1754 108.688C30.3611 109.278 31.867 108.812 32.5435 107.639L35.3588 102.8C38.1377 103.784 41.0766 104.403 44.1246 104.622V110.022C44.1246 111.304 45.1867 112.288 46.4962 112.208L49.9516 112.004C51.2465 111.924 52.2867 110.83 52.2867 109.562V104.221C55.2402 103.718 58.0482 102.829 60.667 101.627L63.2786 106.028C63.9042 107.078 65.2791 107.376 66.3558 106.691L69.1928 104.884C70.2549 104.206 70.6187 102.815 70.0076 101.772L67.476 97.4512C69.7457 95.6513 71.7608 93.5744 73.4849 91.2717L77.7114 93.6182C78.7516 94.1938 80.0684 93.7785 80.6649 92.7L82.2435 89.8361C82.8327 88.7649 82.4835 87.4241 81.4578 86.8411L77.3695 84.5238C78.4752 81.9223 79.2536 79.1532 79.6392 76.2674L84.2003 76.2091C85.3788 76.1946 86.3245 75.1962 86.3245 73.9865V70.7583C86.3172 69.5195 85.3643 68.5358 84.193 68.543ZM48.213 95.0975C35.0605 95.5857 24.0613 85.3618 24.0613 72.2522C24.0613 59.1426 35.0678 48.7803 48.213 49.0936C60.9144 49.3997 70.9024 59.6308 70.9024 71.9461C70.9024 84.2687 60.9144 94.6238 48.213 95.0975Z" fill="#D8DEE8"/>
<g opacity="0.3">
<path opacity="0.3" d="M187.965 122.57C190.671 106.043 184.793 85.0995 179.381 70.4304C173.525 54.5517 166.941 42.4186 166.876 42.2947L166.621 42.4331C166.687 42.557 173.263 54.6756 179.112 70.5324C184.51 85.1651 190.373 106.057 187.681 122.519L187.965 122.57Z" fill="#FDFEFF"/>
</g>
<path d="M181.738 94.9809L185.761 95.112V89.5957L29.0808 83.285V89.6685L34.7841 89.8653V89.9673V208.588L29.0808 208.974V215.7L185.761 204.092V198.276L181.738 198.553V170.49V94.9809Z" fill="url(#paint0_linear)"/>
<path d="M238.101 88.9471L53.2397 80.9604V73.3963L238.101 82.6073V88.9471Z" fill="#1F3F7A"/>
<path d="M238.101 211.801L53.2397 227.731V220.167L238.101 205.469V211.801Z" fill="url(#paint1_linear)"/>
<path d="M238.101 211.801L53.2397 227.731V220.167L238.101 205.469V211.801Z" fill="#1F3F7A"/>
<path d="M233.402 88.7431V205.833L60.2815 219.62V81.2591L233.402 88.7431Z" fill="#1F3F7A"/>
<path d="M233.402 174.003V205.833L60.2815 219.62V81.2591C97.5201 91.0385 140.142 110.102 151.898 144.643C155.688 155.778 156.379 168.691 168.84 173.128C175.896 175.642 184.044 174.484 191.253 174.076C205.482 173.274 220.657 169.667 233.402 174.003Z" fill="#3B6DAB"/>
<path d="M121.679 196.688V193.387V191.536V185.655V183.804V177.923V176.072V170.192V168.341V162.467V160.609V154.736V152.877V147.004V145.146V139.272V137.414V131.541V129.682V123.809V121.951V116.077V114.219V108.346V106.487V96.5913L79.3409 95.2724L78.5044 93.3121L76.3875 95.1776V105.496V107.427V113.556V115.487V121.615V123.547V129.675V131.606V137.727V139.666V145.787V147.725V153.847V155.785V161.906V163.845V169.966V171.904V178.025V179.964V186.085V188.016V194.145V196.076V206.394L121.614 203.283L123.57 201.301L121.679 196.688Z" fill="url(#paint2_linear)"/>
<path d="M123.359 94.7987V201.301L78.7372 204.317V93.3194L123.359 94.7987Z" fill="#F4F7FA"/>
<path d="M119.671 197.839L82.4254 200.193V97.2909L119.671 98.3913V197.839Z" fill="url(#paint3_linear)"/>
<path d="M103.565 202.321L99.5352 202.59V94.3323L103.565 94.4562V202.321Z" fill="#F4F7FA"/>
<path d="M123.359 104.68V106.531L78.7372 105.547V103.616L123.359 104.68Z" fill="#F4F7FA"/>
<path d="M123.359 112.397V114.248L78.7372 113.592V111.661L123.359 112.397Z" fill="#F4F7FA"/>
<path d="M123.359 120.114V121.965L78.7372 121.637V119.706L123.359 120.114Z" fill="#F4F7FA"/>
<path d="M123.359 127.831V129.682L78.7372 129.675V127.744L123.359 127.831Z" fill="#F4F7FA"/>
<path d="M123.359 135.548V137.399L78.7372 137.72V135.789L123.359 135.548Z" fill="#F4F7FA"/>
<path d="M123.359 143.266V145.117L78.7372 145.765V143.834L123.359 143.266Z" fill="#F4F7FA"/>
<path d="M123.359 150.983V152.834L78.7372 153.81V151.879L123.359 150.983Z" fill="#F4F7FA"/>
<path d="M123.359 158.7V160.551L78.7372 161.848V159.924L123.359 158.7Z" fill="#F4F7FA"/>
<path d="M123.359 166.417V168.268L78.7372 169.893V167.962L123.359 166.417Z" fill="#F4F7FA"/>
<path d="M123.359 174.134V175.985L78.7372 177.938V176.007L123.359 174.134Z" fill="#F4F7FA"/>
<path d="M123.359 181.851V183.702L78.7372 185.983V184.052L123.359 181.851Z" fill="#F4F7FA"/>
<path d="M123.359 189.568V191.419L78.7372 194.028V192.097L123.359 189.568Z" fill="#F4F7FA"/>
<path opacity="0.3" d="M118.616 189.845C118.587 190.457 118.536 191.084 118.471 191.711C118.442 192.009 118.405 192.308 118.369 192.614C118.165 194.203 117.685 196.127 116.965 198.014C116.456 199.377 115.932 200.703 115.183 201.869L78.7372 204.317V93.3194L79.1373 93.334C81.8216 94.3323 84.5059 95.6659 86.7829 97.4221C88.8925 99.0398 90.5729 101.022 91.4823 103.449C91.5405 103.609 91.5841 103.769 91.6423 103.922C91.8678 104.563 92.0497 105.197 92.2097 105.839C92.7044 107.835 92.9153 109.854 92.9517 111.887C92.9663 112.521 92.959 113.155 92.9372 113.789C92.879 115.793 92.6826 117.804 92.4643 119.816C92.3916 120.449 92.3188 121.083 92.2461 121.717C92.0133 123.743 91.7805 125.755 91.6641 127.751C91.635 128.261 91.6132 128.764 91.5986 129.267C91.5986 129.398 91.5914 129.529 91.5914 129.66C91.5477 131.679 91.6277 133.705 91.8678 135.702C91.9478 136.343 92.0351 136.977 92.1515 137.603C92.5152 139.666 93.0681 141.684 93.8538 143.623C94.1084 144.264 94.3994 144.891 94.7122 145.517C95.7306 147.543 97.0255 149.445 98.6623 151.179C98.7496 151.274 98.8369 151.362 98.9241 151.456C99.1715 151.719 99.4188 151.981 99.6662 152.243C99.9935 152.6 100.328 152.958 100.656 153.315C101.667 154.415 102.678 155.53 103.667 156.652C104.395 157.483 105.122 158.321 105.828 159.166C106.337 159.771 106.839 160.383 107.334 161.003C108.839 162.89 110.265 164.828 111.567 166.81C111.96 167.415 112.346 168.027 112.717 168.639C113.852 170.52 114.863 172.451 115.721 174.44C115.983 175.045 116.23 175.657 116.456 176.276C117.162 178.164 117.722 180.102 118.1 182.099C118.216 182.711 118.318 183.323 118.398 183.943C118.624 185.866 118.711 187.827 118.616 189.845Z" fill="#F4F7FA"/>
<path d="M219.98 189.131V186.136V184.453V179.118V177.435V172.101V170.418V165.083V163.4V158.066V156.383V151.048V149.365V144.031V142.347V137.013V135.323V129.996V128.305V122.971V121.288V115.953V114.27V108.936V107.252V98.2674L185.208 97.1306L184.495 95.3598L182.742 97.0504V106.378V108.127V113.665V115.414V120.952V122.701V128.239V129.988V135.527V137.276V142.814V144.563V150.108V151.857V157.395V159.144V164.683V166.432V171.97V173.719V179.257V181.006V186.544V188.293V197.621L219.886 195.121L221.523 193.336L219.98 189.131Z" fill="url(#paint4_linear)"/>
<path d="M221.661 96.6351V193.328L184.757 195.762V95.3671L221.661 96.6351Z" fill="#F4F7FA"/>
<path d="M217.973 190.166L187.776 192.053V98.9597L217.973 99.8997V190.166Z" fill="url(#paint5_linear)"/>
<path d="M205.22 194.123L201.867 194.334V96.2488L205.22 96.3654V194.123Z" fill="#F4F7FA"/>
<path d="M221.661 105.606V107.289L184.757 106.422V104.68L221.661 105.606Z" fill="#F4F7FA"/>
<path d="M221.661 112.609V114.292L184.757 113.702V111.953L221.661 112.609Z" fill="#F4F7FA"/>
<path d="M221.661 119.619V121.302L184.757 120.974V119.225L221.661 119.619Z" fill="#F4F7FA"/>
<path d="M221.661 126.622V128.305L184.757 128.247V126.505L221.661 126.622Z" fill="#F4F7FA"/>
<path d="M221.661 133.632V135.315L184.757 135.527V133.778L221.661 133.632Z" fill="#F4F7FA"/>
<path d="M221.661 140.642V142.318L184.757 142.799V141.05L221.661 140.642Z" fill="#F4F7FA"/>
<path d="M221.661 147.645V149.329L184.757 150.072V148.33L221.661 147.645Z" fill="#F4F7FA"/>
<path d="M221.661 154.655V156.331L184.757 157.344V155.603L221.661 154.655Z" fill="#F4F7FA"/>
<path d="M221.661 161.658V163.342L184.757 164.624V162.875L221.661 161.658Z" fill="#F4F7FA"/>
<path d="M221.661 168.669V170.352L184.757 171.897V170.155L221.661 168.669Z" fill="#F4F7FA"/>
<path d="M221.661 175.672V177.355L184.757 179.169V177.428L221.661 175.672Z" fill="#F4F7FA"/>
<path d="M221.661 182.682V184.365L184.757 186.449V184.7L221.661 182.682Z" fill="#F4F7FA"/>
<path opacity="0.3" d="M217.442 182.9C217.42 183.462 217.376 184.03 217.325 184.598C217.303 184.868 217.274 185.145 217.238 185.415C217.071 186.857 216.67 188.599 216.081 190.304C215.659 191.536 215.259 192.738 214.641 193.787L184.757 195.755V95.3671L185.055 95.3817C187.252 96.2853 189.434 97.4804 191.304 99.069C193.028 100.534 194.403 102.326 195.152 104.52C195.203 104.666 195.232 104.804 195.276 104.95C195.458 105.525 195.611 106.108 195.741 106.691C196.149 108.499 196.316 110.328 196.353 112.171C196.367 112.747 196.36 113.315 196.338 113.898C196.294 115.713 196.134 117.535 195.945 119.356C195.887 119.932 195.829 120.508 195.763 121.083C195.574 122.913 195.385 124.742 195.283 126.549C195.261 127.008 195.239 127.467 195.225 127.919C195.225 128.035 195.218 128.152 195.218 128.276C195.181 130.105 195.247 131.941 195.443 133.749C195.509 134.324 195.581 134.9 195.676 135.476C195.974 137.348 196.425 139.178 197.073 140.926C197.284 141.509 197.516 142.078 197.771 142.639C198.608 144.475 199.67 146.202 201.008 147.784C201.081 147.871 201.146 147.951 201.219 148.031C201.423 148.265 201.627 148.505 201.83 148.746C202.099 149.066 202.369 149.394 202.645 149.722C203.482 150.72 204.311 151.733 205.118 152.753C205.722 153.511 206.311 154.269 206.893 155.042C207.315 155.595 207.723 156.149 208.13 156.718C209.367 158.437 210.538 160.201 211.607 162.001C211.935 162.547 212.247 163.109 212.553 163.67C213.484 165.382 214.321 167.138 215.026 168.946C215.237 169.492 215.441 170.053 215.63 170.614C216.212 172.327 216.67 174.09 216.983 175.905C217.078 176.459 217.165 177.02 217.231 177.581C217.449 179.293 217.522 181.071 217.442 182.9Z" fill="#F4F7FA"/>
<path d="M29.0808 208.974L53.2397 220.167V227.731L29.0808 215.7V208.974Z" fill="url(#paint6_linear)"/>
<path opacity="0.3" d="M29.0808 208.974L53.2397 220.167V227.731L29.0808 215.7V208.974Z" fill="url(#paint7_linear)"/>
<path d="M34.7477 208.588L60.1069 219.62L53.2324 220.371L29.0808 208.974L34.7477 208.588Z" fill="url(#paint8_linear)"/>
<path d="M53.2397 80.9604L29.0808 89.6685V83.285L53.2397 73.3963V80.9604Z" fill="url(#paint9_linear)"/>
<path d="M53.2397 80.9604L29.0808 89.6685V83.285L53.2397 73.3963V80.9604Z" fill="#1F3F7A"/>
<path d="M34.7477 89.8653L60.1069 81.2591L53.2324 80.9604L29.0808 89.6685L34.7477 89.8653Z" fill="#3B6DAB"/>
<path d="M60.2814 81.2591V219.62L34.835 208.588L34.6022 89.858L60.2814 81.2591Z" fill="#1F3F7A"/>
<g opacity="0.3">
<path opacity="0.3" d="M56.2587 93.7493L37.8031 97.9759V94.9736L56.2587 89.9673V93.7493Z" fill="url(#paint10_linear)"/>
<path opacity="0.3" d="M56.2587 101.743L37.8031 104.308V101.306L56.2587 97.954V101.743Z" fill="url(#paint11_linear)"/>
<path opacity="0.3" d="M56.2587 109.737L37.8031 110.648V107.646L56.2587 105.948V109.737Z" fill="url(#paint12_linear)"/>
</g>
<path opacity="0.3" d="M60.1069 219.62L34.7477 208.595L34.464 89.8507C34.5658 89.8944 36.9155 91.4685 39.7599 94.4271C40.4946 95.1922 41.2585 96.0521 42.0296 96.9994C42.8007 97.954 43.5718 98.9961 44.3138 100.126C44.9394 101.073 45.5432 102.086 46.1033 103.157C46.6998 104.287 47.2454 105.474 47.7328 106.735C48.1548 107.806 48.533 108.928 48.8458 110.102C49.7552 113.468 50.1844 117.243 49.8279 121.404C48.1184 141.553 39.6144 182.048 49.9516 195.66C60.1069 209.04 60.1069 219.62 60.1069 219.62Z" fill="url(#paint13_linear)"/>
<path d="M238.014 88.9398L233.402 90.4993V88.7431L238.014 88.9398Z" fill="#3B6DAB"/>
<path d="M238.014 205.462L233.402 204.266V205.833L238.014 205.462Z" fill="#1F3F7A"/>
<path d="M193.836 52.8829C193.836 81.3612 170.753 105.059 141.539 106.21C141.255 106.218 140.971 106.232 140.688 106.24C110.403 106.976 85.3425 83.3141 85.3425 53.3712C85.3425 25.5706 106.977 2.95858 134.344 0.269622C136.425 0.0655815 138.542 -0.0291516 140.688 0.00728419C170.302 0.459088 193.836 24.1278 193.836 52.8829Z" fill="url(#paint14_linear)"/>
<path d="M187.638 52.9121C187.638 78.3078 166.825 99.3604 140.688 99.9361C114.033 100.526 92.0278 79.6705 92.0278 53.3493C92.0278 27.0281 114.026 5.97547 140.688 6.31796C166.825 6.65317 187.638 27.509 187.638 52.9121Z" fill="url(#paint15_linear)"/>
<path d="M182.698 52.9339C182.698 75.6626 164.054 94.4562 140.688 94.9299C116.907 95.4108 97.3165 76.7848 97.3165 53.3202C97.3165 29.8555 116.907 11.0546 140.688 11.317C164.054 11.572 182.698 30.2053 182.698 52.9339Z" fill="url(#paint16_linear)"/>
<path d="M155.993 21.1182L122.61 57.8455L136.33 57.758L125.207 85.3837L158.525 48.4596L146.144 48.4961L155.993 21.1182Z" fill="url(#paint17_linear)"/>
<path d="M130.467 79.5612C129.717 87.5407 130.896 94.1793 134.868 99.7175C136.563 102.079 138.76 104.236 141.539 106.21C141.255 106.218 140.971 106.232 140.688 106.24C110.403 106.976 85.3425 83.3141 85.3425 53.3712C85.3425 25.5707 106.977 2.95859 134.344 0.269627C136.083 1.98211 137.756 3.98608 139.211 6.31797C143.459 13.095 145.889 22.6194 142.761 35.6707C142.237 37.8714 141.546 40.1741 140.688 42.5862C138.76 47.9787 136.992 53.036 135.493 57.7653C134.635 60.4834 133.857 63.085 133.18 65.5918C131.82 70.649 130.867 75.291 130.467 79.5612Z" fill="#1F3F7A"/>
<path d="M199.961 52.8538C199.961 81.2664 176.988 104.906 147.912 106.05C147.628 106.057 147.352 106.072 147.068 106.079C116.929 106.815 91.9847 83.2121 91.9847 53.342C91.9847 25.6071 113.517 3.05332 140.754 0.371641C142.827 0.167601 144.929 0.0801547 147.068 0.109303C176.537 0.55382 199.961 24.1715 199.961 52.8538Z" fill="url(#paint18_linear)"/>
<path d="M193.785 52.8829C193.785 78.2204 173.067 99.222 147.06 99.7904C120.53 100.373 98.6405 79.5685 98.6405 53.3129C98.6405 27.0572 120.537 6.05563 147.06 6.39812C173.074 6.73333 193.785 27.5455 193.785 52.8829Z" fill="url(#paint19_linear)"/>
<path d="M162.293 21.1692L129.07 57.8018L142.724 57.7216L131.653 85.2744L164.81 48.4451L152.487 48.4815L162.293 21.1692Z" fill="white"/>
<path opacity="0.2" d="M136.89 79.4665C136.148 87.4241 137.319 94.0481 141.27 99.5718C142.957 101.933 145.147 104.083 147.904 106.05C147.62 106.057 147.344 106.072 147.06 106.079C116.921 106.815 91.9769 83.2121 91.9769 53.342C91.9769 25.6071 113.51 3.05332 140.746 0.371643C142.47 2.07684 144.143 4.08081 145.591 6.40541C149.817 13.1679 152.24 22.6704 149.126 35.6925C148.602 37.886 147.918 40.1887 147.06 42.5862C145.14 47.9714 143.386 53.0068 141.888 57.7289C141.029 60.4397 140.258 63.0412 139.582 65.5334C138.229 70.5762 137.283 75.2108 136.89 79.4665Z" fill="url(#paint20_linear)"/>
<path d="M133.573 133.967C134.439 132.823 135.755 130.987 135.821 129.996C135.886 129.005 137.276 130.367 136.294 132.59C135.995 133.26 136.054 133.515 136.206 133.719C136.657 134.295 138.192 133.071 139.254 133.647C140.316 134.222 140.709 136.496 139.771 137.618C139.073 138.442 138.003 137.837 136.774 138.427C135.792 138.901 136.032 140.088 135.559 143.12C134.577 143.076 132.394 144.73 132.031 143.819C130.627 140.314 132.707 135.111 133.573 133.967Z" fill="white"/>
<path d="M131.216 141.859C133.224 141.721 135.224 141.582 137.232 141.437C141.961 160.58 138.571 179.155 127.892 185.983C111.211 196.651 80.2139 176.546 73.4995 154.655C70.5533 145.044 71.2225 131.176 77.1149 128.487C78.7517 127.737 81.2906 127.62 86.7901 130.717C103.209 139.95 103.645 157.41 111.989 158.889C115.707 159.552 121.701 157.177 131.216 141.859Z" fill="url(#paint21_linear)"/>
<path d="M10.1815 137.443C19.0783 131.774 27.0585 127.35 36.5519 125.252C44.9831 123.386 51.3702 123.976 59.2704 124.581C74.5761 125.747 84.1422 126.476 90.4274 133.698C95.9852 140.081 96.1016 148.374 96.1452 150.137C96.298 157.242 93.5409 160.871 91.5113 166.759C88.245 176.24 91.5477 178.011 92.5079 203.217C92.5079 203.217 93.4609 233.116 85.8517 237.671C82.6 239.616 79.8211 246.321 63.2132 244.666C52.0758 243.559 48.4531 243.355 42.8153 245.264C35.1333 247.866 32.0998 242.874 28.9354 241.453C25.8946 240.09 25.5091 234.836 25.1453 225.676C24.5779 211.546 24.6143 201.942 24.5634 198.502C24.3233 182.726 20.3368 170.687 15.2301 155.26C12.0293 145.612 12.7494 142.938 10.1815 137.443Z" fill="url(#paint22_linear)"/>
<path d="M57.7719 108.958C57.5973 112.922 56.9862 116.041 56.4552 118.176C55.8441 120.617 55.4658 121.237 55.0003 121.732C54.2946 122.475 53.2616 123.073 47.5147 124.181C44.3867 124.785 43.9938 124.742 43.9065 125.04C43.4919 126.52 51.6394 132.073 60.398 131.307C65.7594 130.841 70.7643 128.057 70.546 126.447C70.3351 124.822 64.9737 125.405 63.5406 122.41C62.544 120.326 63.9335 117.52 65.5193 115.225C64.2463 112.485 59.0449 111.69 57.7719 108.958Z" fill="white"/>
<path d="M67.5635 111.056C68.9093 109.453 69.1421 106.538 67.7963 104.622C66.6323 102.968 64.69 102.64 63.5261 102.436C60.1507 101.86 55.7859 103.055 54.1273 106.108C53.1452 107.916 54.8475 111.88 55.1167 112.587C55.4149 113.388 56.0114 113.694 56.5498 114.314C57.2918 115.181 58.4557 116.551 60.3544 118.846C60.5435 118.212 60.8272 117.425 61.2491 116.58C61.4092 116.252 62.0639 114.984 63.0096 113.949C64.8791 111.88 66.2831 112.572 67.5635 111.056Z" fill="url(#paint23_linear)"/>
<path d="M57.5682 116.85C57.5682 116.85 59.6051 120.639 64.0717 120.588C68.0654 120.544 69.1275 111.625 66.6832 109.592C65.8685 108.914 64.1808 108.557 62.7768 108.87C61.9475 109.052 61.6565 109.38 60.2962 109.657C59.0449 109.912 58.703 109.759 58.3102 110.051C57.8228 110.422 57.43 111.37 58.0701 114.022C57.3499 113.213 56.4552 112.864 55.7932 113.14C55.6841 113.184 55.4076 113.359 55.233 113.629C54.622 114.627 55.4877 115.982 57.5682 116.85Z" fill="white"/>
<path d="M58.1574 109.511C58.3392 109.664 57.7136 110.349 57.6191 111.362C57.4299 113.33 59.2922 115.808 61.3146 116.114C62.5076 116.296 62.8786 115.589 64.8791 115.487C66.1158 115.421 67.1342 115.633 67.7671 115.808C68.2763 118.001 67.5707 120.129 66.0794 121.054C64.4644 122.045 62.5149 121.287 61.7001 120.974C61.1545 120.763 59.4086 120.085 58.5648 118.402C57.6845 116.646 58.6957 115.669 57.6409 114.459C57.1098 113.847 56.3897 113.556 55.7349 112.397C55.5531 112.084 55.444 111.807 55.3712 111.617C56.4624 110.575 57.8955 109.286 58.1574 109.511Z" fill="url(#paint24_linear)"/>
<path d="M66.2832 116.536C66.2832 116.536 65.3957 116.937 63.9189 116.777C63.8462 116.769 63.7662 116.784 63.7516 116.82C63.708 116.959 64.6318 117.644 65.5193 117.447C66.1522 117.301 66.6687 116.74 66.596 116.587C66.5669 116.514 66.4214 116.514 66.2832 116.536Z" fill="white"/>
<path opacity="0.3" d="M79.3919 229.123C71.2225 225.632 71.2735 218.403 63.6424 215.394C52.9561 211.167 39.3744 219.526 38.8506 218.316C38.2687 216.968 58.2229 211.685 63.8898 196.826C66.043 191.179 66.6032 182.908 62.544 179.424C57.7064 175.263 51.0065 181.953 43.4846 178.229C34.8351 173.952 36.3264 161.462 28.9499 159.37C25.0435 158.263 20.8824 160.704 17.8926 163.043C21.6681 174.848 24.3742 185.254 24.5634 198.16C24.6143 201.599 24.5779 211.204 25.1453 225.334C25.5091 234.494 25.9019 239.748 28.9354 241.11C32.0998 242.531 34.8351 244.9 42.517 242.298C48.1548 240.389 52.6796 241.19 63.817 242.298C80.4249 243.945 82.6 239.267 85.8517 237.321C87.9686 236.053 88.9798 234.144 89.6563 230.478C86.3173 230.828 82.7891 230.573 79.3919 229.123Z" fill="url(#paint25_linear)"/>
<path d="M106.541 151.23L74.7361 155.756C74.387 155.807 74.1033 156.062 74.016 156.404L63.2423 199.756C63.0895 200.375 63.9188 201.811 64.5445 201.672L95.6797 194.13C95.9997 194.064 96.2471 193.824 96.3344 193.511L107.996 152.885C108.163 152.28 107.159 151.143 106.541 151.23Z" fill="url(#paint26_linear)"/>
<path d="M107.144 152.2L75.34 156.725C74.9908 156.776 74.7071 157.031 74.6198 157.374L63.8461 200.725C63.6934 201.344 64.239 201.913 64.8646 201.781L96.2762 195.106C96.5963 195.041 96.8436 194.8 96.9309 194.487L108.097 153.293C108.265 152.688 107.763 152.112 107.144 152.2Z" fill="url(#paint27_linear)"/>
<path d="M98.5676 154.655L99.4551 151.194C99.5351 150.881 99.2805 150.582 98.9604 150.618L87.3357 151.813C87.132 151.835 86.9719 151.981 86.9283 152.178L86.1354 155.982C86.0699 156.295 86.3318 156.579 86.6518 156.535L98.1748 154.998C98.3712 154.976 98.524 154.838 98.5676 154.655Z" fill="url(#paint28_linear)"/>
<path opacity="0.3" d="M82.2944 189.765C83.6839 182.813 79.8211 178.776 82.7673 173.187C86.9356 165.273 97.8475 167.328 100.532 161.01C101.252 159.305 101.434 156.863 99.8553 153.242L107.152 152.207C107.77 152.119 108.272 152.688 108.112 153.293L96.9454 194.487C96.8582 194.8 96.6108 195.041 96.2907 195.106L77.1949 199.165C80.3157 195.806 81.727 192.592 82.2944 189.765Z" fill="white"/>
<path d="M58.4629 187.149C58.4629 187.149 63.1914 185.691 64.93 184.329C66.6686 182.966 68.4509 180.875 71.208 180.7C73.965 180.525 76.8676 181.632 75.6309 182.084C74.3942 182.536 72.2846 185.298 70.5751 186.471C68.8655 187.652 64.7409 188.162 63.9698 188.184C63.1914 188.205 60.3397 190.348 60.3397 190.348L58.4629 187.149Z" fill="white"/>
<path d="M61.2709 180.707C63.8024 182.828 64.8791 184.919 65.1191 186.85C66.1958 195.405 51.5302 206.234 37.5412 207.407C27.1822 208.282 16.8159 203.873 10.2906 197.147C-2.44718 184.023 -3.20373 159.705 10.1742 137.45C13.5933 139.148 17.0123 140.496 20.4314 142.187C29.9684 146.916 35.7153 157.177 34.2385 167.729C33.2637 174.695 35.5043 180.977 39.5344 183.841C44.6921 187.499 53.7853 186.304 61.2709 180.707Z" fill="url(#paint29_linear)"/>
<path d="M52.9851 107.777C52.9851 107.777 56.3387 110.16 62.0201 109.205C67.6943 108.244 69.5566 108.149 69.5493 107.42C69.9058 108.047 70.786 108.892 71.0334 109.701C71.077 109.847 71.0697 110.058 71.077 110.196C71.0916 110.918 70.4368 111.501 68.4 111.821C63.7588 112.55 58.8412 112.215 57.1607 111.231C55.473 110.255 52.5923 108.659 52.9851 107.777Z" fill="url(#paint30_linear)"/>
<path d="M69.5929 107.442C69.5929 107.442 58.1719 111.355 52.9851 107.486C52.9851 107.486 52.7014 104.461 54.5637 102.108C54.8255 101.772 55.1384 101.408 55.4948 101.109C56.3823 100.373 57.5753 99.7612 59.1903 99.4843C66.0284 98.2965 69.382 105.001 69.5929 107.442Z" fill="url(#paint31_linear)"/>
<path d="M68.3927 111.486C63.7515 112.215 58.8339 111.88 57.1535 110.896C55.6767 110.029 53.2761 108.695 52.9779 107.784V107.777C52.9779 107.763 52.9706 107.748 52.9706 107.733C52.9415 107.624 52.9488 107.529 52.9924 107.435C52.9924 107.435 53.007 107.442 53.0361 107.464C53.4289 107.726 56.7097 109.759 62.0274 108.863C67.6943 107.908 69.5494 107.799 69.5494 107.085C69.753 107.435 70.0949 107.865 70.4005 108.316C71.2298 109.548 71.7899 110.954 68.3927 111.486Z" fill="url(#paint32_linear)"/>
<path d="M67.4034 107.981C64.5008 108.455 62.6458 108.761 62.4275 108.797H62.4057C62.4057 108.797 64.1516 99.375 56.8261 100.206C56.8261 100.206 56.7461 99.9288 56.8043 99.5936C56.877 99.1637 57.1607 98.6463 58.1064 98.5151C59.7796 98.2965 66.3631 98.3402 67.4034 107.981Z" fill="url(#paint33_linear)"/>
<path opacity="0.2" d="M63.4605 108.571L62.4275 108.79H62.4057C62.4057 108.79 64.1516 99.3677 56.8261 100.198C56.8261 100.198 56.7461 99.9216 56.8043 99.5864C56.8043 99.5864 61.4818 99.324 62.5948 101.824C63.7006 104.33 63.4605 108.571 63.4605 108.571Z" fill="url(#paint34_linear)"/>
<path d="M60.3689 104.848C60.0415 105.431 59.2995 105.095 58.9431 104.746C58.0046 103.835 55.0075 101.918 54.571 102.02C54.8329 101.685 55.1457 101.364 55.5022 101.066C55.604 100.985 56.4042 101.262 56.5279 101.299C57.008 101.437 57.4809 101.605 57.9392 101.809C58.914 102.232 59.816 102.909 60.267 103.893C60.3834 104.148 60.5289 104.498 60.4053 104.775C60.398 104.797 60.3834 104.826 60.3689 104.848Z" fill="url(#paint35_linear)"/>
<path opacity="0.2" d="M70.3932 108.316C70.2332 108.557 69.9131 108.754 69.302 108.797C67.4106 108.936 64.348 109.431 60.3034 110.233C56.3824 111.005 53.1815 107.981 52.9779 107.792V107.784L52.9706 107.777C52.9706 107.763 52.9633 107.748 52.9706 107.733C52.956 107.639 52.9706 107.551 53.0288 107.464C53.4216 107.726 56.7024 109.759 62.0202 108.863C67.6871 107.908 69.5421 107.799 69.5421 107.085C69.7458 107.442 70.0877 107.865 70.3932 108.316Z" fill="url(#paint36_linear)"/>
<path d="M132.365 115.407C132.467 113.119 133.427 112.288 133.98 112.004C134.504 111.071 136.265 107.996 137.312 106.954L137.436 106.83L137.596 106.771C137.632 106.757 137.814 106.699 138.098 106.655C138.192 106.64 138.323 106.626 138.476 106.611C139.727 104.432 143.103 98.588 143.954 97.4002C145.016 95.9136 149.773 92.598 150.312 92.2263L150.566 92.0514L150.872 92.1024C151.578 92.2263 152.916 92.9405 152.938 94.7622L152.945 95.1558L152.632 95.3889C151.345 96.329 147.853 98.9524 147.14 99.7612C146.573 100.41 144.019 105.19 142.222 108.659C142.317 108.812 142.404 108.987 142.484 109.162L142.615 109.453L142.506 109.752L142.048 110.976C143.525 111.625 146.784 113.352 147.227 116.077L149.33 128.932C149.417 129.471 149.155 130.171 148.137 130.338C146.434 130.615 142.193 129.398 140.193 128.779C140.207 130.644 140.2 132.983 140.062 133.479C139.924 133.974 139.436 134.251 138.432 134.419C137.378 134.594 135.093 134.696 133.951 133.865C133.478 133.515 133.326 133.1 133.289 132.809C133.078 131.337 133.195 121.309 133.224 119.182C132.867 118.657 132.271 117.505 132.365 115.407ZM139.334 133.253C139.451 132.838 139.444 130.134 139.436 128.662L139.262 125.128C138.825 120.603 139.458 116.755 139.458 116.755C139.531 116.748 139.604 116.733 139.676 116.726C141.299 116.456 141.67 115.837 141.757 115.618C141.335 115.451 140.964 115.327 140.695 115.232C140.346 115.115 140.142 115.05 140.142 115.05C140.142 115.05 140.353 115.05 140.724 115.086C141.095 115.123 141.626 115.188 142.244 115.348C142.557 115.429 142.892 115.523 143.241 115.669C143.59 115.815 143.961 115.982 144.303 116.259C144.478 116.398 144.645 116.558 144.79 116.755C144.827 116.813 144.856 116.85 144.892 116.923L144.965 117.061C145.016 117.17 145.067 117.28 145.103 117.374C145.263 117.782 145.387 118.19 145.511 118.599C145.627 119.007 145.729 119.422 145.823 119.83C145.918 120.238 145.991 120.639 146.071 121.025C146.151 121.411 146.209 121.79 146.267 122.155C146.325 122.512 146.369 122.854 146.413 123.168C146.493 123.794 146.544 124.326 146.565 124.691C146.594 125.062 146.594 125.274 146.594 125.274C146.594 125.274 146.522 125.07 146.413 124.72C146.303 124.363 146.151 123.86 145.976 123.255C145.882 122.927 145.78 122.563 145.678 122.184C145.947 123.707 146.187 125.164 146.311 125.908C146.347 125.929 146.391 125.944 146.427 125.959C146.638 126.068 146.827 126.192 147.002 126.323C147.176 126.454 147.322 126.6 147.446 126.738C147.511 126.811 147.562 126.884 147.613 126.95C147.657 127.023 147.707 127.088 147.744 127.154C147.824 127.285 147.875 127.409 147.911 127.511C147.948 127.613 147.962 127.693 147.977 127.751C147.984 127.81 147.984 127.839 147.984 127.839C147.984 127.839 147.918 127.737 147.78 127.591C147.715 127.518 147.62 127.438 147.518 127.343C147.416 127.256 147.293 127.168 147.155 127.074C146.878 126.899 146.536 126.724 146.151 126.585C145.962 126.512 145.758 126.461 145.547 126.396C145.445 126.374 145.336 126.345 145.227 126.323C145.14 126.301 145.009 126.279 144.899 126.257C144.681 126.214 144.485 126.192 144.267 126.177C144.092 126.17 143.925 126.163 143.757 126.17C143.619 126.184 143.474 126.199 143.328 126.228C143.255 126.243 143.175 126.257 143.103 126.272C143.066 126.279 143.03 126.287 142.994 126.294C141.895 126.476 140.753 126.09 140.026 125.755L140.069 126.644C140.527 126.775 142.07 127.197 143.641 127.584C144.572 127.817 145.511 128.028 146.216 128.174C146.922 128.32 147.395 128.4 147.395 128.4C147.395 128.4 146.915 128.385 146.194 128.334C145.474 128.283 144.514 128.196 143.554 128.086C143.212 128.05 142.863 128.006 142.528 127.97C144.536 128.4 147.14 128.881 148.522 128.83C148.166 126.651 146.944 119.16 146.456 116.216C146.158 114.394 144.303 113.038 142.848 112.244C143.001 112.361 143.154 112.485 143.306 112.609C143.721 112.958 144.114 113.33 144.39 113.621C144.528 113.774 144.638 113.898 144.71 113.986C144.783 114.073 144.827 114.132 144.827 114.132C144.827 114.132 144.776 114.088 144.689 114.015C144.601 113.935 144.47 113.833 144.31 113.716C143.99 113.476 143.546 113.184 143.088 112.922C142.63 112.66 142.157 112.426 141.801 112.266C141.626 112.186 141.473 112.12 141.371 112.084C141.357 112.077 141.349 112.077 141.342 112.069C141.349 112.069 141.349 112.069 141.357 112.069C141.357 112.069 141.335 112.062 141.328 112.062C140.855 112.769 140.397 113.782 140.397 113.782C140.397 113.782 140.593 112.645 141.059 111.421L141.771 109.504C141.233 108.331 140.477 107.792 139.778 107.551L136.403 113.126L138.549 107.901L135.479 113.665C135.479 113.665 135.137 112.572 134.497 112.623C134.497 112.623 133.216 112.9 133.1 115.465C132.984 118.001 133.973 118.912 133.973 118.912C134.097 119.028 134.235 119.072 134.366 119.072C134.395 119.065 134.424 119.058 134.46 119.05C134.519 119.028 134.599 119.007 134.671 118.956C134.751 118.919 134.824 118.854 134.904 118.788C134.977 118.708 135.064 118.635 135.137 118.526C135.217 118.431 135.282 118.314 135.348 118.19C135.421 118.074 135.457 117.935 135.515 117.797C135.566 117.659 135.603 117.52 135.639 117.374C135.683 117.236 135.697 117.09 135.726 116.952C135.755 116.813 135.77 116.675 135.784 116.544C135.799 116.412 135.814 116.289 135.821 116.172C135.835 115.946 135.835 115.749 135.843 115.618C135.85 115.48 135.85 115.407 135.85 115.407C135.85 115.407 135.864 115.48 135.886 115.618C135.908 115.749 135.944 115.939 135.981 116.172C135.995 116.289 136.003 116.412 136.017 116.551C136.032 116.682 136.046 116.828 136.046 116.974C136.046 117.119 136.061 117.28 136.046 117.433C136.032 117.593 136.032 117.753 136.003 117.914C135.966 118.074 135.952 118.241 135.901 118.402C135.857 118.562 135.806 118.722 135.734 118.868C135.675 119.021 135.573 119.16 135.493 119.291C135.392 119.415 135.297 119.539 135.188 119.626C135.13 119.684 135.064 119.735 134.999 119.779L135.253 130.265L135.493 120.187L136.199 132.437C136.286 132.444 136.374 132.444 136.454 132.459C136.628 132.473 136.796 132.495 136.963 132.517C137.13 132.539 137.29 132.575 137.45 132.612C137.61 132.641 137.756 132.692 137.894 132.728C138.032 132.765 138.163 132.809 138.287 132.86C138.403 132.903 138.512 132.94 138.607 132.983C138.702 133.027 138.782 133.064 138.847 133.1C138.978 133.166 139.058 133.202 139.058 133.202C139.058 133.202 138.978 133.18 138.832 133.151C138.76 133.136 138.68 133.115 138.578 133.093C138.476 133.071 138.367 133.056 138.243 133.034C138.12 133.013 137.989 132.998 137.85 132.991C137.712 132.983 137.567 132.962 137.407 132.969C137.254 132.969 137.094 132.962 136.934 132.976C136.774 132.983 136.614 132.998 136.454 133.02C135.814 133.093 135.195 133.268 134.751 133.435C134.737 133.443 134.722 133.443 134.708 133.45C135.617 133.865 137.239 133.865 138.301 133.69C138.883 133.559 139.291 133.413 139.334 133.253ZM145.474 125.434C145.067 122.956 144.332 118.737 143.961 117.71C143.721 117.039 142.87 116.638 142.222 116.442C142.222 116.769 142.237 117.36 142.317 117.884C142.433 118.65 142.659 118.409 142.717 119.458C142.783 120.508 142.841 122.891 143.183 124.151C143.314 124.632 143.568 125.062 143.83 125.405C144.463 125.339 145.023 125.376 145.474 125.434ZM141.728 117.476C141.72 117.666 141.72 117.884 141.757 118.103C141.779 118.22 141.801 118.329 141.844 118.446C141.888 118.562 141.946 118.664 141.982 118.766C142.062 118.97 142.084 119.203 142.099 119.451C142.113 119.699 142.135 119.954 142.157 120.209C142.208 120.712 142.273 121.215 142.353 121.688C142.426 122.155 142.521 122.592 142.601 122.964C142.681 123.335 142.768 123.641 142.834 123.853C142.899 124.064 142.943 124.188 142.943 124.188C142.943 124.188 142.921 124.064 142.884 123.845C142.841 123.627 142.804 123.313 142.746 122.942C142.688 122.57 142.637 122.126 142.579 121.659C142.521 121.193 142.462 120.69 142.412 120.187C142.382 119.939 142.361 119.692 142.346 119.437C142.324 119.182 142.288 118.926 142.193 118.686C142.142 118.569 142.084 118.467 142.041 118.373C141.997 118.278 141.968 118.176 141.946 118.074C141.895 117.863 141.881 117.666 141.881 117.484C141.873 117.112 141.91 116.799 141.939 116.58C141.968 116.361 141.99 116.238 141.99 116.238C141.99 116.238 141.946 116.354 141.888 116.573C141.83 116.777 141.742 117.09 141.728 117.476ZM142.659 125.558C142.324 125.033 141.982 124.363 141.859 123.685C141.619 122.322 140.942 118.562 141.139 117.112C140.862 117.236 140.527 117.338 140.135 117.425C139.989 118.591 139.698 121.55 139.996 124.873C140.52 125.142 141.611 125.631 142.659 125.558ZM146.565 99.2584C147.482 98.2091 152.181 94.7768 152.181 94.7768C152.174 94.2303 152.021 93.8368 151.81 93.5526L151.898 93.691C151.898 93.691 149.002 95.6586 147.067 97.2253C147.126 97.3055 147.176 97.3929 147.227 97.4804C147.322 97.6625 147.395 97.852 147.438 97.9977C147.482 98.1435 147.497 98.2382 147.497 98.2382C147.497 98.2382 147.431 98.1654 147.336 98.0633C147.235 97.9613 147.096 97.8374 146.944 97.7354C146.842 97.6698 146.747 97.6188 146.653 97.5751C146.056 98.0779 145.605 98.5078 145.445 98.7848C145.416 98.8358 145.38 98.8941 145.336 98.9669C145.401 99.0252 145.46 99.0908 145.518 99.1564C145.649 99.3167 145.758 99.4843 145.831 99.6155C145.903 99.7467 145.94 99.8341 145.94 99.8341C145.94 99.8341 145.86 99.7758 145.743 99.6957C145.627 99.6155 145.46 99.5208 145.292 99.4552C145.227 99.426 145.154 99.4042 145.089 99.3896C144.048 101.168 141.459 105.591 140.6 107.048C140.986 107.252 141.371 107.544 141.728 107.959C143.066 105.38 145.874 100.045 146.565 99.2584ZM139.618 106.699C140.309 105.533 144.063 99.222 144.681 98.1435C145.278 97.116 149.875 93.7931 151.047 92.955C150.865 92.8822 150.741 92.853 150.741 92.853C150.741 92.853 145.591 96.431 144.572 97.8447C143.786 98.9378 140.709 104.257 139.334 106.64C139.429 106.655 139.524 106.677 139.618 106.699Z" fill="white"/>
<path d="M138.44 126.993C138.411 126.614 138.381 126.228 138.367 125.827C138.345 125.427 138.323 125.026 138.316 124.625C138.294 123.816 138.28 123.007 138.301 122.249C138.316 121.492 138.352 120.785 138.403 120.173C138.454 119.568 138.52 119.065 138.578 118.715C138.636 118.365 138.68 118.169 138.68 118.169C138.68 118.169 138.672 118.373 138.672 118.722C138.672 119.08 138.68 119.582 138.687 120.187C138.702 120.792 138.723 121.492 138.738 122.249C138.76 123.007 138.789 123.809 138.811 124.61C138.832 125.419 138.854 126.221 138.883 126.979C138.891 127.358 138.898 127.722 138.912 128.072C138.92 128.422 138.927 128.75 138.927 129.048C138.934 129.653 138.942 130.156 138.934 130.513C138.927 130.87 138.927 131.067 138.927 131.067C138.927 131.067 138.891 130.87 138.84 130.52C138.789 130.171 138.709 129.668 138.643 129.07C138.571 128.451 138.498 127.744 138.44 126.993Z" fill="white"/>
<defs>
<linearGradient id="paint0_linear" x1="29.0826" y1="149.49" x2="185.762" y2="149.49" gradientUnits="userSpaceOnUse">
<stop stop-color="#9681BC"/>
<stop offset="0.9964" stop-color="#6166AE"/>
</linearGradient>
<linearGradient id="paint1_linear" x1="152.003" y1="5.36386" x2="145.246" y2="229.294" gradientUnits="userSpaceOnUse">
<stop stop-color="#9681BC"/>
<stop offset="0.9964" stop-color="#6166AE"/>
</linearGradient>
<linearGradient id="paint2_linear" x1="76.3885" y1="149.854" x2="123.571" y2="149.854" gradientUnits="userSpaceOnUse">
<stop stop-color="#454C8D"/>
<stop offset="0.9964" stop-color="#404278"/>
</linearGradient>
<linearGradient id="paint3_linear" x1="82.4276" y1="148.743" x2="119.668" y2="148.743" gradientUnits="userSpaceOnUse">
<stop stop-color="#454C8D"/>
<stop offset="0.9964" stop-color="#26274F"/>
</linearGradient>
<linearGradient id="paint4_linear" x1="182.743" y1="146.491" x2="221.522" y2="146.491" gradientUnits="userSpaceOnUse">
<stop stop-color="#454C8D"/>
<stop offset="0.9964" stop-color="#404278"/>
</linearGradient>
<linearGradient id="paint5_linear" x1="187.775" y1="145.507" x2="217.971" y2="145.507" gradientUnits="userSpaceOnUse">
<stop stop-color="#454C8D"/>
<stop offset="0.9964" stop-color="#26274F"/>
</linearGradient>
<linearGradient id="paint6_linear" x1="36.1481" y1="122.864" x2="40.7486" y2="209.816" gradientUnits="userSpaceOnUse">
<stop stop-color="#9681BC"/>
<stop offset="0.9964" stop-color="#6166AE"/>
</linearGradient>
<linearGradient id="paint7_linear" x1="36.1481" y1="122.864" x2="40.7486" y2="209.816" gradientUnits="userSpaceOnUse">
<stop stop-color="#9681BC"/>
<stop offset="0.9964" stop-color="#6166AE"/>
</linearGradient>
<linearGradient id="paint8_linear" x1="41.3963" y1="153.642" x2="44.3258" y2="209.011" gradientUnits="userSpaceOnUse">
<stop stop-color="#9681BC"/>
<stop offset="0.9964" stop-color="#6166AE"/>
</linearGradient>
<linearGradient id="paint9_linear" x1="37.3922" y1="10.0603" x2="40.8356" y2="75.1409" gradientUnits="userSpaceOnUse">
<stop stop-color="#9681BC"/>
<stop offset="0.9964" stop-color="#6166AE"/>
</linearGradient>
<linearGradient id="paint10_linear" x1="47.2486" y1="101.369" x2="47.0246" y2="93.7429" gradientUnits="userSpaceOnUse">
<stop stop-color="#9681BC"/>
<stop offset="0.9964" stop-color="#6166AE"/>
</linearGradient>
<linearGradient id="paint11_linear" x1="47.2006" y1="106.894" x2="47.0262" y2="100.958" gradientUnits="userSpaceOnUse">
<stop stop-color="#9681BC"/>
<stop offset="0.9964" stop-color="#6166AE"/>
</linearGradient>
<linearGradient id="paint12_linear" x1="47.1526" y1="112.42" x2="47.0279" y2="108.173" gradientUnits="userSpaceOnUse">
<stop stop-color="#9681BC"/>
<stop offset="0.9964" stop-color="#6166AE"/>
</linearGradient>
<linearGradient id="paint13_linear" x1="49.4768" y1="284.125" x2="45.5618" y2="150.833" gradientUnits="userSpaceOnUse">
<stop stop-color="#9681BC"/>
<stop offset="0.9964" stop-color="#6166AE"/>
</linearGradient>
<linearGradient id="paint14_linear" x1="138.105" y1="83.5064" x2="143.385" y2="-24.2187" gradientUnits="userSpaceOnUse">
<stop stop-color="#321944"/>
<stop offset="1" stop-color="#A13B77"/>
</linearGradient>
<linearGradient id="paint15_linear" x1="138.351" y1="83.5036" x2="143.631" y2="-24.2164" gradientUnits="userSpaceOnUse">
<stop stop-color="#321944"/>
<stop offset="1" stop-color="#A13B77"/>
</linearGradient>
<linearGradient id="paint16_linear" x1="138.524" y1="83.5016" x2="143.804" y2="-24.2143" gradientUnits="userSpaceOnUse">
<stop stop-color="#321944"/>
<stop offset="1" stop-color="#A13B77"/>
</linearGradient>
<linearGradient id="paint17_linear" x1="139.075" y1="83.7484" x2="144.366" y2="-24.2061" gradientUnits="userSpaceOnUse">
<stop stop-color="#321944"/>
<stop offset="1" stop-color="#A13B77"/>
</linearGradient>
<linearGradient id="paint18_linear" x1="205.677" y1="-206.116" x2="143.684" y2="62.0588" gradientUnits="userSpaceOnUse">
<stop stop-color="#FCB149"/>
<stop offset="0.0125" stop-color="#FCB449"/>
<stop offset="0.0767" stop-color="#FEBE47"/>
<stop offset="0.1587" stop-color="#FEC347"/>
<stop offset="0.3183" stop-color="#FFC546"/>
<stop offset="0.447" stop-color="#FDBD49"/>
<stop offset="0.6713" stop-color="#FAA84D"/>
<stop offset="0.8658" stop-color="#F79350"/>
<stop offset="1" stop-color="#F79350"/>
</linearGradient>
<linearGradient id="paint19_linear" x1="146.498" y1="64.0254" x2="148.472" y2="139.581" gradientUnits="userSpaceOnUse">
<stop offset="0.3183" stop-color="#FFC546"/>
<stop offset="0.4597" stop-color="#FDBD48"/>
<stop offset="0.6054" stop-color="#FCB149"/>
<stop offset="0.6066" stop-color="#FBB149"/>
<stop offset="0.6461" stop-color="#F9A34D"/>
<stop offset="0.6922" stop-color="#F89A4F"/>
<stop offset="0.7512" stop-color="#F79450"/>
<stop offset="0.8658" stop-color="#F79350"/>
<stop offset="1" stop-color="#F79350"/>
</linearGradient>
<linearGradient id="paint20_linear" x1="91.981" y1="53.2316" x2="150.538" y2="53.2316" gradientUnits="userSpaceOnUse">
<stop stop-color="#FCB149"/>
<stop offset="0.0125" stop-color="#FCB449"/>
<stop offset="0.0767" stop-color="#FEBE47"/>
<stop offset="0.1587" stop-color="#FEC347"/>
<stop offset="0.3183" stop-color="#FFC546"/>
<stop offset="0.447" stop-color="#FDBD49"/>
<stop offset="0.6713" stop-color="#FAA84D"/>
<stop offset="0.8658" stop-color="#F79350"/>
<stop offset="1" stop-color="#F79350"/>
</linearGradient>
<linearGradient id="paint21_linear" x1="131.49" y1="157.296" x2="77.2183" y2="159.251" gradientUnits="userSpaceOnUse">
<stop stop-color="#F8962C"/>
<stop offset="1" stop-color="#EF3C26"/>
</linearGradient>
<linearGradient id="paint22_linear" x1="32.1474" y1="225.834" x2="89.4468" y2="93.6664" gradientUnits="userSpaceOnUse">
<stop stop-color="#F8962C"/>
<stop offset="1" stop-color="#EF3C26"/>
</linearGradient>
<linearGradient id="paint23_linear" x1="51.7727" y1="128.845" x2="63.1422" y2="103.747" gradientUnits="userSpaceOnUse">
<stop stop-color="#321944"/>
<stop offset="1" stop-color="#6C3A77"/>
</linearGradient>
<linearGradient id="paint24_linear" x1="54.787" y1="130.224" x2="66.1685" y2="105.101" gradientUnits="userSpaceOnUse">
<stop stop-color="#321944"/>
<stop offset="1" stop-color="#6C3A77"/>
</linearGradient>
<linearGradient id="paint25_linear" x1="40.8753" y1="227.22" x2="101.344" y2="87.7408" gradientUnits="userSpaceOnUse">
<stop stop-color="#F58F86"/>
<stop offset="1" stop-color="#ED72AC"/>
</linearGradient>
<linearGradient id="paint26_linear" x1="100.749" y1="187.976" x2="80.0556" y2="172.308" gradientUnits="userSpaceOnUse">
<stop offset="0.003597" stop-color="#26274F"/>
<stop offset="1" stop-color="#454C8D"/>
</linearGradient>
<linearGradient id="paint27_linear" x1="67.5414" y1="169.468" x2="116.103" y2="189.233" gradientUnits="userSpaceOnUse">
<stop offset="0.003597" stop-color="#26274F"/>
<stop offset="1" stop-color="#454C8D"/>
</linearGradient>
<linearGradient id="paint28_linear" x1="93.0893" y1="177.657" x2="92.7398" y2="148.23" gradientUnits="userSpaceOnUse">
<stop stop-color="#9681BC"/>
<stop offset="0.9964" stop-color="#6166AE"/>
</linearGradient>
<linearGradient id="paint29_linear" x1="43.3177" y1="209.047" x2="-10.4966" y2="74.4048" gradientUnits="userSpaceOnUse">
<stop stop-color="#F8962C"/>
<stop offset="1" stop-color="#EF3C26"/>
</linearGradient>
<linearGradient id="paint30_linear" x1="62.0535" y1="109.148" x2="63.8842" y2="118.013" gradientUnits="userSpaceOnUse">
<stop offset="0.3183" stop-color="#FFC546"/>
<stop offset="0.4597" stop-color="#FDBD48"/>
<stop offset="0.6054" stop-color="#FCB149"/>
<stop offset="0.6066" stop-color="#FBB149"/>
<stop offset="0.6461" stop-color="#F9A34D"/>
<stop offset="0.6922" stop-color="#F89A4F"/>
<stop offset="0.7512" stop-color="#F79450"/>
<stop offset="0.8658" stop-color="#F79350"/>
<stop offset="1" stop-color="#F79350"/>
</linearGradient>
<linearGradient id="paint31_linear" x1="58.5189" y1="100.113" x2="51.5876" y2="82.5388" gradientUnits="userSpaceOnUse">
<stop offset="0.3183" stop-color="#FFC546"/>
<stop offset="0.4597" stop-color="#FDBD48"/>
<stop offset="0.6054" stop-color="#FCB149"/>
<stop offset="0.6066" stop-color="#FBB149"/>
<stop offset="0.6461" stop-color="#F9A34D"/>
<stop offset="0.6922" stop-color="#F89A4F"/>
<stop offset="0.7512" stop-color="#F79450"/>
<stop offset="0.8658" stop-color="#F79350"/>
<stop offset="1" stop-color="#F79350"/>
</linearGradient>
<linearGradient id="paint32_linear" x1="60.5145" y1="101.509" x2="62.3447" y2="110.372" gradientUnits="userSpaceOnUse">
<stop offset="0.3183" stop-color="#FFC546"/>
<stop offset="0.4597" stop-color="#FDBD48"/>
<stop offset="0.6054" stop-color="#FCB149"/>
<stop offset="0.6066" stop-color="#FBB149"/>
<stop offset="0.6461" stop-color="#F9A34D"/>
<stop offset="0.6922" stop-color="#F89A4F"/>
<stop offset="0.7512" stop-color="#F79450"/>
<stop offset="0.8658" stop-color="#F79350"/>
<stop offset="1" stop-color="#F79350"/>
</linearGradient>
<linearGradient id="paint33_linear" x1="59.7179" y1="92.2374" x2="62.5973" y2="106.18" gradientUnits="userSpaceOnUse">
<stop offset="0.3183" stop-color="#FFC546"/>
<stop offset="0.4597" stop-color="#FDBD48"/>
<stop offset="0.6054" stop-color="#FCB149"/>
<stop offset="0.6066" stop-color="#FBB149"/>
<stop offset="0.6461" stop-color="#F9A34D"/>
<stop offset="0.6922" stop-color="#F89A4F"/>
<stop offset="0.7512" stop-color="#F79450"/>
<stop offset="0.8658" stop-color="#F79350"/>
<stop offset="1" stop-color="#F79350"/>
</linearGradient>
<linearGradient id="paint34_linear" x1="58.324" y1="93.8743" x2="60.9436" y2="106.559" gradientUnits="userSpaceOnUse">
<stop offset="0.3183" stop-color="#FFC546"/>
<stop offset="0.4597" stop-color="#FDBD48"/>
<stop offset="0.6054" stop-color="#FCB149"/>
<stop offset="0.6066" stop-color="#FBB149"/>
<stop offset="0.6461" stop-color="#F9A34D"/>
<stop offset="0.6922" stop-color="#F89A4F"/>
<stop offset="0.7512" stop-color="#F79450"/>
<stop offset="0.8658" stop-color="#F79350"/>
<stop offset="1" stop-color="#F79350"/>
</linearGradient>
<linearGradient id="paint35_linear" x1="51.8413" y1="112.547" x2="62.3519" y2="95.5907" gradientUnits="userSpaceOnUse">
<stop offset="0.3183" stop-color="#FFC546"/>
<stop offset="0.4597" stop-color="#FDBD48"/>
<stop offset="0.6054" stop-color="#FCB149"/>
<stop offset="0.6066" stop-color="#FBB149"/>
<stop offset="0.6461" stop-color="#F9A34D"/>
<stop offset="0.6922" stop-color="#F89A4F"/>
<stop offset="0.7512" stop-color="#F79450"/>
<stop offset="0.8658" stop-color="#F79350"/>
<stop offset="1" stop-color="#F79350"/>
</linearGradient>
<linearGradient id="paint36_linear" x1="60.6516" y1="103.041" x2="61.8438" y2="108.815" gradientUnits="userSpaceOnUse">
<stop offset="0.3183" stop-color="#FFC546"/>
<stop offset="0.4597" stop-color="#FDBD48"/>
<stop offset="0.6054" stop-color="#FCB149"/>
<stop offset="0.6066" stop-color="#FBB149"/>
<stop offset="0.6461" stop-color="#F9A34D"/>
<stop offset="0.6922" stop-color="#F89A4F"/>
<stop offset="0.7512" stop-color="#F79450"/>
<stop offset="0.8658" stop-color="#F79350"/>
<stop offset="1" stop-color="#F79350"/>
</linearGradient>
</defs>
</svg>
